<mxfile host="Electron" agent="Mozilla/5.0 (Macintosh; Intel Mac OS X 10_15_7) AppleWebKit/537.36 (KHTML, like Gecko) draw.io/28.0.4 Chrome/138.0.7204.97 Electron/37.2.1 Safari/537.36" version="28.0.4">
  <diagram name="Page-1" id="TdveYqyVv0ApAfHBMf7y">
    <mxGraphModel dx="1198" dy="828" grid="1" gridSize="10" guides="1" tooltips="1" connect="1" arrows="1" fold="1" page="1" pageScale="1" pageWidth="850" pageHeight="1100" math="0" shadow="0">
      <root>
        <mxCell id="0" />
        <mxCell id="1" parent="0" />
        <mxCell id="6GTcLYlPlf5bQPA8wPKu-14" value="" style="rounded=1;whiteSpace=wrap;html=1;dashed=1;fontFamily=Helvetica;fillColor=#d5e8d4;strokeColor=#82b366;" parent="1" vertex="1">
          <mxGeometry x="286" y="240" width="574" height="130" as="geometry" />
        </mxCell>
        <mxCell id="ftwKBMuob_kEdf0Gnwus-2" style="edgeStyle=orthogonalEdgeStyle;rounded=0;orthogonalLoop=1;jettySize=auto;html=1;exitX=1;exitY=0.5;exitDx=0;exitDy=0;entryX=0;entryY=0.5;entryDx=0;entryDy=0;endArrow=block;endFill=1;" edge="1" parent="1" source="6GTcLYlPlf5bQPA8wPKu-15" target="6GTcLYlPlf5bQPA8wPKu-51">
          <mxGeometry relative="1" as="geometry" />
        </mxCell>
        <mxCell id="6GTcLYlPlf5bQPA8wPKu-15" value="" style="rounded=0;whiteSpace=wrap;html=1;fontFamily=Helvetica;" parent="1" vertex="1">
          <mxGeometry x="297" y="275" width="120" height="60" as="geometry" />
        </mxCell>
        <mxCell id="6GTcLYlPlf5bQPA8wPKu-46" value="" style="endArrow=block;html=1;rounded=0;entryX=0;entryY=0.5;entryDx=0;entryDy=0;exitX=1;exitY=0.5;exitDx=0;exitDy=0;endFill=1;strokeWidth=1;fontFamily=Helvetica;" parent="1" target="6GTcLYlPlf5bQPA8wPKu-15" edge="1" source="6GTcLYlPlf5bQPA8wPKu-7">
          <mxGeometry width="50" height="50" relative="1" as="geometry">
            <mxPoint x="210" y="305" as="sourcePoint" />
            <mxPoint x="280" y="304.5" as="targetPoint" />
          </mxGeometry>
        </mxCell>
        <mxCell id="6GTcLYlPlf5bQPA8wPKu-48" value="&lt;font style=&quot;font-size: 12px;&quot;&gt;Input&lt;/font&gt;" style="edgeLabel;html=1;align=center;verticalAlign=middle;resizable=0;points=[];labelBorderColor=default;fontFamily=Helvetica;" parent="6GTcLYlPlf5bQPA8wPKu-46" vertex="1" connectable="0">
          <mxGeometry x="0.1776" relative="1" as="geometry">
            <mxPoint x="-10" as="offset" />
          </mxGeometry>
        </mxCell>
        <mxCell id="6GTcLYlPlf5bQPA8wPKu-49" value="&lt;font&gt;&lt;b&gt;Band-pass Filter&lt;/b&gt;&lt;/font&gt;" style="text;html=1;align=center;verticalAlign=middle;whiteSpace=wrap;rounded=0;fontFamily=Helvetica;" parent="1" vertex="1">
          <mxGeometry x="302" y="278" width="110" height="30" as="geometry" />
        </mxCell>
        <mxCell id="6GTcLYlPlf5bQPA8wPKu-50" value="&lt;font style=&quot;font-size: 9px;&quot;&gt;(0.1 - 100 Hz, FIR)&lt;/font&gt;" style="text;html=1;align=center;verticalAlign=middle;whiteSpace=wrap;rounded=0;fontFamily=Helvetica;" parent="1" vertex="1">
          <mxGeometry x="300" y="303" width="110" height="30" as="geometry" />
        </mxCell>
        <mxCell id="6GTcLYlPlf5bQPA8wPKu-63" style="edgeStyle=orthogonalEdgeStyle;rounded=0;orthogonalLoop=1;jettySize=auto;html=1;exitX=1;exitY=0.5;exitDx=0;exitDy=0;entryX=0;entryY=0.5;entryDx=0;entryDy=0;fontFamily=Helvetica;endArrow=block;endFill=1;" parent="1" source="6GTcLYlPlf5bQPA8wPKu-51" target="6GTcLYlPlf5bQPA8wPKu-54" edge="1">
          <mxGeometry relative="1" as="geometry" />
        </mxCell>
        <mxCell id="6GTcLYlPlf5bQPA8wPKu-51" value="" style="rounded=0;whiteSpace=wrap;html=1;fontFamily=Helvetica;" parent="1" vertex="1">
          <mxGeometry x="442" y="275" width="120" height="60" as="geometry" />
        </mxCell>
        <mxCell id="6GTcLYlPlf5bQPA8wPKu-52" value="&lt;font&gt;&lt;b style=&quot;&quot;&gt;Notch Filter&lt;/b&gt;&lt;/font&gt;" style="text;html=1;align=center;verticalAlign=middle;whiteSpace=wrap;rounded=0;fontFamily=Helvetica;" parent="1" vertex="1">
          <mxGeometry x="447" y="278" width="110" height="30" as="geometry" />
        </mxCell>
        <mxCell id="6GTcLYlPlf5bQPA8wPKu-53" value="&lt;font style=&quot;font-size: 9px;&quot;&gt;(50 Hz, FIR)&lt;/font&gt;" style="text;html=1;align=center;verticalAlign=middle;whiteSpace=wrap;rounded=0;fontFamily=Helvetica;" parent="1" vertex="1">
          <mxGeometry x="447" y="303" width="110" height="30" as="geometry" />
        </mxCell>
        <mxCell id="6GTcLYlPlf5bQPA8wPKu-67" style="edgeStyle=orthogonalEdgeStyle;rounded=0;orthogonalLoop=1;jettySize=auto;html=1;exitX=1;exitY=0.5;exitDx=0;exitDy=0;entryX=0;entryY=0.5;entryDx=0;entryDy=0;fontFamily=Helvetica;endArrow=block;endFill=1;" parent="1" source="6GTcLYlPlf5bQPA8wPKu-54" target="6GTcLYlPlf5bQPA8wPKu-64" edge="1">
          <mxGeometry relative="1" as="geometry" />
        </mxCell>
        <mxCell id="6GTcLYlPlf5bQPA8wPKu-54" value="" style="rounded=0;whiteSpace=wrap;html=1;fontFamily=Helvetica;" parent="1" vertex="1">
          <mxGeometry x="587" y="275" width="120" height="60" as="geometry" />
        </mxCell>
        <mxCell id="6GTcLYlPlf5bQPA8wPKu-55" value="&lt;b style=&quot;&quot;&gt;&lt;font&gt;Average Reference&lt;/font&gt;&lt;/b&gt;" style="text;html=1;align=center;verticalAlign=middle;whiteSpace=wrap;rounded=0;fontFamily=Helvetica;" parent="1" vertex="1">
          <mxGeometry x="592" y="290" width="110" height="30" as="geometry" />
        </mxCell>
        <mxCell id="ftwKBMuob_kEdf0Gnwus-34" style="edgeStyle=orthogonalEdgeStyle;rounded=0;orthogonalLoop=1;jettySize=auto;html=1;exitX=1;exitY=0.5;exitDx=0;exitDy=0;entryX=0;entryY=0.5;entryDx=0;entryDy=0;" edge="1" parent="1" source="6GTcLYlPlf5bQPA8wPKu-64" target="6GTcLYlPlf5bQPA8wPKu-81">
          <mxGeometry relative="1" as="geometry" />
        </mxCell>
        <mxCell id="ftwKBMuob_kEdf0Gnwus-35" value="Output" style="edgeLabel;html=1;align=center;verticalAlign=middle;resizable=0;points=[];labelBorderColor=default;" vertex="1" connectable="0" parent="ftwKBMuob_kEdf0Gnwus-34">
          <mxGeometry x="-0.0268" y="3" relative="1" as="geometry">
            <mxPoint y="2" as="offset" />
          </mxGeometry>
        </mxCell>
        <mxCell id="6GTcLYlPlf5bQPA8wPKu-64" value="" style="rounded=0;whiteSpace=wrap;html=1;fontFamily=Helvetica;" parent="1" vertex="1">
          <mxGeometry x="730" y="275" width="120" height="60" as="geometry" />
        </mxCell>
        <mxCell id="6GTcLYlPlf5bQPA8wPKu-65" value="&lt;font&gt;&lt;b style=&quot;&quot;&gt;Epoching&lt;/b&gt;&lt;/font&gt;" style="text;html=1;align=center;verticalAlign=middle;whiteSpace=wrap;rounded=0;fontFamily=Helvetica;" parent="1" vertex="1">
          <mxGeometry x="735" y="277" width="110" height="30" as="geometry" />
        </mxCell>
        <mxCell id="6GTcLYlPlf5bQPA8wPKu-66" value="&lt;font style=&quot;font-size: 9px;&quot;&gt;(2s segments, Overlap=0)&lt;/font&gt;" style="text;html=1;align=center;verticalAlign=middle;whiteSpace=wrap;rounded=0;fontFamily=Helvetica;" parent="1" vertex="1">
          <mxGeometry x="735" y="303" width="110" height="30" as="geometry" />
        </mxCell>
        <mxCell id="6GTcLYlPlf5bQPA8wPKu-81" value="" style="rounded=1;whiteSpace=wrap;html=1;fontFamily=Helvetica;fillColor=#dae8fc;strokeColor=#6c8ebf;" parent="1" vertex="1">
          <mxGeometry x="920" y="240" width="240" height="130" as="geometry" />
        </mxCell>
        <mxCell id="6GTcLYlPlf5bQPA8wPKu-82" value="Cleaned Epochs" style="text;html=1;align=center;verticalAlign=middle;whiteSpace=wrap;rounded=0;fontFamily=Helvetica;" parent="1" vertex="1">
          <mxGeometry x="987.5" y="240" width="105" height="30" as="geometry" />
        </mxCell>
        <mxCell id="6GTcLYlPlf5bQPA8wPKu-83" value="&lt;font style=&quot;font-size: 9px;&quot;&gt;(64 channels, epoch, 512 samples)&lt;/font&gt;" style="text;html=1;align=center;verticalAlign=middle;whiteSpace=wrap;rounded=0;fontFamily=Helvetica;" parent="1" vertex="1">
          <mxGeometry x="935" y="340" width="207.5" height="30" as="geometry" />
        </mxCell>
        <mxCell id="6GTcLYlPlf5bQPA8wPKu-105" value="Preprocessing" style="text;html=1;align=center;verticalAlign=middle;whiteSpace=wrap;rounded=0;fontFamily=Helvetica;" parent="1" vertex="1">
          <mxGeometry x="524.5" y="240" width="97" height="30" as="geometry" />
        </mxCell>
        <mxCell id="6GTcLYlPlf5bQPA8wPKu-107" value="" style="endArrow=classic;html=1;rounded=0;fontFamily=Helvetica;" parent="1" edge="1">
          <mxGeometry width="50" height="50" relative="1" as="geometry">
            <mxPoint x="935.5" y="340" as="sourcePoint" />
            <mxPoint x="935.5" y="270" as="targetPoint" />
          </mxGeometry>
        </mxCell>
        <mxCell id="6GTcLYlPlf5bQPA8wPKu-108" value="" style="endArrow=classic;html=1;rounded=0;fontFamily=Helvetica;" parent="1" edge="1">
          <mxGeometry width="50" height="50" relative="1" as="geometry">
            <mxPoint x="935.5" y="340" as="sourcePoint" />
            <mxPoint x="1132.5" y="340" as="targetPoint" />
          </mxGeometry>
        </mxCell>
        <mxCell id="6GTcLYlPlf5bQPA8wPKu-124" value="&lt;font size=&quot;1&quot;&gt;sample&lt;/font&gt;" style="text;html=1;align=center;verticalAlign=middle;whiteSpace=wrap;rounded=0;fontFamily=Helvetica;" parent="1" vertex="1">
          <mxGeometry x="1103.5" y="312" width="60" height="30" as="geometry" />
        </mxCell>
        <mxCell id="6GTcLYlPlf5bQPA8wPKu-137" value="&lt;font style=&quot;font-size: 9px;&quot;&gt;Channel&lt;/font&gt;" style="text;html=1;align=center;verticalAlign=middle;whiteSpace=wrap;rounded=0;fontFamily=Helvetica;" parent="1" vertex="1">
          <mxGeometry x="932" y="254" width="60" height="30" as="geometry" />
        </mxCell>
        <mxCell id="ftwKBMuob_kEdf0Gnwus-18" value="" style="group" vertex="1" connectable="0" parent="1">
          <mxGeometry x="90" y="260" width="157.5" height="110" as="geometry" />
        </mxCell>
        <mxCell id="ftwKBMuob_kEdf0Gnwus-20" value="" style="group" vertex="1" connectable="0" parent="ftwKBMuob_kEdf0Gnwus-18">
          <mxGeometry width="156.57999999999998" height="110" as="geometry" />
        </mxCell>
        <mxCell id="6GTcLYlPlf5bQPA8wPKu-7" value="" style="rounded=1;whiteSpace=wrap;html=1;fontFamily=Helvetica;fillColor=#f5f5f5;fontColor=#333333;strokeColor=#666666;" parent="ftwKBMuob_kEdf0Gnwus-20" vertex="1">
          <mxGeometry x="-27.42" y="-20" width="184" height="130" as="geometry" />
        </mxCell>
        <mxCell id="ftwKBMuob_kEdf0Gnwus-7" value="" style="verticalLabelPosition=bottom;verticalAlign=top;html=1;shape=mxgraph.basic.rect;fillColor2=none;strokeWidth=1;size=20;indent=5;fillColor=#dae8fc;strokeColor=#6c8ebf;" vertex="1" parent="ftwKBMuob_kEdf0Gnwus-20">
          <mxGeometry x="18.967741935483872" y="17.2840625" width="80.38709677419355" height="52.761874999999996" as="geometry" />
        </mxCell>
        <mxCell id="ftwKBMuob_kEdf0Gnwus-8" value="" style="verticalLabelPosition=bottom;verticalAlign=top;html=1;shape=mxgraph.basic.rect;fillColor2=none;strokeWidth=1;size=20;indent=5;fillColor=#ffe6cc;strokeColor=#d79b00;" vertex="1" parent="ftwKBMuob_kEdf0Gnwus-20">
          <mxGeometry x="24.387096774193548" y="22.7421875" width="80.38709677419355" height="52.761874999999996" as="geometry" />
        </mxCell>
        <mxCell id="ftwKBMuob_kEdf0Gnwus-9" value="" style="verticalLabelPosition=bottom;verticalAlign=top;html=1;shape=mxgraph.basic.rect;fillColor2=none;strokeWidth=1;size=20;indent=5;fillColor=#dae8fc;strokeColor=#6c8ebf;" vertex="1" parent="ftwKBMuob_kEdf0Gnwus-20">
          <mxGeometry x="29.806451612903224" y="28.2003125" width="80.38709677419355" height="52.761874999999996" as="geometry" />
        </mxCell>
        <mxCell id="ftwKBMuob_kEdf0Gnwus-10" value="" style="verticalLabelPosition=bottom;verticalAlign=top;html=1;shape=mxgraph.basic.rect;fillColor2=none;strokeWidth=1;size=20;indent=5;" vertex="1" parent="ftwKBMuob_kEdf0Gnwus-20">
          <mxGeometry x="35.225806451612904" y="34.568125" width="80.38709677419355" height="52.761874999999996" as="geometry" />
        </mxCell>
        <mxCell id="ftwKBMuob_kEdf0Gnwus-13" value="" style="endArrow=blockThin;html=1;rounded=0;endFill=1;exitX=0;exitY=1.001;exitDx=0;exitDy=0;exitPerimeter=0;" edge="1" parent="ftwKBMuob_kEdf0Gnwus-20" source="ftwKBMuob_kEdf0Gnwus-10">
          <mxGeometry width="50" height="50" relative="1" as="geometry">
            <mxPoint x="31.693290322580616" y="89.90077687499992" as="sourcePoint" />
            <mxPoint x="128.25806451612902" y="87.33" as="targetPoint" />
          </mxGeometry>
        </mxCell>
        <mxCell id="ftwKBMuob_kEdf0Gnwus-14" value="" style="endArrow=blockThin;html=1;rounded=0;endFill=1;exitX=0.002;exitY=1;exitDx=0;exitDy=0;exitPerimeter=0;" edge="1" parent="ftwKBMuob_kEdf0Gnwus-20">
          <mxGeometry width="50" height="50" relative="1" as="geometry">
            <mxPoint x="35.22399999999999" y="87.33" as="sourcePoint" />
            <mxPoint x="5.419354838709677" y="57.3103125" as="targetPoint" />
          </mxGeometry>
        </mxCell>
        <mxCell id="ftwKBMuob_kEdf0Gnwus-15" value="&lt;font style=&quot;font-size: 7px;&quot;&gt;Time&lt;/font&gt;" style="text;html=1;align=center;verticalAlign=middle;whiteSpace=wrap;rounded=0;" vertex="1" parent="ftwKBMuob_kEdf0Gnwus-20">
          <mxGeometry x="112.90322580645162" y="71.8653125" width="27.096774193548388" height="11.8259375" as="geometry" />
        </mxCell>
        <mxCell id="ftwKBMuob_kEdf0Gnwus-16" value="&lt;font style=&quot;font-size: 7px;&quot;&gt;Files&lt;/font&gt;" style="text;html=1;align=center;verticalAlign=middle;whiteSpace=wrap;rounded=0;" vertex="1" parent="ftwKBMuob_kEdf0Gnwus-20">
          <mxGeometry y="45.02953125" width="18.064516129032256" height="11.8259375" as="geometry" />
        </mxCell>
        <mxCell id="ftwKBMuob_kEdf0Gnwus-17" value="&lt;font style=&quot;font-size: 7px;&quot;&gt;Channel&lt;/font&gt;" style="text;html=1;align=center;verticalAlign=middle;whiteSpace=wrap;rounded=0;" vertex="1" parent="ftwKBMuob_kEdf0Gnwus-20">
          <mxGeometry x="38.83870967741935" width="27.096774193548388" height="11.8259375" as="geometry" />
        </mxCell>
        <mxCell id="ftwKBMuob_kEdf0Gnwus-19" value="" style="endArrow=blockThin;html=1;rounded=0;endFill=1;exitX=0.002;exitY=0.997;exitDx=0;exitDy=0;exitPerimeter=0;entryX=0.202;entryY=-0.026;entryDx=0;entryDy=0;entryPerimeter=0;" edge="1" parent="ftwKBMuob_kEdf0Gnwus-20" source="ftwKBMuob_kEdf0Gnwus-10">
          <mxGeometry width="50" height="50" relative="1" as="geometry">
            <mxPoint x="35.225419354838735" y="75.50171437500008" as="sourcePoint" />
            <mxPoint x="35.28593548387097" y="4.242253749999992" as="targetPoint" />
          </mxGeometry>
        </mxCell>
        <mxCell id="ftwKBMuob_kEdf0Gnwus-23" value="" style="shape=image;aspect=fixed;image=data:image/svg+xml,PD94bWwgdmVyc2lvbj0iMS4wIiBlbmNvZGluZz0idXRmLTgiIHN0YW5kYWxvbmU9Im5vIj8+CjwhRE9DVFlQRSBzdmcgUFVCTElDICItLy9XM0MvL0RURCBTVkcgMS4xLy9FTiIKICAiaHR0cDovL3d3dy53My5vcmcvR3JhcGhpY3MvU1ZHLzEuMS9EVEQvc3ZnMTEuZHRkIj4KPHN2ZyB4bWxuczp4bGluaz0iaHR0cDovL3d3dy53My5vcmcvMTk5OS94bGluayIgd2lkdGg9IjI5My40cHQiIGhlaWdodD0iNjkuODRwdCIgdmlld0JveD0iMCAwIDI5My40IDY5Ljg0IiB4bWxucz0iaHR0cDovL3d3dy53My5vcmcvMjAwMC9zdmciIHZlcnNpb249IjEuMSI+CiA8bWV0YWRhdGE+CiAgPHJkZjpSREYgeG1sbnM6ZGM9Imh0dHA6Ly9wdXJsLm9yZy9kYy9lbGVtZW50cy8xLjEvIiB4bWxuczpjYz0iaHR0cDovL2NyZWF0aXZlY29tbW9ucy5vcmcvbnMjIiB4bWxuczpyZGY9Imh0dHA6Ly93d3cudzMub3JnLzE5OTkvMDIvMjItcmRmLXN5bnRheC1ucyMiPgogICA8Y2M6V29yaz4KICAgIDxkYzp0eXBlIHJkZjpyZXNvdXJjZT0iaHR0cDovL3B1cmwub3JnL2RjL2RjbWl0eXBlL1N0aWxsSW1hZ2UiLz4KICAgIDxkYzpkYXRlPjIwMjUtMDctMTZUMjI6MzE6MzMuNDU2NDkzPC9kYzpkYXRlPgogICAgPGRjOmZvcm1hdD5pbWFnZS9zdmcreG1sPC9kYzpmb3JtYXQ+CiAgICA8ZGM6Y3JlYXRvcj4KICAgICA8Y2M6QWdlbnQ+CiAgICAgIDxkYzp0aXRsZT5NYXRwbG90bGliIHYzLjkuNCwgaHR0cHM6Ly9tYXRwbG90bGliLm9yZy88L2RjOnRpdGxlPgogICAgIDwvY2M6QWdlbnQ+CiAgICA8L2RjOmNyZWF0b3I+CiAgIDwvY2M6V29yaz4KICA8L3JkZjpSREY+CiA8L21ldGFkYXRhPgogPGRlZnM+CiAgPHN0eWxlIHR5cGU9InRleHQvY3NzIj4qe3N0cm9rZS1saW5lam9pbjogcm91bmQ7IHN0cm9rZS1saW5lY2FwOiBidXR0fTwvc3R5bGU+CiA8L2RlZnM+CiA8ZyBpZD0iZmlndXJlXzEiPgogIDxnIGlkPSJwYXRjaF8xIj4KICAgPHBhdGggZD0iTSAwIDY5Ljg0IApMIDI5My40IDY5Ljg0IApMIDI5My40IDAgCkwgMCAwIAp6CiIgc3R5bGU9ImZpbGw6ICNmZmZmZmYiLz4KICA8L2c+CiAgPGcgaWQ9ImF4ZXNfMSI+CiAgIDxnIGlkPSJsaW5lMmRfMSI+CiAgICA8cGF0aCBkPSJNIDE5Ljg4MTgxOCAzNi40MzU5MTMgCkwgMjAuMTk5MjYgMzUuNDg4ODIyIApMIDIwLjUxNjcwMyAzMS4xNzg1MyAKTCAyMS4xNTE1ODcgMzguMTk2MDY1IApMIDIxLjc4NjQ3MiAyMy4yMDE3MzIgCkwgMjIuMTAzOTE0IDE5LjE1NDUzMSAKTCAyMi40MjEzNTYgMjEuNzIwMTAxIApMIDIyLjczODc5OCAyMC40MzUyMDcgCkwgMjMuMDU2MjQxIDIyLjI1NDkyNSAKTCAyMy4zNzM2ODMgMjAuODAwMTA1IApMIDIzLjY5MTEyNSAxNS41MjYyMDkgCkwgMjQuMDA4NTY4IDIyLjExMTc5OSAKTCAyNC4zMjYwMSAxNy40ODk0MDMgCkwgMjQuNjQzNDUyIDIzLjI2MTk3NSAKTCAyNC45NjA4OTQgMjUuMDM3NTg2IApMIDI1LjI3ODMzNyAxNy4yOTA0OSAKTCAyNS41OTU3NzkgMTYuNzIwNDExIApMIDI1LjkxMzIyMSAyMy4zNjQ1MjUgCkwgMjYuMjMwNjYzIDIyLjI5MjgzMyAKTCAyNi41NDgxMDYgMjMuMTcwNTc1IApMIDI2Ljg2NTU0OCAxOC43MTk1MDMgCkwgMjcuMTgyOTkgMTguNTI2NjAzIApMIDI3LjUwMDQzMiAyMS41Mzg4MTkgCkwgMjcuODE3ODc1IDE3Ljk0MDk0OCAKTCAyOC4xMzUzMTcgMjQuMDAyMjE3IApMIDI4LjQ1Mjc1OSAyNS4zMTg1NjQgCkwgMjguNzcwMjAxIDI4LjIyNzU5MSAKTCAyOS4wODc2NDQgMjEuMjcwNTY2IApMIDI5LjQwNTA4NiAyMy4wODE2NTggCkwgMjkuNzIyNTI4IDIyLjg0ODY4MyAKTCAzMC4wMzk5NyAyOC44NTY4NDEgCkwgMzAuMzU3NDEzIDMxLjc2MzI0NSAKTCAzMC42NzQ4NTUgMjguMjk3NDEzIApMIDMwLjk5MjI5NyAyOC4zMDY3MjQgCkwgMzEuMzA5NzM5IDI4LjY5Njc1OSAKTCAzMS42MjcxODIgMjkuNDYwMTMzIApMIDMxLjk0NDYyNCAzNS4yNzMzMjYgCkwgMzIuMjYyMDY2IDQzLjQxODMwNyAKTCAzMi41Nzk1MDggMzQuNjA5MjYxIApMIDMyLjg5Njk1MSAzNi42Mzg1MzEgCkwgMzMuMjE0MzkzIDMzLjEyMDgwNyAKTCAzMy44NDkyNzggNDMuNjAwNTE5IApMIDM0LjE2NjcyIDQwLjM0NjEwOSAKTCAzNC40ODQxNjIgNDUuMzgxMjk4IApMIDM0LjgwMTYwNCAzMC44MDU5MzEgCkwgMzUuMTE5MDQ3IDQxLjc3MDk4IApMIDM1LjQzNjQ4OSA0Ny41NjE4NjEgCkwgMzUuNzUzOTMxIDQ2LjAwNDc4MyAKTCAzNi4wNzEzNzMgNTMuNzQ2NTEzIApMIDM2LjM4ODgxNiA1MC4xMDE4NTIgCkwgMzYuNzA2MjU4IDQyLjkzNTQ0OSAKTCAzNy4wMjM3IDQ0LjE0NzY3MiAKTCAzNy4zNDExNDIgNTAuMDM1MDcgCkwgMzcuNjU4NTg1IDUxLjI1MzEzNSAKTCAzOC4yOTM0NjkgNDQuMDQ3MTg3IApMIDM4LjYxMDkxMSA0Ni4wMDEwMzIgCkwgMzguOTI4MzU0IDU1LjYzMzM0NSAKTCAzOS4yNDU3OTYgNDguNDA1ODQgCkwgMzkuNTYzMjM4IDUxLjYwOCAKTCAzOS44ODA2OCA1Ny40MDE2OTggCkwgNDAuMTk4MTIzIDUxLjgyMzEwMyAKTCA0MC41MTU1NjUgNTUuMTg4NDYxIApMIDQxLjQ2Nzg5MiA0OC41MzEwMjMgCkwgNDEuNzg1MzM0IDQ0LjExMjkwOSAKTCA0Mi4xMDI3NzYgNDIuNTE2OTIgCkwgNDIuNDIwMjE4IDQ0Ljg5NTQ1IApMIDQyLjczNzY2MSA0Mi40ODU3NDggCkwgNDMuMDU1MTAzIDQ3LjU1MzkwOCAKTCA0My4zNzI1NDUgMzcuNDYzMzk2IApMIDQzLjY4OTk4NyAzMy43MDgzNTYgCkwgNDQuMzI0ODcyIDQ1LjgzMzA0OSAKTCA0NC42NDIzMTQgMzEuMDkwODk2IApMIDQ0Ljk1OTc1NyA0My4wMTUyMjggCkwgNDUuNTk0NjQxIDMyLjY5ODU4MSAKTCA0NS45MTIwODMgMzIuMjQ1Nzg3IApMIDQ2LjIyOTUyNiAzNi41NTY2NjMgCkwgNDYuNTQ2OTY4IDMxLjM4MTI1OSAKTCA0Ni44NjQ0MSAxOS4zMzA0NDIgCkwgNDcuMTgxODUyIDMwLjU5NzgyOSAKTCA0Ny40OTkyOTUgMjcuODc4OTU0IApMIDQ3LjgxNjczNyAxOS4yNDI1NzggCkwgNDguMTM0MTc5IDI2LjEzNTk5OCAKTCA0OC40NTE2MjEgMjYuMjEwMDgyIApMIDQ4Ljc2OTA2NCAxOC40Njk5MiAKTCA0OS4wODY1MDYgMjMuMzg2NDE2IApMIDQ5LjQwMzk0OCAyNS4zOTAxNzYgCkwgNDkuNzIxMzkgMjMuNTY2OTc0IApMIDUwLjAzODgzMyAyNy44NzYwNzcgCkwgNTAuMzU2Mjc1IDIyLjA3Nzc0MiAKTCA1MC42NzM3MTcgMjAuOTQ4MDMzIApMIDUwLjk5MTE1OSAxOC44ODMzMDMgCkwgNTEuMzA4NjAyIDIyLjk5MDAxMiAKTCA1MS42MjYwNDQgMjQuOTU5MTM2IApMIDUxLjk0MzQ4NiAzMC4yOTAxMTIgCkwgNTIuMjYwOTI4IDI2LjI4MTMzNiAKTCA1Mi41NzgzNzEgMTkuNzY5ODUgCkwgNTIuODk1ODEzIDIwLjcxODM4MiAKTCA1My4yMTMyNTUgMTkuMzAyODA0IApMIDUzLjUzMDY5NyAyMy42NTE1NzEgCkwgNTMuODQ4MTQgMTguMzMzOTk5IApMIDU0LjE2NTU4MiAxOS4zMDE0MiAKTCA1NC40ODMwMjQgMjQuMDM4MTQ4IApMIDU0LjgwMDQ2NiAyMC4yOTE0NzMgCkwgNTUuMTE3OTA5IDMxLjA2NjEwNyAKTCA1NS40MzUzNTEgMjIuNDU1NTYxIApMIDU1Ljc1Mjc5MyAyMC41NDU5IApMIDU2LjA3MDIzNiAzMS4yMDQ4NTYgCkwgNTYuMzg3Njc4IDM4LjA1MTAzNiAKTCA1Ni43MDUxMiAzMC4xNjIyOTcgCkwgNTcuMDIyNTYyIDM5LjEwNDQ1NiAKTCA1Ny4zNDAwMDUgMzAuNjA5NzAyIApMIDU3LjY1NzQ0NyAzMy4xMTI2NzYgCkwgNTcuOTc0ODg5IDMyLjUzMDY1NiAKTCA1OC4yOTIzMzEgMzMuMTYyMDE0IApMIDU4LjYwOTc3NCA0NS44MzcxMzcgCkwgNTguOTI3MjE2IDM5LjQxNjExNSAKTCA1OS4yNDQ2NTggNDMuNzY3MDEgCkwgNTkuODc5NTQzIDQzLjQ5NzMzMyAKTCA2MC4xOTY5ODUgNDYuODgyNzM3IApMIDYwLjUxNDQyNyA0MS45NDk0OTkgCkwgNjAuODMxODY5IDQ4LjA5NzIzNiAKTCA2MS4xNDkzMTIgNTAuMTk0Mzg2IApMIDYxLjQ2Njc1NCA0Mi4wNjM4NjEgCkwgNjEuNzg0MTk2IDUzLjI3MTA1OCAKTCA2Mi4xMDE2MzggNDEuNTcyOTc4IApMIDYyLjQxOTA4MSA1NS44NTQwMDkgCkwgNjIuNzM2NTIzIDQ4LjQ5NDAyOSAKTCA2My4wNTM5NjUgNTUuNjA3Nzk2IApMIDYzLjM3MTQwNyA0OC4xMzQ1MTQgCkwgNjMuNjg4ODUgNTMuMjk2MDU4IApMIDY0LjAwNjI5MiA1MC4yMjE5ODYgCkwgNjQuMzIzNzM0IDQ5LjU2OTM5NyAKTCA2NC42NDExNzYgNDMuMjc0NjYgCkwgNjQuOTU4NjE5IDUyLjQzNTM5MyAKTCA2NS4yNzYwNjEgNTAuMDE0NTcgCkwgNjUuNTkzNTAzIDQ2LjQwNzg2NyAKTCA2NS45MTA5NDYgNTEuNDgyMjQgCkwgNjYuMjI4Mzg4IDQ0LjkyMzE5NSAKTCA2Ni41NDU4MyA0OS4yMjE0MDEgCkwgNjYuODYzMjcyIDU1Ljk4NTE3MSAKTCA2Ny4xODA3MTUgNDcuOTk0Mjc1IApMIDY3LjQ5ODE1NyA0NS4yMTQ4NjIgCkwgNjcuODE1NTk5IDQ1LjkyMTUzNCAKTCA2OC4xMzMwNDEgNDQuOTY1NTE0IApMIDY4LjQ1MDQ4NCAzOS4wNzQwNCAKTCA2OC43Njc5MjYgMzguOTkzNTggCkwgNjkuMDg1MzY4IDQxLjQ5MDU5NiAKTCA2OS40MDI4MSAzMS4wMTEzNzQgCkwgNjkuNzIwMjUzIDQwLjY0MTMwMSAKTCA3MC4wMzc2OTUgNDAuMTkzNDQ2IApMIDcwLjM1NTEzNyA0MS4xNDI5OSAKTCA3MC42NzI1NzkgMzguNzkyNTE1IApMIDcwLjk5MDAyMiAyNC42Mzg1OTUgCkwgNzEuMzA3NDY0IDM1LjM3OTMzNiAKTCA3MS42MjQ5MDYgMzIuNDQ0Mjg4IApMIDcyLjI1OTc5MSAyMS44MjAyODIgCkwgNzIuODk0Njc1IDI4LjUyNjY2MSAKTCA3My4yMTIxMTcgMjMuMzY4ODkzIApMIDczLjUyOTU2IDIyLjY3OTkzMSAKTCA3My44NDcwMDIgMjQuODk2MzQxIApMIDc0LjE2NDQ0NCAzNC44MTk4NDYgCkwgNzQuNDgxODg2IDIzLjU0NDI0NSAKTCA3NC43OTkzMjkgMjcuNzYyNDA5IApMIDc1LjExNjc3MSAyNy40MzI1ODMgCkwgNzUuNDM0MjEzIDIwLjkyMjc5OSAKTCA3NS43NTE2NTUgMTcuNDYwNzQ1IApMIDc2LjA2OTA5OCAxOS4xODkxNDcgCkwgNzYuMzg2NTQgMTcuMDcxNDU1IApMIDc2LjcwMzk4MiAyNC4yMTU5MzYgCkwgNzcuMDIxNDI1IDI1Ljc1MTQxIApMIDc3LjMzODg2NyAxMS4xNjk0MyAKTCA3Ny42NTYzMDkgMjcuMjg0NDY4IApMIDc3Ljk3Mzc1MSAzMy4xNTQ1ODEgCkwgNzguMjkxMTk0IDI2LjUxNjg5NCAKTCA3OC42MDg2MzYgMjMuMjkzNjY1IApMIDc4LjkyNjA3OCAyMy4wODAwNzIgCkwgNzkuMjQzNTIgMjAuMDI5ODg5IApMIDc5LjU2MDk2MyAyMi4zNDg4MTcgCkwgNzkuODc4NDA1IDIwLjM5Mzc1MiAKTCA4MC4xOTU4NDcgMjYuNjczODA0IApMIDgwLjUxMzI4OSAyMS4zMDQ2NDMgCkwgODAuODMwNzMyIDIwLjk3NzAwNyAKTCA4MS4xNDgxNzQgMjkuNDMzNjk2IApMIDgxLjQ2NTYxNiAyMC4wMzQwNTIgCkwgODEuNzgzMDU4IDI3LjU4OSAKTCA4Mi4xMDA1MDEgMzEuNTYyNjk2IApMIDgyLjQxNzk0MyAzMi4wMjgwMTggCkwgODIuNzM1Mzg1IDM4LjUwNzk5OSAKTCA4My4wNTI4MjcgMzUuMzQ5Njk2IApMIDgzLjM3MDI3IDMwLjA2NDA5NSAKTCA4My42ODc3MTIgMzkuNzM0Nzc5IApMIDg0LjAwNTE1NCAzNS4yMzkzMDIgCkwgODQuMzIyNTk2IDM3LjQ0MzIzOCAKTCA4NC42NDAwMzkgMzMuNTU4Mjg4IApMIDg0Ljk1NzQ4MSAzNS41MjA0ODEgCkwgODUuMjc0OTIzIDQyLjkyMTg5MiAKTCA4NS41OTIzNjUgMzcuODU2OTExIApMIDg1LjkwOTgwOCA0Mi44NTIzMTEgCkwgODYuMjI3MjUgNTAuODI4NSAKTCA4Ni41NDQ2OTIgNTAuNTE1MDQ5IApMIDg2Ljg2MjEzNCA1OS4wMTAxMTIgCkwgODcuMTc5NTc3IDQ0LjI2NjA4NSAKTCA4Ny40OTcwMTkgNDkuNjA4MjI0IApMIDg3LjgxNDQ2MSA0OS4wMzgxNTQgCkwgODguMTMxOTA0IDU0Ljc1NTg1NyAKTCA4OC40NDkzNDYgNDQuMzIwNzMzIApMIDg4Ljc2Njc4OCA0Ni4zNTQ1MTQgCkwgODkuMDg0MjMgNDQuMzE2NDc3IApMIDg5LjQwMTY3MyA2MC4xMiAKTCA4OS43MTkxMTUgNTAuOTYyMzAxIApMIDkwLjAzNjU1NyA1My43NDU1NzYgCkwgOTAuMzUzOTk5IDU0LjU1NDIyOCAKTCA5MC42NzE0NDIgNDYuNDY0OTU0IApMIDkwLjk4ODg4NCA1MC4yNTkyOTEgCkwgOTEuMzA2MzI2IDU1LjgxNjc2NyAKTCA5MS42MjM3NjggNDguMDYxMzQgCkwgOTEuOTQxMjExIDUwLjIwOTY0NiAKTCA5Mi4yNTg2NTMgNTMuNjM2MDY5IApMIDkyLjU3NjA5NSA0MC4xMDgyOTUgCkwgOTIuODkzNTM3IDUzLjM5MDg3NSAKTCA5My4yMTA5OCA0NC44NzQxNjkgCkwgOTMuNTI4NDIyIDUwLjE2NTEyOCAKTCA5My44NDU4NjQgNDQuMDk0ODMyIApMIDk0LjE2MzMwNiAzNS41MjI1MjUgCkwgOTQuNDgwNzQ5IDM3LjIzODg4IApMIDk0Ljc5ODE5MSA0Ny4xMzgzMDIgCkwgOTUuMTE1NjMzIDMyLjY5NjY3MSAKTCA5NS40MzMwNzUgNDEuNDI4NzkzIApMIDk1Ljc1MDUxOCAzNy43OTk2NDQgCkwgOTYuMDY3OTYgNDAuMTE0NTY0IApMIDk2LjcwMjg0NCAyNi45NTcxOTkgCkwgOTcuMDIwMjg3IDM4LjIwNzQ1IApMIDk3LjMzNzcyOSAzMC43OTU1MzIgCkwgOTcuNjU1MTcxIDMwLjQ2MzQ5MiAKTCA5Ny45NzI2MTMgMzIuODI3NDUzIApMIDk4LjI5MDA1NiAyNi43ODI1MTggCkwgOTguNjA3NDk4IDMyLjU1MzAwMyAKTCA5OC45MjQ5NCAyNi40NDI1MTggCkwgOTkuMjQyMzgzIDI4LjUzMDcyNSAKTCA5OS41NTk4MjUgMTcuNjk2Njc4IApMIDk5Ljg3NzI2NyAyNC4yOTcxIApMIDEwMC4xOTQ3MDkgMjAuMjczNTI1IApMIDEwMC41MTIxNTIgMTMuOTI3NTA4IApMIDEwMC44Mjk1OTQgMjEuNjkyMjU2IApMIDEwMS4xNDcwMzYgMjQuMDI4MzYyIApMIDEwMS40NjQ0NzggMjQuNTE1NTc0IApMIDEwMS43ODE5MjEgMTYuODA2NjYxIApMIDEwMi4wOTkzNjMgMjUuMTY0MjExIApMIDEwMi40MTY4MDUgMTUuMzUyMDIyIApMIDEwMi43MzQyNDcgMTkuNTEzMzY0IApMIDEwMy4wNTE2OSAyMS41NTE4ODUgCkwgMTAzLjM2OTEzMiAyNC4zOTUxNTMgCkwgMTAzLjY4NjU3NCAyMC4xMDI1NTkgCkwgMTA0LjAwNDAxNiAyNi4xNTk5NCAKTCAxMDQuMzIxNDU5IDE5LjAwODgwMyAKTCAxMDQuNjM4OTAxIDE4Ljg0MzY1MiAKTCAxMDQuOTU2MzQzIDIwLjEzODI0NyAKTCAxMDUuMjczNzg1IDI1LjIwNzYyMiAKTCAxMDUuNTkxMjI4IDI3LjAwMjkwMiAKTCAxMDUuOTA4NjcgMjcuNjcwMDI2IApMIDEwNi4yMjYxMTIgMjguODc4NzkyIApMIDEwNi41NDM1NTQgMzAuNjM4MDQyIApMIDEwNi44NjA5OTcgMjkuMzExNDMyIApMIDEwNy40OTU4ODEgMjIuMDg0ODc3IApMIDEwNy44MTMzMjMgMzQuMzczMDM3IApMIDEwOC4xMzA3NjYgMzEuMDYyNzIyIApMIDEwOC40NDgyMDggMzMuNTE3MDI4IApMIDEwOS4wODMwOTMgMzYuNTgwMDU5IApMIDEwOS40MDA1MzUgMzUuOTQ4NTkxIApMIDEwOS43MTc5NzcgMzQuNjUxMjUxIApMIDExMC4wMzU0MTkgMzguMjIzMDc5IApMIDExMC4zNTI4NjIgMzkuNDIyMzc4IApMIDExMC42NzAzMDQgNDcuMzIwMjcyIApMIDExMC45ODc3NDYgNDcuOTY0Njg4IApMIDExMS4zMDUxODggNDQuMzQ2MDMgCkwgMTExLjYyMjYzMSA1NC4wMTk2NzkgCkwgMTExLjk0MDA3MyA1Mi4yNzI1NCAKTCAxMTIuMjU3NTE1IDQ4LjI2NDAyNSAKTCAxMTIuNTc0OTU3IDUyLjQwMDQ4NyAKTCAxMTIuODkyNCA0OC4xMjgyMzQgCkwgMTEzLjIwOTg0MiA0OC41ODg1MjYgCkwgMTEzLjUyNzI4NCA1MC42MTgzMzUgCkwgMTEzLjg0NDcyNiA0NS41MzE3MTggCkwgMTE0LjE2MjE2OSA0OS4xODA1MTggCkwgMTE0LjQ3OTYxMSA1Ni45MTMzNDIgCkwgMTE0Ljc5NzA1MyA0Ni4wNjU4NjcgCkwgMTE1LjExNDQ5NSA1NC40NDkwMzIgCkwgMTE1LjQzMTkzOCA0Ni41NTQ2MSAKTCAxMTUuNzQ5MzggNDUuNzI2NDQ5IApMIDExNi4wNjY4MjIgNTQuMjIxMzA2IApMIDExNi4zODQyNjQgNDcuMDM2MjA5IApMIDExNi43MDE3MDcgNDIuOTkwMDYxIApMIDExNy4wMTkxNDkgNTMuODA4NjA4IApMIDExNy4zMzY1OTEgNDcuNTc2MTA0IApMIDExNy42NTQwMzMgNDguMDgyMjc5IApMIDExNy45NzE0NzYgNDMuNDM5NDA0IApMIDExOC4yODg5MTggNDYuNjkzMDI4IApMIDExOC42MDYzNiA0OC4yNTMxNjcgCkwgMTE4LjkyMzgwMiA0OS4xMzY2MTcgCkwgMTE5LjI0MTI0NSA0Ny40NzE2ODkgCkwgMTE5LjU1ODY4NyA0NC44OTMyMDkgCkwgMTE5Ljg3NjEyOSA0NS42MjkwNjcgCkwgMTIwLjUxMTAxNCAzNS4yNjM4MzggCkwgMTIwLjgyODQ1NiA0OC40ODAwNzYgCkwgMTIxLjQ2MzM0MSAzMC45NTA3MzIgCkwgMTIxLjc4MDc4MyAzNC44NTE5NDcgCkwgMTIyLjA5ODIyNSAyNy41OTE4NjMgCkwgMTIyLjQxNTY2NyAzMS4yMTUyNjcgCkwgMTIyLjczMzExIDM2Ljk0NTIwNiAKTCAxMjMuMDUwNTUyIDI4LjM4Njk1OSAKTCAxMjMuMzY3OTk0IDI2LjcyNDk1OCAKTCAxMjMuNjg1NDM2IDI2LjM0NjM4MSAKTCAxMjQuMDAyODc5IDIyLjgyMDgxOSAKTCAxMjQuMzIwMzIxIDI0LjMyMzk3NCAKTCAxMjQuNjM3NzYzIDI5LjU4NTYwOSAKTCAxMjQuOTU1MjA1IDIzLjg2NDg4IApMIDEyNS4yNzI2NDggMjIuNzI1ODA4IApMIDEyNS41OTAwOSAyMi43OTgwNDkgCkwgMTI1LjkwNzUzMiAyOC43MjE0NDkgCkwgMTI2LjIyNDk3NCAxOS41NTU3NDYgCkwgMTI2LjU0MjQxNyAyMC42MjQxNTIgCkwgMTI2Ljg1OTg1OSAxMC45MTA2MTYgCkwgMTI3LjE3NzMwMSAyMi41NTAwMzQgCkwgMTI3LjQ5NDc0MyAyMC42MjkyMzEgCkwgMTI3LjgxMjE4NiAyMC4wOTA1MDMgCkwgMTI4LjEyOTYyOCAyNC41ODExMiAKTCAxMjguNDQ3MDcgMjIuNjUyNzA3IApMIDEyOC43NjQ1MTIgMTguNDQxNDE0IApMIDEyOS4wODE5NTUgMTEuNzYwNTc2IApMIDEyOS4zOTkzOTcgMjMuNzUzODE5IApMIDEyOS43MTY4MzkgMTYuMTAwMDA5IApMIDEzMC4wMzQyODEgMjUuNDUxNDEyIApMIDEzMC4zNTE3MjQgMjguNzExOTU4IApMIDEzMC42NjkxNjYgMjEuMjQ5ODgzIApMIDEzMC45ODY2MDggMjEuNDcxNzcyIApMIDEzMS4zMDQwNTEgMjQuNTUwMzEyIApMIDEzMS42MjE0OTMgMzIuNzE0MzcyIApMIDEzMS45Mzg5MzUgMzYuMjM1NjgxIApMIDEzMi4yNTYzNzcgMjAuOTU5NzggCkwgMTMyLjU3MzgyIDMwLjc3NzI3NSAKTCAxMzIuODkxMjYyIDMyLjA0MTQzIApMIDEzMy4yMDg3MDQgMjcuNDMzMTIxIApMIDEzMy41MjYxNDYgMzkuMzc5MjkyIApMIDEzMy44NDM1ODkgMzkuMzUxNjYzIApMIDEzNC4xNjEwMzEgNDEuNTQ1NDI1IApMIDEzNC40Nzg0NzMgMzkuNzAwNjU0IApMIDEzNC43OTU5MTUgNDIuOTk0NjQ2IApMIDEzNS4xMTMzNTggNDAuNTc2MDIzIApMIDEzNS40MzA4IDQyLjcyNTgyNSAKTCAxMzUuNzQ4MjQyIDQyLjQxMTc5OCAKTCAxMzYuMDY1Njg0IDM5LjUwMzQ1NiAKTCAxMzYuMzgzMTI3IDQxLjQzOTM2MyAKTCAxMzYuNzAwNTY5IDM4LjQwMDQ2OSAKTCAxMzcuMDE4MDExIDUzLjgwNzQ3MyAKTCAxMzcuNjUyODk2IDQyLjcwNTc3IApMIDEzNy45NzAzMzggNDEuMzkwNzUyIApMIDEzOC4yODc3OCA0Ny45MDAyMjggCkwgMTM4LjYwNTIyMiA0Ni4yNDQ2NDYgCkwgMTM4LjkyMjY2NSA0NS45NzM3MzUgCkwgMTM5LjI0MDEwNyA1NS4xNzM1OTMgCkwgMTM5LjU1NzU0OSA1OC44MjA2MzcgCkwgMTM5Ljg3NDk5MSA1Mi41NzIzMzggCkwgMTQwLjE5MjQzNCA1My44MDQxNzcgCkwgMTQwLjUwOTg3NiA1NC41MjQ0MTEgCkwgMTQxLjE0NDc2IDQzLjE2MDQxMSAKTCAxNDEuNDYyMjAzIDU2LjY1ODM5IApMIDE0MS43Nzk2NDUgNDguNjkwOTk3IApMIDE0Mi4wOTcwODcgNDUuMDcyNzE0IApMIDE0Mi40MTQ1MyA1Ni42MTMxMzcgCkwgMTQyLjczMTk3MiA0Ni40NDc0MTcgCkwgMTQzLjA0OTQxNCA0Ni41NDcxMDEgCkwgMTQzLjM2Njg1NiA0MS4xMTAzMzIgCkwgMTQzLjY4NDI5OSA0Ny4wMzY2MzggCkwgMTQ0LjAwMTc0MSA0MS43NTE2MjUgCkwgMTQ0LjMxOTE4MyA1NC40NTEzMDYgCkwgMTQ0LjYzNjYyNSA0My4xNjAxMDkgCkwgMTQ0Ljk1NDA2OCA0MS42NjkzMjkgCkwgMTQ1LjI3MTUxIDUxLjgzMjcyNCAKTCAxNDUuNTg4OTUyIDQyLjYzNzk3NSAKTCAxNDUuOTA2Mzk0IDQxLjI2OTA1NiAKTCAxNDYuMjIzODM3IDM0LjI0MDI2IApMIDE0Ni41NDEyNzkgMzguOTQ4NzMgCkwgMTQ2Ljg1ODcyMSAzMy4wMzg5MjYgCkwgMTQ3LjE3NjE2MyAzMi41NzkwNTYgCkwgMTQ3LjQ5MzYwNiAyOC42OTkwODEgCkwgMTQ3LjgxMTA0OCAyOS4zMjkyMDggCkwgMTQ4LjEyODQ5IDMxLjg2NTI5NyAKTCAxNDguNDQ1OTMyIDI4LjExNDk2NyAKTCAxNDguNzYzMzc1IDI5LjA1NDY2NCAKTCAxNDkuMDgwODE3IDIxLjcxMDQzIApMIDE0OS4zOTgyNTkgMjEuNzc1MzA3IApMIDE0OS43MTU3MDEgMjcuMTQ1MzY3IApMIDE1MC4wMzMxNDQgMjEuMzgxNjc0IApMIDE1MC4zNTA1ODYgMjYuODM0ODI1IApMIDE1MC42NjgwMjggMTYuNDQ4NjEyIApMIDE1MC45ODU0NyAyMy44MTY4MjMgCkwgMTUxLjMwMjkxMyAxOC43OTg4NzcgCkwgMTUxLjYyMDM1NSAyOC42MzgxMDcgCkwgMTUxLjkzNzc5NyAxOC4zOTAyNzEgCkwgMTUyLjI1NTI0IDEzLjIzNjg3NCAKTCAxNTIuNTcyNjgyIDE1LjY1OTAxNCAKTCAxNTIuODkwMTI0IDkuNzIgCkwgMTUzLjIwNzU2NiAxNy43MDc0MDggCkwgMTUzLjUyNTAwOSAxOS4yMjU5NyAKTCAxNTMuODQyNDUxIDE4LjY3MDAwOCAKTCAxNTQuMTU5ODkzIDIyLjY1NzA4OCAKTCAxNTQuNDc3MzM1IDIwLjYwMjM5NiAKTCAxNTQuNzk0Nzc4IDIxLjg2NzUwMSAKTCAxNTUuMTEyMjIgMjYuMzQxMzU0IApMIDE1NS40Mjk2NjIgMTYuMzQyMzQgCkwgMTU1Ljc0NzEwNCAyMi43Mjk4NzIgCkwgMTU2LjA2NDU0NyAyMC4xMjUyMTMgCkwgMTU2LjM4MTk4OSAyMi40MzcxOSAKTCAxNTYuNjk5NDMxIDMxLjM0NTMxNCAKTCAxNTcuMDE2ODczIDIzLjMyMzA4NCAKTCAxNTcuMzM0MzE2IDM0LjY1NjM2OCAKTCAxNTcuOTY5MiAzMi4wODEyNzUgCkwgMTU4LjI4NjY0MiAzNi40MzExODMgCkwgMTU4LjYwNDA4NSAzNy45MzUwNyAKTCAxNTguOTIxNTI3IDQxLjg0NDE3MiAKTCAxNTkuMjM4OTY5IDM0LjQ4MjAzMSAKTCAxNTkuNTU2NDExIDM1LjQ3NjQ1OSAKTCAxNTkuODczODU0IDMxLjQ5OTE5NSAKTCAxNjAuMTkxMjk2IDQ0LjEzNjQ0MiAKTCAxNjAuNTA4NzM4IDI5LjI0NzUzNiAKTCAxNjAuODI2MTggNDQuNzM1NzYxIApMIDE2MS4xNDM2MjMgMzIuNzk0Mjk1IApMIDE2MS43Nzg1MDcgNTIuNzM4ODU2IApMIDE2Mi4wOTU5NDkgNDUuMjcwNTYgCkwgMTYyLjQxMzM5MiA0NS40NjgxOTIgCkwgMTYyLjczMDgzNCA0Ny40MTQyMzUgCkwgMTYzLjA0ODI3NiA0NC40ODc0MDcgCkwgMTYzLjM2NTcxOSA0NC41NzkzMDIgCkwgMTY0LjAwMDYwMyA1NS45ODUzMDUgCkwgMTY0LjMxODA0NSA0OC43NjA5NDIgCkwgMTY0LjYzNTQ4OCA1Mi42OTg1MSAKTCAxNjQuOTUyOTMgNDguMDczMDkzIApMIDE2NS4yNzAzNzIgNDkuNjQ2Mjc0IApMIDE2NS41ODc4MTQgNTMuNTE2NTM2IApMIDE2NS45MDUyNTcgNTAuOTU3NzYxIApMIDE2Ni4yMjI2OTkgNTcuMzg3OTM5IApMIDE2Ni41NDAxNDEgNTEuNTI3MzYyIApMIDE2Ni44NTc1ODMgNDAuMjE5ODY5IApMIDE2Ny4xNzUwMjYgNDguNTkxOTc1IApMIDE2Ny44MDk5MSA0MS4yMTg3MzQgCkwgMTY4LjEyNzM1MiA1My45MzUzMyAKTCAxNjguNDQ0Nzk1IDUwLjU3NTIwMiAKTCAxNjguNzYyMjM3IDQ5Ljc2NDczMiAKTCAxNjkuMDc5Njc5IDQ1LjQxNTMxNyAKTCAxNjkuMzk3MTIxIDQ2LjYwNjI5NCAKTCAxNjkuNzE0NTY0IDQ2LjU1ODM0MyAKTCAxNzAuMDMyMDA2IDM5Ljg1ODMwMyAKTCAxNzAuMzQ5NDQ4IDQwLjYwMDA5NyAKTCAxNzAuNjY2ODkgNTAuMzcwNTQxIApMIDE3MC45ODQzMzMgMzYuOTMxMTczIApMIDE3MS4zMDE3NzUgMzUuNzIxMjgxIApMIDE3MS42MTkyMTcgMzcuODU4ODg3IApMIDE3MS45MzY2NTkgMzIuMDE3NDg3IApMIDE3Mi4yNTQxMDIgMzcuNTU0MTUxIApMIDE3Mi41NzE1NDQgMzAuNzM5OTM0IApMIDE3Mi44ODg5ODYgMzIuMTk1NDUzIApMIDE3My4yMDY0MjggMjguMzIwMzYxIApMIDE3My41MjM4NzEgMzMuNzQ2NDQ3IApMIDE3My44NDEzMTMgMjcuMTQ2MTQyIApMIDE3NC4xNTg3NTUgMjkuMDUzNzc5IApMIDE3NC40NzYxOTggMjkuNDQwNTc2IApMIDE3NC43OTM2NCAzMC41MjY0NjYgCkwgMTc1LjExMTA4MiAxOS4yMDc5MDEgCkwgMTc1LjQyODUyNCAyMy42NTM5NDIgCkwgMTc1Ljc0NTk2NyAyMy44ODI0NzEgCkwgMTc2LjA2MzQwOSAyNS43MTk0ODEgCkwgMTc2LjM4MDg1MSAyNC40OTQyMjUgCkwgMTc2LjY5ODI5MyAyMi40OTQ0MzIgCkwgMTc3LjAxNTczNiAxOS4yMjIxNzQgCkwgMTc3LjMzMzE3OCAxNy4zNTA5OTYgCkwgMTc3LjY1MDYyIDI2LjQ5MTc4MSAKTCAxNzcuOTY4MDYyIDEyLjYyMzQ3MiAKTCAxNzguNjAyOTQ3IDI0LjY1MzExMSAKTCAxNzguOTIwMzg5IDE3LjYzMTA3OCAKTCAxNzkuMjM3ODMxIDE3LjM1NDE4NiAKTCAxNzkuNTU1Mjc0IDIwLjMzNzExNiAKTCAxNzkuODcyNzE2IDE2LjU4NzQ4NSAKTCAxODAuNTA3NiAyNS41ODU3ODMgCkwgMTgwLjgyNTA0MyAxNi44NjQyNzIgCkwgMTgxLjE0MjQ4NSAyOC4zOTk4MjQgCkwgMTgxLjQ1OTkyNyAyMy40NzIzNjEgCkwgMTgxLjc3NzM2OSAyMC43Mjc4NDIgCkwgMTgyLjA5NDgxMiAyNy4zNDg4NzIgCkwgMTgyLjQxMjI1NCAyNy44NTU0ODEgCkwgMTgyLjcyOTY5NiAyMC43Nzc0OTMgCkwgMTgzLjA0NzEzOCAyOC4wMjU3NjMgCkwgMTgzLjM2NDU4MSAyOC45Mzc3MTkgCkwgMTgzLjY4MjAyMyAyNi45NzQyNjkgCkwgMTgzLjk5OTQ2NSAzNi4xMzYxNTQgCkwgMTg0LjMxNjkwNyAzNi41ODgxMDMgCkwgMTg0LjYzNDM1IDI3LjQxMjY1OCAKTCAxODQuOTUxNzkyIDM3LjMzODY5NCAKTCAxODUuMjY5MjM0IDM2LjQxODQyIApMIDE4NS41ODY2NzcgMzYuNTgxMDQ5IApMIDE4NS45MDQxMTkgNDAuNTA3MzkxIApMIDE4Ni4yMjE1NjEgNDIuMjg1ODk5IApMIDE4Ni41MzkwMDMgMzcuMjk4NzY3IApMIDE4Ny4xNzM4ODggNDkuODc1MDY3IApMIDE4Ny40OTEzMyA0MC43NjU3MTEgCkwgMTg3LjgwODc3MiAzOS42NTEzMjkgCkwgMTg4LjEyNjIxNSA0NS41NjAzNDYgCkwgMTg4LjQ0MzY1NyA1NS40MjA1NzEgCkwgMTg4Ljc2MTA5OSA1My41NTIzMzEgCkwgMTg5LjA3ODU0MSA1My40NTE0NjkgCkwgMTg5LjM5NTk4NCA1Ny4xNDk0MzggCkwgMTg5LjcxMzQyNiA1My4yNDg2OCAKTCAxOTAuMDMwODY4IDQzLjI1MzczMiAKTCAxOTAuMzQ4MzEgNDUuNjYyODg5IApMIDE5MC42NjU3NTMgNTEuOTgzNjY3IApMIDE5MC45ODMxOTUgNDMuNjY2MTg0IApMIDE5MS42MTgwNzkgNDUuMzQ5ODI3IApMIDE5MS45MzU1MjIgNTQuODA2NjQ5IApMIDE5Mi4yNTI5NjQgNDYuMDE5ODQ1IApMIDE5Mi41NzA0MDYgNDYuOTAyNzcxIApMIDE5Mi44ODc4NDggNDQuMzQ4OTYzIApMIDE5My4yMDUyOTEgNTQuMjQ0NTk0IApMIDE5My41MjI3MzMgNDguMDU3ODE1IApMIDE5My44NDAxNzUgNDguMzU0MzU5IApMIDE5NC4xNTc2MTcgNDQuMDUwMTY4IApMIDE5NC40NzUwNiA0Ni44NTQyNDIgCkwgMTk0Ljc5MjUwMiA0My42MzA0MzcgCkwgMTk1LjEwOTk0NCA0My42Mjk3NjcgCkwgMTk1LjQyNzM4NyA0MS42MzI4MzMgCkwgMTk1Ljc0NDgyOSA0NC4xMzUxNzQgCkwgMTk2LjA2MjI3MSAzOS45NzI2NzggCkwgMTk2LjM3OTcxMyA0MC4yMTMxNjUgCkwgMTk2LjY5NzE1NiAzMy45ODgzMjMgCkwgMTk3LjAxNDU5OCAzNS40MDYzNTQgCkwgMTk3LjMzMjA0IDM0LjA2NjA2MiAKTCAxOTcuNjQ5NDgyIDMxLjc3NDgwNyAKTCAxOTcuOTY2OTI1IDMwLjk1MjYzMiAKTCAxOTguNjAxODA5IDI4LjI1NjA4MyAKTCAxOTguOTE5MjUxIDI0Ljk1NTE2OCAKTCAxOTkuMjM2Njk0IDI5Ljc3OTAzOCAKTCAxOTkuNTU0MTM2IDI4LjkxNDI4NiAKTCAxOTkuODcxNTc4IDI4LjQ1MzgxMSAKTCAyMDAuMTg5MDIgMjYuNDU2ODE3IApMIDIwMC41MDY0NjMgMTYuNzg3NjU3IApMIDIwMC44MjM5MDUgMjQuMTExNzI1IApMIDIwMS4xNDEzNDcgMjYuMDIzNTY1IApMIDIwMS40NTg3ODkgMjIuODk2MDUzIApMIDIwMS43NzYyMzIgMjcuNDYzMjIgCkwgMjAyLjA5MzY3NCAyMi40ODI0ODYgCkwgMjAyLjQxMTExNiAyOC4yMjE5MTkgCkwgMjAzLjY4MDg4NSAxOS43OTA1NzEgCkwgMjAzLjk5ODMyNyAxOS43MDQwNzUgCkwgMjA0LjMxNTc3IDI4LjUwNDY3IApMIDIwNC42MzMyMTIgMjguMTQ1MjkxIApMIDIwNC45NTA2NTQgMjAuMTg1MDUzIApMIDIwNS4yNjgwOTYgMTcuNDYyMzYgCkwgMjA1LjU4NTUzOSAxOS45NDQyMzYgCkwgMjA1LjkwMjk4MSAyNC4xMjU0MDUgCkwgMjA2LjIyMDQyMyAyNi40ODQ2MDkgCkwgMjA2LjUzNzg2NiAxOS44NDY2NjcgCkwgMjA2Ljg1NTMwOCAyOC43MDIwNTggCkwgMjA3LjE3Mjc1IDI1LjgzOTgxMyAKTCAyMDcuNDkwMTkyIDI1LjQ4MjE0OCAKTCAyMDcuODA3NjM1IDIyLjk0Njk2IApMIDIwOC4xMjUwNzcgMzYuMzY1NTcyIApMIDIwOC40NDI1MTkgMjcuNzI3MTg3IApMIDIwOC43NTk5NjEgMzUuNjU1NTM4IApMIDIwOS4wNzc0MDQgMzEuODg3OTY0IApMIDIwOS4zOTQ4NDYgNDAuMTEyNDg5IApMIDIwOS43MTIyODggMzMuMzcxNDc3IApMIDIxMC4wMjk3MyAzNS4yNTg4MTMgCkwgMjEwLjM0NzE3MyAzNS4zMzIzOTggCkwgMjEwLjY2NDYxNSA0My4zMzI2NzQgCkwgMjEwLjk4MjA1NyA0NC44MzU0ODMgCkwgMjExLjI5OTQ5OSAzMy45ODUxNzIgCkwgMjExLjYxNjk0MiAzOS41MTU5NDUgCkwgMjEyLjI1MTgyNiA0Mi4yNTAwODQgCkwgMjEyLjU2OTI2OCA0Mi4zNzczNTQgCkwgMjEyLjg4NjcxMSA1Mi4zODUzNTUgCkwgMjEzLjIwNDE1MyA0OC45NTY3NzUgCkwgMjEzLjUyMTU5NSA0OC42ODY0MjQgCkwgMjEzLjgzOTAzNyA1MS4xMzg2MyAKTCAyMTQuMTU2NDggNDguNDAwOTY3IApMIDIxNC40NzM5MjIgNDguOTgwNDc1IApMIDIxNC43OTEzNjQgNTIuNjA1OTE3IApMIDIxNS4xMDg4MDYgNDguNzgxNzY2IApMIDIxNS40MjYyNDkgNTIuMjY0Njg3IApMIDIxNS43NDM2OTEgNDUuMjg1MzgzIApMIDIxNi4wNjExMzMgNDguNDY0Njk2IApMIDIxNi4zNzg1NzUgNTAuMTk0NjgxIApMIDIxNi42OTYwMTggNTIuNjc3Mzk3IApMIDIxNy4wMTM0NiA0Ny45NDk4MjMgCkwgMjE3LjMzMDkwMiA0OS41NjkzNjEgCkwgMjE3Ljk2NTc4NyAzOC42MzM5NDUgCkwgMjE4LjI4MzIyOSA0Ny41NzAxNzEgCkwgMjE4LjYwMDY3MSA0Ny4xNjk4ODYgCkwgMjE4LjkxODExNCA1Ni4xMjY3MDYgCkwgMjE5LjIzNTU1NiA0OC4xNjU3MTkgCkwgMjE5LjU1Mjk5OCA0OC43OTM2OSAKTCAyMTkuODcwNDQgNDguNTYwMjQ4IApMIDIyMC4xODc4ODMgNDcuMDkxMzU1IApMIDIyMC41MDUzMjUgMzguMDMxMTYxIApMIDIyMC44MjI3NjcgNDMuNTc5NTEzIApMIDIyMS4xNDAyMDkgNDEuNDExNzk1IApMIDIyMS40NTc2NTIgNDguNzcyNzE0IApMIDIyMi4wOTI1MzYgMzUuMjY5MTYgCkwgMjIyLjQwOTk3OCAzNy4zMjg2ODEgCkwgMjIzLjA0NDg2MyAzNC42NTY4MDYgCkwgMjIzLjM2MjMwNSA0MS42NjgzOTQgCkwgMjIzLjY3OTc0NyAzMS42Nzg0NTUgCkwgMjIzLjk5NzE5IDMzLjI3MTM2MSAKTCAyMjQuMzE0NjMyIDIyLjcyNjcwNSAKTCAyMjQuNjMyMDc0IDI1Ljk5NTMwMyAKTCAyMjQuOTQ5NTE2IDMxLjE2NzY0NiAKTCAyMjUuMjY2OTU5IDMyLjEyODcwNyAKTCAyMjUuNTg0NDAxIDIwLjY2MjI2NiAKTCAyMjUuOTAxODQzIDI4LjUwMDIyOCAKTCAyMjYuMjE5Mjg1IDI4LjE2NDMyNSAKTCAyMjYuNTM2NzI4IDIzLjI3NjgxMiAKTCAyMjYuODU0MTcgMjMuNzQ5OTk3IApMIDIyNy4xNzE2MTIgMjMuNDI1NTE1IApMIDIyNy40ODkwNTQgMTcuMTMxMDY4IApMIDIyNy44MDY0OTcgMjguMjQ0NjU2IApMIDIyOC4xMjM5MzkgMjcuNjUzNzc1IApMIDIyOC40NDEzODEgMjYuMDUwMjQ5IApMIDIyOC43NTg4MjQgMjEuNjIyNzM5IApMIDIyOS4wNzYyNjYgMjIuMzM5MTI3IApMIDIyOS4zOTM3MDggMjIuNDM3Mjg5IApMIDIzMC4wMjg1OTMgMTcuMDg0MDAzIApMIDIzMC4zNDYwMzUgMjYuNjE1MjU3IApMIDIzMC42NjM0NzcgMTYuMjE0NDc0IApMIDIzMC45ODA5MTkgMjEuMDEzMjg2IApMIDIzMS4yOTgzNjIgMjguODU4Mzk2IApMIDIzMS42MTU4MDQgMjQuNzkyMjI1IApMIDIzMS45MzMyNDYgMjkuMzQ1MDM3IApMIDIzMi4yNTA2ODggMjkuNjYwMjM0IApMIDIzMi41NjgxMzEgMjcuOTUyMjgzIApMIDIzMi44ODU1NzMgMzMuNTAxOTY3IApMIDIzMy4yMDMwMTUgMjEuNjM4MzA2IApMIDIzMy41MjA0NTcgMjguNzI0OTY0IApMIDIzMy44Mzc5IDMxLjAwMDQ3NCAKTCAyMzQuMTU1MzQyIDM2Ljc4OTczMiAKTCAyMzQuNDcyNzg0IDM3LjQ4NDUwMyAKTCAyMzUuMTA3NjY5IDM1LjAxMzcyNSAKTCAyMzUuNDI1MTExIDI5Ljc5MTQyOSAKTCAyMzUuNzQyNTUzIDM4LjMzNjAyNyAKTCAyMzYuMDU5OTk1IDM2LjkwMTgzNCAKTCAyMzYuMzc3NDM4IDM5LjI4MzE1MyAKTCAyMzYuNjk0ODggMzguOTk5OTAxIApMIDIzNy4wMTIzMjIgMzEuMzM4NTQyIApMIDIzNy45NjQ2NDkgNTIuMTI5NTcyIApMIDIzOC4yODIwOTEgNDUuNzg5Mzc1IApMIDIzOC41OTk1MzQgNDguNzE1MTczIApMIDIzOC45MTY5NzYgNDYuNTE5OTQgCkwgMjM5LjIzNDQxOCA0MC4zMTc3NDUgCkwgMjM5LjU1MTg2IDQ4LjY2MzA1MiAKTCAyMzkuODY5MzAzIDQ1LjM3NzYyNyAKTCAyNDAuMTg2NzQ1IDU1LjA0NDYwNyAKTCAyNDAuNTA0MTg3IDUxLjk0MjIwNyAKTCAyNDAuODIxNjI5IDUxLjgzNDI4MyAKTCAyNDEuMTM5MDcyIDQ2LjY5NTY1OCAKTCAyNDEuNDU2NTE0IDU5LjUzODUyNCAKTCAyNDEuNzczOTU2IDQ3LjYwMjQ4NiAKTCAyNDIuMDkxMzk4IDQ4LjAwODA4NSAKTCAyNDIuNDA4ODQxIDUyLjc4MDcyOSAKTCAyNDIuNzI2MjgzIDUyLjU1MTM2MyAKTCAyNDMuMDQzNzI1IDQwLjc4OTI0MiAKTCAyNDMuMzYxMTY3IDQ1LjA5NzMxNiAKTCAyNDMuNjc4NjEgNDQuNjEyODYzIApMIDI0My45OTYwNTIgNTIuNTQyOTM3IApMIDI0NC4zMTM0OTQgNDguNjk5Mzc2IApMIDI0NC42MzA5MzYgNTIuODU4MDM2IApMIDI0NC45NDgzNzkgNDMuNzQ5MDY3IApMIDI0NS4yNjU4MjEgNDYuODQ0ODIzIApMIDI0NS41ODMyNjMgNDQuNjE0NTk4IApMIDI0NS45MDA3MDUgNDkuMTgxOTMgCkwgMjQ2LjIxODE0OCA0NS4zMDU3NTMgCkwgMjQ2LjUzNTU5IDQ2Ljg0MDIwOSAKTCAyNDYuODUzMDMyIDM1Ljk5NzgyMiAKTCAyNDcuMTcwNDc0IDQ2LjU3MzQxMiAKTCAyNDcuNDg3OTE3IDM3LjUyMTQ3NyAKTCAyNDcuODA1MzU5IDM3LjAxNDMzMyAKTCAyNDguMTIyODAxIDMxLjYwMTI4OCAKTCAyNDguNDQwMjQzIDM5LjUzMDAyOSAKTCAyNDguNzU3Njg2IDI4LjkyMDkyNyAKTCAyNDkuMDc1MTI4IDM4LjYyMTY2IApMIDI0OS43MTAwMTMgMzAuMTUzODU3IApMIDI1MC4wMjc0NTUgMjguMjA3NDM1IApMIDI1MC4zNDQ4OTcgMjMuMTc4Njg0IApMIDI1MC42NjIzMzkgMjQuMDc2ODU4IApMIDI1MC45Nzk3ODIgMjAuODIxNzMzIApMIDI1MS4yOTcyMjQgMjguMDY2NzkgCkwgMjUxLjYxNDY2NiAyMy4yMzAwMjYgCkwgMjUxLjkzMjEwOCAzMC4wMjc5ODUgCkwgMjUyLjI0OTU1MSAxOS40NTEyNjMgCkwgMjUyLjU2Njk5MyAxOC41ODQ5NjEgCkwgMjUyLjg4NDQzNSAxOS44MzgwNjEgCkwgMjUzLjIwMTg3NyAyMC4zNzQ1NjEgCkwgMjUzLjUxOTMyIDE2LjMyOTk2OSAKTCAyNTQuMTU0MjA0IDIwLjI5NjE0NSAKTCAyNTQuNDcxNjQ2IDE2LjE4NjU1IApMIDI1NC43ODkwODkgMjMuODcwNjg0IApMIDI1NS4xMDY1MzEgMTcuNDA2MTU1IApMIDI1NS40MjM5NzMgMjQuODE2MTgyIApMIDI1NS43NDE0MTUgMTguNTc3NzI5IApMIDI1Ni4wNTg4NTggMjMuNjA2NTQ0IApMIDI1Ni4zNzYzIDIxLjgzNDgxNyAKTCAyNTYuNjkzNzQyIDIxLjI5Njk2NiAKTCAyNTcuMDExMTg0IDE2Ljc1Mzc0NSAKTCAyNTcuMzI4NjI3IDE2LjU5OTE3MSAKTCAyNTcuNjQ2MDY5IDMyLjAzMTEyNyAKTCAyNTcuOTYzNTExIDMzLjk5OTEwNiAKTCAyNTguMjgwOTUzIDI4LjcyNjU3NSAKTCAyNTguNTk4Mzk2IDI2LjEzNDg1OCAKTCAyNTguOTE1ODM4IDI4LjQxMjAzNyAKTCAyNTkuMjMzMjggMjQuOTIzNzU0IApMIDI1OS41NTA3MjIgMjcuMjgwOTU1IApMIDI1OS44NjgxNjUgMzEuODE4ODk3IApMIDI2MC4xODU2MDcgMzMuMDY0NDQgCkwgMjYwLjUwMzA0OSAzNC45ODg4MzQgCkwgMjYwLjgyMDQ5MiA0MS4zMDU4NzMgCkwgMjYxLjEzNzkzNCA0MS40MTk0ODEgCkwgMjYxLjQ1NTM3NiAzOS42Njk5NDYgCkwgMjYxLjc3MjgxOCA0Ny42ODAxOTggCkwgMjYyLjA5MDI2MSAzMi42NjE4NDkgCkwgMjYyLjQwNzcwMyAzNS44MDY0MTYgCkwgMjYyLjcyNTE0NSA0NS4yMDI1MTYgCkwgMjYzLjA0MjU4NyA0MS4yMTQxNTkgCkwgMjYzLjM2MDAzIDQ0LjU1MDMwNiAKTCAyNjMuNjc3NDcyIDQxLjI4NjYxNCAKTCAyNjMuOTk0OTE0IDUzLjY0MTM1MSAKTCAyNjQuMzEyMzU2IDQ0LjEwNjkxIApMIDI2NC42Mjk3OTkgNDcuMTkzNTczIApMIDI2NC45NDcyNDEgNDYuOTQyMTUyIApMIDI2NS4yNjQ2ODMgNDIuNDM0OTM1IApMIDI2Ni4yMTcwMSA1My45MTc1MTggCkwgMjY2LjUzNDQ1MiA0OC4yNDUwMTUgCkwgMjY2Ljg1MTg5NCA0NS40MzQ3NDQgCkwgMjY3LjE2OTMzNyA1Mi45MDM1ODYgCkwgMjY3LjQ4Njc3OSA0OS42NDgyODggCkwgMjY3LjgwNDIyMSA1MC41Njg4MDIgCkwgMjY4LjEyMTY2MyA0OC42Njk0OTEgCkwgMjY4LjQzOTEwNiA1MC4xOTYyMzQgCkwgMjY4Ljc1NjU0OCA0My4wOTgyNjcgCkwgMjY5LjA3Mzk5IDUyLjM3NTc5NiAKTCAyNjkuMzkxNDMyIDQ2LjkwMzUwNSAKTCAyNjkuNzA4ODc1IDUwLjAwMjM2NiAKTCAyNzAuMDI2MzE3IDQzLjE4NTQxMyAKTCAyNzAuMzQzNzU5IDQ4LjM3NzEyNCAKTCAyNzAuOTc4NjQ0IDM2LjU5MDA0MiAKTCAyNzEuMjk2MDg2IDQ0LjgwMDA2IApMIDI3MS42MTM1MjggMzguNzU5Njk4IApMIDI3MS45MzA5NzEgNDQuMjM3MTU5IApMIDI3Mi4yNDg0MTMgNDEuODU4NzkxIApMIDI3Mi41NjU4NTUgMzguNDMyNTA4IApMIDI3Mi44ODMyOTcgNDIuMjk2MjY1IApMIDI3My4yMDA3NCAyNS4yNjkxMzEgCkwgMjczLjUxODE4MiAzMC41ODI3NjkgCkwgMjczLjUxODE4MiAzMC41ODI3NjkgCiIgY2xpcC1wYXRoPSJ1cmwoI3A3Njg4YzMxNWRiKSIgc3R5bGU9ImZpbGw6IG5vbmU7IHN0cm9rZTogIzAwMDBmZjsgc3Ryb2tlLXdpZHRoOiAxLjU7IHN0cm9rZS1saW5lY2FwOiBzcXVhcmUiLz4KICAgPC9nPgogIDwvZz4KIDwvZz4KIDxkZWZzPgogIDxjbGlwUGF0aCBpZD0icDc2ODhjMzE1ZGIiPgogICA8cmVjdCB4PSI3LjIiIHk9IjcuMiIgd2lkdGg9IjI3OSIgaGVpZ2h0PSI1NS40NCIvPgogIDwvY2xpcFBhdGg+CiA8L2RlZnM+Cjwvc3ZnPgo=;" vertex="1" parent="ftwKBMuob_kEdf0Gnwus-20">
          <mxGeometry x="36.230000000000004" y="35.65999999999997" width="78" height="18.45" as="geometry" />
        </mxCell>
        <mxCell id="ftwKBMuob_kEdf0Gnwus-24" value="" style="shape=image;aspect=fixed;image=data:image/svg+xml,PD94bWwgdmVyc2lvbj0iMS4wIiBlbmNvZGluZz0idXRmLTgiIHN0YW5kYWxvbmU9Im5vIj8+CjwhRE9DVFlQRSBzdmcgUFVCTElDICItLy9XM0MvL0RURCBTVkcgMS4xLy9FTiIKICAiaHR0cDovL3d3dy53My5vcmcvR3JhcGhpY3MvU1ZHLzEuMS9EVEQvc3ZnMTEuZHRkIj4KPHN2ZyB4bWxuczp4bGluaz0iaHR0cDovL3d3dy53My5vcmcvMTk5OS94bGluayIgd2lkdGg9IjI5My40cHQiIGhlaWdodD0iNjkuODRwdCIgdmlld0JveD0iMCAwIDI5My40IDY5Ljg0IiB4bWxucz0iaHR0cDovL3d3dy53My5vcmcvMjAwMC9zdmciIHZlcnNpb249IjEuMSI+CiA8bWV0YWRhdGE+CiAgPHJkZjpSREYgeG1sbnM6ZGM9Imh0dHA6Ly9wdXJsLm9yZy9kYy9lbGVtZW50cy8xLjEvIiB4bWxuczpjYz0iaHR0cDovL2NyZWF0aXZlY29tbW9ucy5vcmcvbnMjIiB4bWxuczpyZGY9Imh0dHA6Ly93d3cudzMub3JnLzE5OTkvMDIvMjItcmRmLXN5bnRheC1ucyMiPgogICA8Y2M6V29yaz4KICAgIDxkYzp0eXBlIHJkZjpyZXNvdXJjZT0iaHR0cDovL3B1cmwub3JnL2RjL2RjbWl0eXBlL1N0aWxsSW1hZ2UiLz4KICAgIDxkYzpkYXRlPjIwMjUtMDctMTZUMjI6MzE6MzMuNDU2NDkzPC9kYzpkYXRlPgogICAgPGRjOmZvcm1hdD5pbWFnZS9zdmcreG1sPC9kYzpmb3JtYXQ+CiAgICA8ZGM6Y3JlYXRvcj4KICAgICA8Y2M6QWdlbnQ+CiAgICAgIDxkYzp0aXRsZT5NYXRwbG90bGliIHYzLjkuNCwgaHR0cHM6Ly9tYXRwbG90bGliLm9yZy88L2RjOnRpdGxlPgogICAgIDwvY2M6QWdlbnQ+CiAgICA8L2RjOmNyZWF0b3I+CiAgIDwvY2M6V29yaz4KICA8L3JkZjpSREY+CiA8L21ldGFkYXRhPgogPGRlZnM+CiAgPHN0eWxlIHR5cGU9InRleHQvY3NzIj4qe3N0cm9rZS1saW5lam9pbjogcm91bmQ7IHN0cm9rZS1saW5lY2FwOiBidXR0fTwvc3R5bGU+CiA8L2RlZnM+CiA8ZyBpZD0iZmlndXJlXzEiPgogIDxnIGlkPSJwYXRjaF8xIj4KICAgPHBhdGggZD0iTSAwIDY5Ljg0IApMIDI5My40IDY5Ljg0IApMIDI5My40IDAgCkwgMCAwIAp6CiIgc3R5bGU9ImZpbGw6ICNmZmZmZmYiLz4KICA8L2c+CiAgPGcgaWQ9ImF4ZXNfMSI+CiAgIDxnIGlkPSJsaW5lMmRfMSI+CiAgICA8cGF0aCBkPSJNIDE5Ljg4MTgxOCAzNi40MzU5MTMgCkwgMjAuMTk5MjYgMzUuNDg4ODIyIApMIDIwLjUxNjcwMyAzMS4xNzg1MyAKTCAyMS4xNTE1ODcgMzguMTk2MDY1IApMIDIxLjc4NjQ3MiAyMy4yMDE3MzIgCkwgMjIuMTAzOTE0IDE5LjE1NDUzMSAKTCAyMi40MjEzNTYgMjEuNzIwMTAxIApMIDIyLjczODc5OCAyMC40MzUyMDcgCkwgMjMuMDU2MjQxIDIyLjI1NDkyNSAKTCAyMy4zNzM2ODMgMjAuODAwMTA1IApMIDIzLjY5MTEyNSAxNS41MjYyMDkgCkwgMjQuMDA4NTY4IDIyLjExMTc5OSAKTCAyNC4zMjYwMSAxNy40ODk0MDMgCkwgMjQuNjQzNDUyIDIzLjI2MTk3NSAKTCAyNC45NjA4OTQgMjUuMDM3NTg2IApMIDI1LjI3ODMzNyAxNy4yOTA0OSAKTCAyNS41OTU3NzkgMTYuNzIwNDExIApMIDI1LjkxMzIyMSAyMy4zNjQ1MjUgCkwgMjYuMjMwNjYzIDIyLjI5MjgzMyAKTCAyNi41NDgxMDYgMjMuMTcwNTc1IApMIDI2Ljg2NTU0OCAxOC43MTk1MDMgCkwgMjcuMTgyOTkgMTguNTI2NjAzIApMIDI3LjUwMDQzMiAyMS41Mzg4MTkgCkwgMjcuODE3ODc1IDE3Ljk0MDk0OCAKTCAyOC4xMzUzMTcgMjQuMDAyMjE3IApMIDI4LjQ1Mjc1OSAyNS4zMTg1NjQgCkwgMjguNzcwMjAxIDI4LjIyNzU5MSAKTCAyOS4wODc2NDQgMjEuMjcwNTY2IApMIDI5LjQwNTA4NiAyMy4wODE2NTggCkwgMjkuNzIyNTI4IDIyLjg0ODY4MyAKTCAzMC4wMzk5NyAyOC44NTY4NDEgCkwgMzAuMzU3NDEzIDMxLjc2MzI0NSAKTCAzMC42NzQ4NTUgMjguMjk3NDEzIApMIDMwLjk5MjI5NyAyOC4zMDY3MjQgCkwgMzEuMzA5NzM5IDI4LjY5Njc1OSAKTCAzMS42MjcxODIgMjkuNDYwMTMzIApMIDMxLjk0NDYyNCAzNS4yNzMzMjYgCkwgMzIuMjYyMDY2IDQzLjQxODMwNyAKTCAzMi41Nzk1MDggMzQuNjA5MjYxIApMIDMyLjg5Njk1MSAzNi42Mzg1MzEgCkwgMzMuMjE0MzkzIDMzLjEyMDgwNyAKTCAzMy44NDkyNzggNDMuNjAwNTE5IApMIDM0LjE2NjcyIDQwLjM0NjEwOSAKTCAzNC40ODQxNjIgNDUuMzgxMjk4IApMIDM0LjgwMTYwNCAzMC44MDU5MzEgCkwgMzUuMTE5MDQ3IDQxLjc3MDk4IApMIDM1LjQzNjQ4OSA0Ny41NjE4NjEgCkwgMzUuNzUzOTMxIDQ2LjAwNDc4MyAKTCAzNi4wNzEzNzMgNTMuNzQ2NTEzIApMIDM2LjM4ODgxNiA1MC4xMDE4NTIgCkwgMzYuNzA2MjU4IDQyLjkzNTQ0OSAKTCAzNy4wMjM3IDQ0LjE0NzY3MiAKTCAzNy4zNDExNDIgNTAuMDM1MDcgCkwgMzcuNjU4NTg1IDUxLjI1MzEzNSAKTCAzOC4yOTM0NjkgNDQuMDQ3MTg3IApMIDM4LjYxMDkxMSA0Ni4wMDEwMzIgCkwgMzguOTI4MzU0IDU1LjYzMzM0NSAKTCAzOS4yNDU3OTYgNDguNDA1ODQgCkwgMzkuNTYzMjM4IDUxLjYwOCAKTCAzOS44ODA2OCA1Ny40MDE2OTggCkwgNDAuMTk4MTIzIDUxLjgyMzEwMyAKTCA0MC41MTU1NjUgNTUuMTg4NDYxIApMIDQxLjQ2Nzg5MiA0OC41MzEwMjMgCkwgNDEuNzg1MzM0IDQ0LjExMjkwOSAKTCA0Mi4xMDI3NzYgNDIuNTE2OTIgCkwgNDIuNDIwMjE4IDQ0Ljg5NTQ1IApMIDQyLjczNzY2MSA0Mi40ODU3NDggCkwgNDMuMDU1MTAzIDQ3LjU1MzkwOCAKTCA0My4zNzI1NDUgMzcuNDYzMzk2IApMIDQzLjY4OTk4NyAzMy43MDgzNTYgCkwgNDQuMzI0ODcyIDQ1LjgzMzA0OSAKTCA0NC42NDIzMTQgMzEuMDkwODk2IApMIDQ0Ljk1OTc1NyA0My4wMTUyMjggCkwgNDUuNTk0NjQxIDMyLjY5ODU4MSAKTCA0NS45MTIwODMgMzIuMjQ1Nzg3IApMIDQ2LjIyOTUyNiAzNi41NTY2NjMgCkwgNDYuNTQ2OTY4IDMxLjM4MTI1OSAKTCA0Ni44NjQ0MSAxOS4zMzA0NDIgCkwgNDcuMTgxODUyIDMwLjU5NzgyOSAKTCA0Ny40OTkyOTUgMjcuODc4OTU0IApMIDQ3LjgxNjczNyAxOS4yNDI1NzggCkwgNDguMTM0MTc5IDI2LjEzNTk5OCAKTCA0OC40NTE2MjEgMjYuMjEwMDgyIApMIDQ4Ljc2OTA2NCAxOC40Njk5MiAKTCA0OS4wODY1MDYgMjMuMzg2NDE2IApMIDQ5LjQwMzk0OCAyNS4zOTAxNzYgCkwgNDkuNzIxMzkgMjMuNTY2OTc0IApMIDUwLjAzODgzMyAyNy44NzYwNzcgCkwgNTAuMzU2Mjc1IDIyLjA3Nzc0MiAKTCA1MC42NzM3MTcgMjAuOTQ4MDMzIApMIDUwLjk5MTE1OSAxOC44ODMzMDMgCkwgNTEuMzA4NjAyIDIyLjk5MDAxMiAKTCA1MS42MjYwNDQgMjQuOTU5MTM2IApMIDUxLjk0MzQ4NiAzMC4yOTAxMTIgCkwgNTIuMjYwOTI4IDI2LjI4MTMzNiAKTCA1Mi41NzgzNzEgMTkuNzY5ODUgCkwgNTIuODk1ODEzIDIwLjcxODM4MiAKTCA1My4yMTMyNTUgMTkuMzAyODA0IApMIDUzLjUzMDY5NyAyMy42NTE1NzEgCkwgNTMuODQ4MTQgMTguMzMzOTk5IApMIDU0LjE2NTU4MiAxOS4zMDE0MiAKTCA1NC40ODMwMjQgMjQuMDM4MTQ4IApMIDU0LjgwMDQ2NiAyMC4yOTE0NzMgCkwgNTUuMTE3OTA5IDMxLjA2NjEwNyAKTCA1NS40MzUzNTEgMjIuNDU1NTYxIApMIDU1Ljc1Mjc5MyAyMC41NDU5IApMIDU2LjA3MDIzNiAzMS4yMDQ4NTYgCkwgNTYuMzg3Njc4IDM4LjA1MTAzNiAKTCA1Ni43MDUxMiAzMC4xNjIyOTcgCkwgNTcuMDIyNTYyIDM5LjEwNDQ1NiAKTCA1Ny4zNDAwMDUgMzAuNjA5NzAyIApMIDU3LjY1NzQ0NyAzMy4xMTI2NzYgCkwgNTcuOTc0ODg5IDMyLjUzMDY1NiAKTCA1OC4yOTIzMzEgMzMuMTYyMDE0IApMIDU4LjYwOTc3NCA0NS44MzcxMzcgCkwgNTguOTI3MjE2IDM5LjQxNjExNSAKTCA1OS4yNDQ2NTggNDMuNzY3MDEgCkwgNTkuODc5NTQzIDQzLjQ5NzMzMyAKTCA2MC4xOTY5ODUgNDYuODgyNzM3IApMIDYwLjUxNDQyNyA0MS45NDk0OTkgCkwgNjAuODMxODY5IDQ4LjA5NzIzNiAKTCA2MS4xNDkzMTIgNTAuMTk0Mzg2IApMIDYxLjQ2Njc1NCA0Mi4wNjM4NjEgCkwgNjEuNzg0MTk2IDUzLjI3MTA1OCAKTCA2Mi4xMDE2MzggNDEuNTcyOTc4IApMIDYyLjQxOTA4MSA1NS44NTQwMDkgCkwgNjIuNzM2NTIzIDQ4LjQ5NDAyOSAKTCA2My4wNTM5NjUgNTUuNjA3Nzk2IApMIDYzLjM3MTQwNyA0OC4xMzQ1MTQgCkwgNjMuNjg4ODUgNTMuMjk2MDU4IApMIDY0LjAwNjI5MiA1MC4yMjE5ODYgCkwgNjQuMzIzNzM0IDQ5LjU2OTM5NyAKTCA2NC42NDExNzYgNDMuMjc0NjYgCkwgNjQuOTU4NjE5IDUyLjQzNTM5MyAKTCA2NS4yNzYwNjEgNTAuMDE0NTcgCkwgNjUuNTkzNTAzIDQ2LjQwNzg2NyAKTCA2NS45MTA5NDYgNTEuNDgyMjQgCkwgNjYuMjI4Mzg4IDQ0LjkyMzE5NSAKTCA2Ni41NDU4MyA0OS4yMjE0MDEgCkwgNjYuODYzMjcyIDU1Ljk4NTE3MSAKTCA2Ny4xODA3MTUgNDcuOTk0Mjc1IApMIDY3LjQ5ODE1NyA0NS4yMTQ4NjIgCkwgNjcuODE1NTk5IDQ1LjkyMTUzNCAKTCA2OC4xMzMwNDEgNDQuOTY1NTE0IApMIDY4LjQ1MDQ4NCAzOS4wNzQwNCAKTCA2OC43Njc5MjYgMzguOTkzNTggCkwgNjkuMDg1MzY4IDQxLjQ5MDU5NiAKTCA2OS40MDI4MSAzMS4wMTEzNzQgCkwgNjkuNzIwMjUzIDQwLjY0MTMwMSAKTCA3MC4wMzc2OTUgNDAuMTkzNDQ2IApMIDcwLjM1NTEzNyA0MS4xNDI5OSAKTCA3MC42NzI1NzkgMzguNzkyNTE1IApMIDcwLjk5MDAyMiAyNC42Mzg1OTUgCkwgNzEuMzA3NDY0IDM1LjM3OTMzNiAKTCA3MS42MjQ5MDYgMzIuNDQ0Mjg4IApMIDcyLjI1OTc5MSAyMS44MjAyODIgCkwgNzIuODk0Njc1IDI4LjUyNjY2MSAKTCA3My4yMTIxMTcgMjMuMzY4ODkzIApMIDczLjUyOTU2IDIyLjY3OTkzMSAKTCA3My44NDcwMDIgMjQuODk2MzQxIApMIDc0LjE2NDQ0NCAzNC44MTk4NDYgCkwgNzQuNDgxODg2IDIzLjU0NDI0NSAKTCA3NC43OTkzMjkgMjcuNzYyNDA5IApMIDc1LjExNjc3MSAyNy40MzI1ODMgCkwgNzUuNDM0MjEzIDIwLjkyMjc5OSAKTCA3NS43NTE2NTUgMTcuNDYwNzQ1IApMIDc2LjA2OTA5OCAxOS4xODkxNDcgCkwgNzYuMzg2NTQgMTcuMDcxNDU1IApMIDc2LjcwMzk4MiAyNC4yMTU5MzYgCkwgNzcuMDIxNDI1IDI1Ljc1MTQxIApMIDc3LjMzODg2NyAxMS4xNjk0MyAKTCA3Ny42NTYzMDkgMjcuMjg0NDY4IApMIDc3Ljk3Mzc1MSAzMy4xNTQ1ODEgCkwgNzguMjkxMTk0IDI2LjUxNjg5NCAKTCA3OC42MDg2MzYgMjMuMjkzNjY1IApMIDc4LjkyNjA3OCAyMy4wODAwNzIgCkwgNzkuMjQzNTIgMjAuMDI5ODg5IApMIDc5LjU2MDk2MyAyMi4zNDg4MTcgCkwgNzkuODc4NDA1IDIwLjM5Mzc1MiAKTCA4MC4xOTU4NDcgMjYuNjczODA0IApMIDgwLjUxMzI4OSAyMS4zMDQ2NDMgCkwgODAuODMwNzMyIDIwLjk3NzAwNyAKTCA4MS4xNDgxNzQgMjkuNDMzNjk2IApMIDgxLjQ2NTYxNiAyMC4wMzQwNTIgCkwgODEuNzgzMDU4IDI3LjU4OSAKTCA4Mi4xMDA1MDEgMzEuNTYyNjk2IApMIDgyLjQxNzk0MyAzMi4wMjgwMTggCkwgODIuNzM1Mzg1IDM4LjUwNzk5OSAKTCA4My4wNTI4MjcgMzUuMzQ5Njk2IApMIDgzLjM3MDI3IDMwLjA2NDA5NSAKTCA4My42ODc3MTIgMzkuNzM0Nzc5IApMIDg0LjAwNTE1NCAzNS4yMzkzMDIgCkwgODQuMzIyNTk2IDM3LjQ0MzIzOCAKTCA4NC42NDAwMzkgMzMuNTU4Mjg4IApMIDg0Ljk1NzQ4MSAzNS41MjA0ODEgCkwgODUuMjc0OTIzIDQyLjkyMTg5MiAKTCA4NS41OTIzNjUgMzcuODU2OTExIApMIDg1LjkwOTgwOCA0Mi44NTIzMTEgCkwgODYuMjI3MjUgNTAuODI4NSAKTCA4Ni41NDQ2OTIgNTAuNTE1MDQ5IApMIDg2Ljg2MjEzNCA1OS4wMTAxMTIgCkwgODcuMTc5NTc3IDQ0LjI2NjA4NSAKTCA4Ny40OTcwMTkgNDkuNjA4MjI0IApMIDg3LjgxNDQ2MSA0OS4wMzgxNTQgCkwgODguMTMxOTA0IDU0Ljc1NTg1NyAKTCA4OC40NDkzNDYgNDQuMzIwNzMzIApMIDg4Ljc2Njc4OCA0Ni4zNTQ1MTQgCkwgODkuMDg0MjMgNDQuMzE2NDc3IApMIDg5LjQwMTY3MyA2MC4xMiAKTCA4OS43MTkxMTUgNTAuOTYyMzAxIApMIDkwLjAzNjU1NyA1My43NDU1NzYgCkwgOTAuMzUzOTk5IDU0LjU1NDIyOCAKTCA5MC42NzE0NDIgNDYuNDY0OTU0IApMIDkwLjk4ODg4NCA1MC4yNTkyOTEgCkwgOTEuMzA2MzI2IDU1LjgxNjc2NyAKTCA5MS42MjM3NjggNDguMDYxMzQgCkwgOTEuOTQxMjExIDUwLjIwOTY0NiAKTCA5Mi4yNTg2NTMgNTMuNjM2MDY5IApMIDkyLjU3NjA5NSA0MC4xMDgyOTUgCkwgOTIuODkzNTM3IDUzLjM5MDg3NSAKTCA5My4yMTA5OCA0NC44NzQxNjkgCkwgOTMuNTI4NDIyIDUwLjE2NTEyOCAKTCA5My44NDU4NjQgNDQuMDk0ODMyIApMIDk0LjE2MzMwNiAzNS41MjI1MjUgCkwgOTQuNDgwNzQ5IDM3LjIzODg4IApMIDk0Ljc5ODE5MSA0Ny4xMzgzMDIgCkwgOTUuMTE1NjMzIDMyLjY5NjY3MSAKTCA5NS40MzMwNzUgNDEuNDI4NzkzIApMIDk1Ljc1MDUxOCAzNy43OTk2NDQgCkwgOTYuMDY3OTYgNDAuMTE0NTY0IApMIDk2LjcwMjg0NCAyNi45NTcxOTkgCkwgOTcuMDIwMjg3IDM4LjIwNzQ1IApMIDk3LjMzNzcyOSAzMC43OTU1MzIgCkwgOTcuNjU1MTcxIDMwLjQ2MzQ5MiAKTCA5Ny45NzI2MTMgMzIuODI3NDUzIApMIDk4LjI5MDA1NiAyNi43ODI1MTggCkwgOTguNjA3NDk4IDMyLjU1MzAwMyAKTCA5OC45MjQ5NCAyNi40NDI1MTggCkwgOTkuMjQyMzgzIDI4LjUzMDcyNSAKTCA5OS41NTk4MjUgMTcuNjk2Njc4IApMIDk5Ljg3NzI2NyAyNC4yOTcxIApMIDEwMC4xOTQ3MDkgMjAuMjczNTI1IApMIDEwMC41MTIxNTIgMTMuOTI3NTA4IApMIDEwMC44Mjk1OTQgMjEuNjkyMjU2IApMIDEwMS4xNDcwMzYgMjQuMDI4MzYyIApMIDEwMS40NjQ0NzggMjQuNTE1NTc0IApMIDEwMS43ODE5MjEgMTYuODA2NjYxIApMIDEwMi4wOTkzNjMgMjUuMTY0MjExIApMIDEwMi40MTY4MDUgMTUuMzUyMDIyIApMIDEwMi43MzQyNDcgMTkuNTEzMzY0IApMIDEwMy4wNTE2OSAyMS41NTE4ODUgCkwgMTAzLjM2OTEzMiAyNC4zOTUxNTMgCkwgMTAzLjY4NjU3NCAyMC4xMDI1NTkgCkwgMTA0LjAwNDAxNiAyNi4xNTk5NCAKTCAxMDQuMzIxNDU5IDE5LjAwODgwMyAKTCAxMDQuNjM4OTAxIDE4Ljg0MzY1MiAKTCAxMDQuOTU2MzQzIDIwLjEzODI0NyAKTCAxMDUuMjczNzg1IDI1LjIwNzYyMiAKTCAxMDUuNTkxMjI4IDI3LjAwMjkwMiAKTCAxMDUuOTA4NjcgMjcuNjcwMDI2IApMIDEwNi4yMjYxMTIgMjguODc4NzkyIApMIDEwNi41NDM1NTQgMzAuNjM4MDQyIApMIDEwNi44NjA5OTcgMjkuMzExNDMyIApMIDEwNy40OTU4ODEgMjIuMDg0ODc3IApMIDEwNy44MTMzMjMgMzQuMzczMDM3IApMIDEwOC4xMzA3NjYgMzEuMDYyNzIyIApMIDEwOC40NDgyMDggMzMuNTE3MDI4IApMIDEwOS4wODMwOTMgMzYuNTgwMDU5IApMIDEwOS40MDA1MzUgMzUuOTQ4NTkxIApMIDEwOS43MTc5NzcgMzQuNjUxMjUxIApMIDExMC4wMzU0MTkgMzguMjIzMDc5IApMIDExMC4zNTI4NjIgMzkuNDIyMzc4IApMIDExMC42NzAzMDQgNDcuMzIwMjcyIApMIDExMC45ODc3NDYgNDcuOTY0Njg4IApMIDExMS4zMDUxODggNDQuMzQ2MDMgCkwgMTExLjYyMjYzMSA1NC4wMTk2NzkgCkwgMTExLjk0MDA3MyA1Mi4yNzI1NCAKTCAxMTIuMjU3NTE1IDQ4LjI2NDAyNSAKTCAxMTIuNTc0OTU3IDUyLjQwMDQ4NyAKTCAxMTIuODkyNCA0OC4xMjgyMzQgCkwgMTEzLjIwOTg0MiA0OC41ODg1MjYgCkwgMTEzLjUyNzI4NCA1MC42MTgzMzUgCkwgMTEzLjg0NDcyNiA0NS41MzE3MTggCkwgMTE0LjE2MjE2OSA0OS4xODA1MTggCkwgMTE0LjQ3OTYxMSA1Ni45MTMzNDIgCkwgMTE0Ljc5NzA1MyA0Ni4wNjU4NjcgCkwgMTE1LjExNDQ5NSA1NC40NDkwMzIgCkwgMTE1LjQzMTkzOCA0Ni41NTQ2MSAKTCAxMTUuNzQ5MzggNDUuNzI2NDQ5IApMIDExNi4wNjY4MjIgNTQuMjIxMzA2IApMIDExNi4zODQyNjQgNDcuMDM2MjA5IApMIDExNi43MDE3MDcgNDIuOTkwMDYxIApMIDExNy4wMTkxNDkgNTMuODA4NjA4IApMIDExNy4zMzY1OTEgNDcuNTc2MTA0IApMIDExNy42NTQwMzMgNDguMDgyMjc5IApMIDExNy45NzE0NzYgNDMuNDM5NDA0IApMIDExOC4yODg5MTggNDYuNjkzMDI4IApMIDExOC42MDYzNiA0OC4yNTMxNjcgCkwgMTE4LjkyMzgwMiA0OS4xMzY2MTcgCkwgMTE5LjI0MTI0NSA0Ny40NzE2ODkgCkwgMTE5LjU1ODY4NyA0NC44OTMyMDkgCkwgMTE5Ljg3NjEyOSA0NS42MjkwNjcgCkwgMTIwLjUxMTAxNCAzNS4yNjM4MzggCkwgMTIwLjgyODQ1NiA0OC40ODAwNzYgCkwgMTIxLjQ2MzM0MSAzMC45NTA3MzIgCkwgMTIxLjc4MDc4MyAzNC44NTE5NDcgCkwgMTIyLjA5ODIyNSAyNy41OTE4NjMgCkwgMTIyLjQxNTY2NyAzMS4yMTUyNjcgCkwgMTIyLjczMzExIDM2Ljk0NTIwNiAKTCAxMjMuMDUwNTUyIDI4LjM4Njk1OSAKTCAxMjMuMzY3OTk0IDI2LjcyNDk1OCAKTCAxMjMuNjg1NDM2IDI2LjM0NjM4MSAKTCAxMjQuMDAyODc5IDIyLjgyMDgxOSAKTCAxMjQuMzIwMzIxIDI0LjMyMzk3NCAKTCAxMjQuNjM3NzYzIDI5LjU4NTYwOSAKTCAxMjQuOTU1MjA1IDIzLjg2NDg4IApMIDEyNS4yNzI2NDggMjIuNzI1ODA4IApMIDEyNS41OTAwOSAyMi43OTgwNDkgCkwgMTI1LjkwNzUzMiAyOC43MjE0NDkgCkwgMTI2LjIyNDk3NCAxOS41NTU3NDYgCkwgMTI2LjU0MjQxNyAyMC42MjQxNTIgCkwgMTI2Ljg1OTg1OSAxMC45MTA2MTYgCkwgMTI3LjE3NzMwMSAyMi41NTAwMzQgCkwgMTI3LjQ5NDc0MyAyMC42MjkyMzEgCkwgMTI3LjgxMjE4NiAyMC4wOTA1MDMgCkwgMTI4LjEyOTYyOCAyNC41ODExMiAKTCAxMjguNDQ3MDcgMjIuNjUyNzA3IApMIDEyOC43NjQ1MTIgMTguNDQxNDE0IApMIDEyOS4wODE5NTUgMTEuNzYwNTc2IApMIDEyOS4zOTkzOTcgMjMuNzUzODE5IApMIDEyOS43MTY4MzkgMTYuMTAwMDA5IApMIDEzMC4wMzQyODEgMjUuNDUxNDEyIApMIDEzMC4zNTE3MjQgMjguNzExOTU4IApMIDEzMC42NjkxNjYgMjEuMjQ5ODgzIApMIDEzMC45ODY2MDggMjEuNDcxNzcyIApMIDEzMS4zMDQwNTEgMjQuNTUwMzEyIApMIDEzMS42MjE0OTMgMzIuNzE0MzcyIApMIDEzMS45Mzg5MzUgMzYuMjM1NjgxIApMIDEzMi4yNTYzNzcgMjAuOTU5NzggCkwgMTMyLjU3MzgyIDMwLjc3NzI3NSAKTCAxMzIuODkxMjYyIDMyLjA0MTQzIApMIDEzMy4yMDg3MDQgMjcuNDMzMTIxIApMIDEzMy41MjYxNDYgMzkuMzc5MjkyIApMIDEzMy44NDM1ODkgMzkuMzUxNjYzIApMIDEzNC4xNjEwMzEgNDEuNTQ1NDI1IApMIDEzNC40Nzg0NzMgMzkuNzAwNjU0IApMIDEzNC43OTU5MTUgNDIuOTk0NjQ2IApMIDEzNS4xMTMzNTggNDAuNTc2MDIzIApMIDEzNS40MzA4IDQyLjcyNTgyNSAKTCAxMzUuNzQ4MjQyIDQyLjQxMTc5OCAKTCAxMzYuMDY1Njg0IDM5LjUwMzQ1NiAKTCAxMzYuMzgzMTI3IDQxLjQzOTM2MyAKTCAxMzYuNzAwNTY5IDM4LjQwMDQ2OSAKTCAxMzcuMDE4MDExIDUzLjgwNzQ3MyAKTCAxMzcuNjUyODk2IDQyLjcwNTc3IApMIDEzNy45NzAzMzggNDEuMzkwNzUyIApMIDEzOC4yODc3OCA0Ny45MDAyMjggCkwgMTM4LjYwNTIyMiA0Ni4yNDQ2NDYgCkwgMTM4LjkyMjY2NSA0NS45NzM3MzUgCkwgMTM5LjI0MDEwNyA1NS4xNzM1OTMgCkwgMTM5LjU1NzU0OSA1OC44MjA2MzcgCkwgMTM5Ljg3NDk5MSA1Mi41NzIzMzggCkwgMTQwLjE5MjQzNCA1My44MDQxNzcgCkwgMTQwLjUwOTg3NiA1NC41MjQ0MTEgCkwgMTQxLjE0NDc2IDQzLjE2MDQxMSAKTCAxNDEuNDYyMjAzIDU2LjY1ODM5IApMIDE0MS43Nzk2NDUgNDguNjkwOTk3IApMIDE0Mi4wOTcwODcgNDUuMDcyNzE0IApMIDE0Mi40MTQ1MyA1Ni42MTMxMzcgCkwgMTQyLjczMTk3MiA0Ni40NDc0MTcgCkwgMTQzLjA0OTQxNCA0Ni41NDcxMDEgCkwgMTQzLjM2Njg1NiA0MS4xMTAzMzIgCkwgMTQzLjY4NDI5OSA0Ny4wMzY2MzggCkwgMTQ0LjAwMTc0MSA0MS43NTE2MjUgCkwgMTQ0LjMxOTE4MyA1NC40NTEzMDYgCkwgMTQ0LjYzNjYyNSA0My4xNjAxMDkgCkwgMTQ0Ljk1NDA2OCA0MS42NjkzMjkgCkwgMTQ1LjI3MTUxIDUxLjgzMjcyNCAKTCAxNDUuNTg4OTUyIDQyLjYzNzk3NSAKTCAxNDUuOTA2Mzk0IDQxLjI2OTA1NiAKTCAxNDYuMjIzODM3IDM0LjI0MDI2IApMIDE0Ni41NDEyNzkgMzguOTQ4NzMgCkwgMTQ2Ljg1ODcyMSAzMy4wMzg5MjYgCkwgMTQ3LjE3NjE2MyAzMi41NzkwNTYgCkwgMTQ3LjQ5MzYwNiAyOC42OTkwODEgCkwgMTQ3LjgxMTA0OCAyOS4zMjkyMDggCkwgMTQ4LjEyODQ5IDMxLjg2NTI5NyAKTCAxNDguNDQ1OTMyIDI4LjExNDk2NyAKTCAxNDguNzYzMzc1IDI5LjA1NDY2NCAKTCAxNDkuMDgwODE3IDIxLjcxMDQzIApMIDE0OS4zOTgyNTkgMjEuNzc1MzA3IApMIDE0OS43MTU3MDEgMjcuMTQ1MzY3IApMIDE1MC4wMzMxNDQgMjEuMzgxNjc0IApMIDE1MC4zNTA1ODYgMjYuODM0ODI1IApMIDE1MC42NjgwMjggMTYuNDQ4NjEyIApMIDE1MC45ODU0NyAyMy44MTY4MjMgCkwgMTUxLjMwMjkxMyAxOC43OTg4NzcgCkwgMTUxLjYyMDM1NSAyOC42MzgxMDcgCkwgMTUxLjkzNzc5NyAxOC4zOTAyNzEgCkwgMTUyLjI1NTI0IDEzLjIzNjg3NCAKTCAxNTIuNTcyNjgyIDE1LjY1OTAxNCAKTCAxNTIuODkwMTI0IDkuNzIgCkwgMTUzLjIwNzU2NiAxNy43MDc0MDggCkwgMTUzLjUyNTAwOSAxOS4yMjU5NyAKTCAxNTMuODQyNDUxIDE4LjY3MDAwOCAKTCAxNTQuMTU5ODkzIDIyLjY1NzA4OCAKTCAxNTQuNDc3MzM1IDIwLjYwMjM5NiAKTCAxNTQuNzk0Nzc4IDIxLjg2NzUwMSAKTCAxNTUuMTEyMjIgMjYuMzQxMzU0IApMIDE1NS40Mjk2NjIgMTYuMzQyMzQgCkwgMTU1Ljc0NzEwNCAyMi43Mjk4NzIgCkwgMTU2LjA2NDU0NyAyMC4xMjUyMTMgCkwgMTU2LjM4MTk4OSAyMi40MzcxOSAKTCAxNTYuNjk5NDMxIDMxLjM0NTMxNCAKTCAxNTcuMDE2ODczIDIzLjMyMzA4NCAKTCAxNTcuMzM0MzE2IDM0LjY1NjM2OCAKTCAxNTcuOTY5MiAzMi4wODEyNzUgCkwgMTU4LjI4NjY0MiAzNi40MzExODMgCkwgMTU4LjYwNDA4NSAzNy45MzUwNyAKTCAxNTguOTIxNTI3IDQxLjg0NDE3MiAKTCAxNTkuMjM4OTY5IDM0LjQ4MjAzMSAKTCAxNTkuNTU2NDExIDM1LjQ3NjQ1OSAKTCAxNTkuODczODU0IDMxLjQ5OTE5NSAKTCAxNjAuMTkxMjk2IDQ0LjEzNjQ0MiAKTCAxNjAuNTA4NzM4IDI5LjI0NzUzNiAKTCAxNjAuODI2MTggNDQuNzM1NzYxIApMIDE2MS4xNDM2MjMgMzIuNzk0Mjk1IApMIDE2MS43Nzg1MDcgNTIuNzM4ODU2IApMIDE2Mi4wOTU5NDkgNDUuMjcwNTYgCkwgMTYyLjQxMzM5MiA0NS40NjgxOTIgCkwgMTYyLjczMDgzNCA0Ny40MTQyMzUgCkwgMTYzLjA0ODI3NiA0NC40ODc0MDcgCkwgMTYzLjM2NTcxOSA0NC41NzkzMDIgCkwgMTY0LjAwMDYwMyA1NS45ODUzMDUgCkwgMTY0LjMxODA0NSA0OC43NjA5NDIgCkwgMTY0LjYzNTQ4OCA1Mi42OTg1MSAKTCAxNjQuOTUyOTMgNDguMDczMDkzIApMIDE2NS4yNzAzNzIgNDkuNjQ2Mjc0IApMIDE2NS41ODc4MTQgNTMuNTE2NTM2IApMIDE2NS45MDUyNTcgNTAuOTU3NzYxIApMIDE2Ni4yMjI2OTkgNTcuMzg3OTM5IApMIDE2Ni41NDAxNDEgNTEuNTI3MzYyIApMIDE2Ni44NTc1ODMgNDAuMjE5ODY5IApMIDE2Ny4xNzUwMjYgNDguNTkxOTc1IApMIDE2Ny44MDk5MSA0MS4yMTg3MzQgCkwgMTY4LjEyNzM1MiA1My45MzUzMyAKTCAxNjguNDQ0Nzk1IDUwLjU3NTIwMiAKTCAxNjguNzYyMjM3IDQ5Ljc2NDczMiAKTCAxNjkuMDc5Njc5IDQ1LjQxNTMxNyAKTCAxNjkuMzk3MTIxIDQ2LjYwNjI5NCAKTCAxNjkuNzE0NTY0IDQ2LjU1ODM0MyAKTCAxNzAuMDMyMDA2IDM5Ljg1ODMwMyAKTCAxNzAuMzQ5NDQ4IDQwLjYwMDA5NyAKTCAxNzAuNjY2ODkgNTAuMzcwNTQxIApMIDE3MC45ODQzMzMgMzYuOTMxMTczIApMIDE3MS4zMDE3NzUgMzUuNzIxMjgxIApMIDE3MS42MTkyMTcgMzcuODU4ODg3IApMIDE3MS45MzY2NTkgMzIuMDE3NDg3IApMIDE3Mi4yNTQxMDIgMzcuNTU0MTUxIApMIDE3Mi41NzE1NDQgMzAuNzM5OTM0IApMIDE3Mi44ODg5ODYgMzIuMTk1NDUzIApMIDE3My4yMDY0MjggMjguMzIwMzYxIApMIDE3My41MjM4NzEgMzMuNzQ2NDQ3IApMIDE3My44NDEzMTMgMjcuMTQ2MTQyIApMIDE3NC4xNTg3NTUgMjkuMDUzNzc5IApMIDE3NC40NzYxOTggMjkuNDQwNTc2IApMIDE3NC43OTM2NCAzMC41MjY0NjYgCkwgMTc1LjExMTA4MiAxOS4yMDc5MDEgCkwgMTc1LjQyODUyNCAyMy42NTM5NDIgCkwgMTc1Ljc0NTk2NyAyMy44ODI0NzEgCkwgMTc2LjA2MzQwOSAyNS43MTk0ODEgCkwgMTc2LjM4MDg1MSAyNC40OTQyMjUgCkwgMTc2LjY5ODI5MyAyMi40OTQ0MzIgCkwgMTc3LjAxNTczNiAxOS4yMjIxNzQgCkwgMTc3LjMzMzE3OCAxNy4zNTA5OTYgCkwgMTc3LjY1MDYyIDI2LjQ5MTc4MSAKTCAxNzcuOTY4MDYyIDEyLjYyMzQ3MiAKTCAxNzguNjAyOTQ3IDI0LjY1MzExMSAKTCAxNzguOTIwMzg5IDE3LjYzMTA3OCAKTCAxNzkuMjM3ODMxIDE3LjM1NDE4NiAKTCAxNzkuNTU1Mjc0IDIwLjMzNzExNiAKTCAxNzkuODcyNzE2IDE2LjU4NzQ4NSAKTCAxODAuNTA3NiAyNS41ODU3ODMgCkwgMTgwLjgyNTA0MyAxNi44NjQyNzIgCkwgMTgxLjE0MjQ4NSAyOC4zOTk4MjQgCkwgMTgxLjQ1OTkyNyAyMy40NzIzNjEgCkwgMTgxLjc3NzM2OSAyMC43Mjc4NDIgCkwgMTgyLjA5NDgxMiAyNy4zNDg4NzIgCkwgMTgyLjQxMjI1NCAyNy44NTU0ODEgCkwgMTgyLjcyOTY5NiAyMC43Nzc0OTMgCkwgMTgzLjA0NzEzOCAyOC4wMjU3NjMgCkwgMTgzLjM2NDU4MSAyOC45Mzc3MTkgCkwgMTgzLjY4MjAyMyAyNi45NzQyNjkgCkwgMTgzLjk5OTQ2NSAzNi4xMzYxNTQgCkwgMTg0LjMxNjkwNyAzNi41ODgxMDMgCkwgMTg0LjYzNDM1IDI3LjQxMjY1OCAKTCAxODQuOTUxNzkyIDM3LjMzODY5NCAKTCAxODUuMjY5MjM0IDM2LjQxODQyIApMIDE4NS41ODY2NzcgMzYuNTgxMDQ5IApMIDE4NS45MDQxMTkgNDAuNTA3MzkxIApMIDE4Ni4yMjE1NjEgNDIuMjg1ODk5IApMIDE4Ni41MzkwMDMgMzcuMjk4NzY3IApMIDE4Ny4xNzM4ODggNDkuODc1MDY3IApMIDE4Ny40OTEzMyA0MC43NjU3MTEgCkwgMTg3LjgwODc3MiAzOS42NTEzMjkgCkwgMTg4LjEyNjIxNSA0NS41NjAzNDYgCkwgMTg4LjQ0MzY1NyA1NS40MjA1NzEgCkwgMTg4Ljc2MTA5OSA1My41NTIzMzEgCkwgMTg5LjA3ODU0MSA1My40NTE0NjkgCkwgMTg5LjM5NTk4NCA1Ny4xNDk0MzggCkwgMTg5LjcxMzQyNiA1My4yNDg2OCAKTCAxOTAuMDMwODY4IDQzLjI1MzczMiAKTCAxOTAuMzQ4MzEgNDUuNjYyODg5IApMIDE5MC42NjU3NTMgNTEuOTgzNjY3IApMIDE5MC45ODMxOTUgNDMuNjY2MTg0IApMIDE5MS42MTgwNzkgNDUuMzQ5ODI3IApMIDE5MS45MzU1MjIgNTQuODA2NjQ5IApMIDE5Mi4yNTI5NjQgNDYuMDE5ODQ1IApMIDE5Mi41NzA0MDYgNDYuOTAyNzcxIApMIDE5Mi44ODc4NDggNDQuMzQ4OTYzIApMIDE5My4yMDUyOTEgNTQuMjQ0NTk0IApMIDE5My41MjI3MzMgNDguMDU3ODE1IApMIDE5My44NDAxNzUgNDguMzU0MzU5IApMIDE5NC4xNTc2MTcgNDQuMDUwMTY4IApMIDE5NC40NzUwNiA0Ni44NTQyNDIgCkwgMTk0Ljc5MjUwMiA0My42MzA0MzcgCkwgMTk1LjEwOTk0NCA0My42Mjk3NjcgCkwgMTk1LjQyNzM4NyA0MS42MzI4MzMgCkwgMTk1Ljc0NDgyOSA0NC4xMzUxNzQgCkwgMTk2LjA2MjI3MSAzOS45NzI2NzggCkwgMTk2LjM3OTcxMyA0MC4yMTMxNjUgCkwgMTk2LjY5NzE1NiAzMy45ODgzMjMgCkwgMTk3LjAxNDU5OCAzNS40MDYzNTQgCkwgMTk3LjMzMjA0IDM0LjA2NjA2MiAKTCAxOTcuNjQ5NDgyIDMxLjc3NDgwNyAKTCAxOTcuOTY2OTI1IDMwLjk1MjYzMiAKTCAxOTguNjAxODA5IDI4LjI1NjA4MyAKTCAxOTguOTE5MjUxIDI0Ljk1NTE2OCAKTCAxOTkuMjM2Njk0IDI5Ljc3OTAzOCAKTCAxOTkuNTU0MTM2IDI4LjkxNDI4NiAKTCAxOTkuODcxNTc4IDI4LjQ1MzgxMSAKTCAyMDAuMTg5MDIgMjYuNDU2ODE3IApMIDIwMC41MDY0NjMgMTYuNzg3NjU3IApMIDIwMC44MjM5MDUgMjQuMTExNzI1IApMIDIwMS4xNDEzNDcgMjYuMDIzNTY1IApMIDIwMS40NTg3ODkgMjIuODk2MDUzIApMIDIwMS43NzYyMzIgMjcuNDYzMjIgCkwgMjAyLjA5MzY3NCAyMi40ODI0ODYgCkwgMjAyLjQxMTExNiAyOC4yMjE5MTkgCkwgMjAzLjY4MDg4NSAxOS43OTA1NzEgCkwgMjAzLjk5ODMyNyAxOS43MDQwNzUgCkwgMjA0LjMxNTc3IDI4LjUwNDY3IApMIDIwNC42MzMyMTIgMjguMTQ1MjkxIApMIDIwNC45NTA2NTQgMjAuMTg1MDUzIApMIDIwNS4yNjgwOTYgMTcuNDYyMzYgCkwgMjA1LjU4NTUzOSAxOS45NDQyMzYgCkwgMjA1LjkwMjk4MSAyNC4xMjU0MDUgCkwgMjA2LjIyMDQyMyAyNi40ODQ2MDkgCkwgMjA2LjUzNzg2NiAxOS44NDY2NjcgCkwgMjA2Ljg1NTMwOCAyOC43MDIwNTggCkwgMjA3LjE3Mjc1IDI1LjgzOTgxMyAKTCAyMDcuNDkwMTkyIDI1LjQ4MjE0OCAKTCAyMDcuODA3NjM1IDIyLjk0Njk2IApMIDIwOC4xMjUwNzcgMzYuMzY1NTcyIApMIDIwOC40NDI1MTkgMjcuNzI3MTg3IApMIDIwOC43NTk5NjEgMzUuNjU1NTM4IApMIDIwOS4wNzc0MDQgMzEuODg3OTY0IApMIDIwOS4zOTQ4NDYgNDAuMTEyNDg5IApMIDIwOS43MTIyODggMzMuMzcxNDc3IApMIDIxMC4wMjk3MyAzNS4yNTg4MTMgCkwgMjEwLjM0NzE3MyAzNS4zMzIzOTggCkwgMjEwLjY2NDYxNSA0My4zMzI2NzQgCkwgMjEwLjk4MjA1NyA0NC44MzU0ODMgCkwgMjExLjI5OTQ5OSAzMy45ODUxNzIgCkwgMjExLjYxNjk0MiAzOS41MTU5NDUgCkwgMjEyLjI1MTgyNiA0Mi4yNTAwODQgCkwgMjEyLjU2OTI2OCA0Mi4zNzczNTQgCkwgMjEyLjg4NjcxMSA1Mi4zODUzNTUgCkwgMjEzLjIwNDE1MyA0OC45NTY3NzUgCkwgMjEzLjUyMTU5NSA0OC42ODY0MjQgCkwgMjEzLjgzOTAzNyA1MS4xMzg2MyAKTCAyMTQuMTU2NDggNDguNDAwOTY3IApMIDIxNC40NzM5MjIgNDguOTgwNDc1IApMIDIxNC43OTEzNjQgNTIuNjA1OTE3IApMIDIxNS4xMDg4MDYgNDguNzgxNzY2IApMIDIxNS40MjYyNDkgNTIuMjY0Njg3IApMIDIxNS43NDM2OTEgNDUuMjg1MzgzIApMIDIxNi4wNjExMzMgNDguNDY0Njk2IApMIDIxNi4zNzg1NzUgNTAuMTk0NjgxIApMIDIxNi42OTYwMTggNTIuNjc3Mzk3IApMIDIxNy4wMTM0NiA0Ny45NDk4MjMgCkwgMjE3LjMzMDkwMiA0OS41NjkzNjEgCkwgMjE3Ljk2NTc4NyAzOC42MzM5NDUgCkwgMjE4LjI4MzIyOSA0Ny41NzAxNzEgCkwgMjE4LjYwMDY3MSA0Ny4xNjk4ODYgCkwgMjE4LjkxODExNCA1Ni4xMjY3MDYgCkwgMjE5LjIzNTU1NiA0OC4xNjU3MTkgCkwgMjE5LjU1Mjk5OCA0OC43OTM2OSAKTCAyMTkuODcwNDQgNDguNTYwMjQ4IApMIDIyMC4xODc4ODMgNDcuMDkxMzU1IApMIDIyMC41MDUzMjUgMzguMDMxMTYxIApMIDIyMC44MjI3NjcgNDMuNTc5NTEzIApMIDIyMS4xNDAyMDkgNDEuNDExNzk1IApMIDIyMS40NTc2NTIgNDguNzcyNzE0IApMIDIyMi4wOTI1MzYgMzUuMjY5MTYgCkwgMjIyLjQwOTk3OCAzNy4zMjg2ODEgCkwgMjIzLjA0NDg2MyAzNC42NTY4MDYgCkwgMjIzLjM2MjMwNSA0MS42NjgzOTQgCkwgMjIzLjY3OTc0NyAzMS42Nzg0NTUgCkwgMjIzLjk5NzE5IDMzLjI3MTM2MSAKTCAyMjQuMzE0NjMyIDIyLjcyNjcwNSAKTCAyMjQuNjMyMDc0IDI1Ljk5NTMwMyAKTCAyMjQuOTQ5NTE2IDMxLjE2NzY0NiAKTCAyMjUuMjY2OTU5IDMyLjEyODcwNyAKTCAyMjUuNTg0NDAxIDIwLjY2MjI2NiAKTCAyMjUuOTAxODQzIDI4LjUwMDIyOCAKTCAyMjYuMjE5Mjg1IDI4LjE2NDMyNSAKTCAyMjYuNTM2NzI4IDIzLjI3NjgxMiAKTCAyMjYuODU0MTcgMjMuNzQ5OTk3IApMIDIyNy4xNzE2MTIgMjMuNDI1NTE1IApMIDIyNy40ODkwNTQgMTcuMTMxMDY4IApMIDIyNy44MDY0OTcgMjguMjQ0NjU2IApMIDIyOC4xMjM5MzkgMjcuNjUzNzc1IApMIDIyOC40NDEzODEgMjYuMDUwMjQ5IApMIDIyOC43NTg4MjQgMjEuNjIyNzM5IApMIDIyOS4wNzYyNjYgMjIuMzM5MTI3IApMIDIyOS4zOTM3MDggMjIuNDM3Mjg5IApMIDIzMC4wMjg1OTMgMTcuMDg0MDAzIApMIDIzMC4zNDYwMzUgMjYuNjE1MjU3IApMIDIzMC42NjM0NzcgMTYuMjE0NDc0IApMIDIzMC45ODA5MTkgMjEuMDEzMjg2IApMIDIzMS4yOTgzNjIgMjguODU4Mzk2IApMIDIzMS42MTU4MDQgMjQuNzkyMjI1IApMIDIzMS45MzMyNDYgMjkuMzQ1MDM3IApMIDIzMi4yNTA2ODggMjkuNjYwMjM0IApMIDIzMi41NjgxMzEgMjcuOTUyMjgzIApMIDIzMi44ODU1NzMgMzMuNTAxOTY3IApMIDIzMy4yMDMwMTUgMjEuNjM4MzA2IApMIDIzMy41MjA0NTcgMjguNzI0OTY0IApMIDIzMy44Mzc5IDMxLjAwMDQ3NCAKTCAyMzQuMTU1MzQyIDM2Ljc4OTczMiAKTCAyMzQuNDcyNzg0IDM3LjQ4NDUwMyAKTCAyMzUuMTA3NjY5IDM1LjAxMzcyNSAKTCAyMzUuNDI1MTExIDI5Ljc5MTQyOSAKTCAyMzUuNzQyNTUzIDM4LjMzNjAyNyAKTCAyMzYuMDU5OTk1IDM2LjkwMTgzNCAKTCAyMzYuMzc3NDM4IDM5LjI4MzE1MyAKTCAyMzYuNjk0ODggMzguOTk5OTAxIApMIDIzNy4wMTIzMjIgMzEuMzM4NTQyIApMIDIzNy45NjQ2NDkgNTIuMTI5NTcyIApMIDIzOC4yODIwOTEgNDUuNzg5Mzc1IApMIDIzOC41OTk1MzQgNDguNzE1MTczIApMIDIzOC45MTY5NzYgNDYuNTE5OTQgCkwgMjM5LjIzNDQxOCA0MC4zMTc3NDUgCkwgMjM5LjU1MTg2IDQ4LjY2MzA1MiAKTCAyMzkuODY5MzAzIDQ1LjM3NzYyNyAKTCAyNDAuMTg2NzQ1IDU1LjA0NDYwNyAKTCAyNDAuNTA0MTg3IDUxLjk0MjIwNyAKTCAyNDAuODIxNjI5IDUxLjgzNDI4MyAKTCAyNDEuMTM5MDcyIDQ2LjY5NTY1OCAKTCAyNDEuNDU2NTE0IDU5LjUzODUyNCAKTCAyNDEuNzczOTU2IDQ3LjYwMjQ4NiAKTCAyNDIuMDkxMzk4IDQ4LjAwODA4NSAKTCAyNDIuNDA4ODQxIDUyLjc4MDcyOSAKTCAyNDIuNzI2MjgzIDUyLjU1MTM2MyAKTCAyNDMuMDQzNzI1IDQwLjc4OTI0MiAKTCAyNDMuMzYxMTY3IDQ1LjA5NzMxNiAKTCAyNDMuNjc4NjEgNDQuNjEyODYzIApMIDI0My45OTYwNTIgNTIuNTQyOTM3IApMIDI0NC4zMTM0OTQgNDguNjk5Mzc2IApMIDI0NC42MzA5MzYgNTIuODU4MDM2IApMIDI0NC45NDgzNzkgNDMuNzQ5MDY3IApMIDI0NS4yNjU4MjEgNDYuODQ0ODIzIApMIDI0NS41ODMyNjMgNDQuNjE0NTk4IApMIDI0NS45MDA3MDUgNDkuMTgxOTMgCkwgMjQ2LjIxODE0OCA0NS4zMDU3NTMgCkwgMjQ2LjUzNTU5IDQ2Ljg0MDIwOSAKTCAyNDYuODUzMDMyIDM1Ljk5NzgyMiAKTCAyNDcuMTcwNDc0IDQ2LjU3MzQxMiAKTCAyNDcuNDg3OTE3IDM3LjUyMTQ3NyAKTCAyNDcuODA1MzU5IDM3LjAxNDMzMyAKTCAyNDguMTIyODAxIDMxLjYwMTI4OCAKTCAyNDguNDQwMjQzIDM5LjUzMDAyOSAKTCAyNDguNzU3Njg2IDI4LjkyMDkyNyAKTCAyNDkuMDc1MTI4IDM4LjYyMTY2IApMIDI0OS43MTAwMTMgMzAuMTUzODU3IApMIDI1MC4wMjc0NTUgMjguMjA3NDM1IApMIDI1MC4zNDQ4OTcgMjMuMTc4Njg0IApMIDI1MC42NjIzMzkgMjQuMDc2ODU4IApMIDI1MC45Nzk3ODIgMjAuODIxNzMzIApMIDI1MS4yOTcyMjQgMjguMDY2NzkgCkwgMjUxLjYxNDY2NiAyMy4yMzAwMjYgCkwgMjUxLjkzMjEwOCAzMC4wMjc5ODUgCkwgMjUyLjI0OTU1MSAxOS40NTEyNjMgCkwgMjUyLjU2Njk5MyAxOC41ODQ5NjEgCkwgMjUyLjg4NDQzNSAxOS44MzgwNjEgCkwgMjUzLjIwMTg3NyAyMC4zNzQ1NjEgCkwgMjUzLjUxOTMyIDE2LjMyOTk2OSAKTCAyNTQuMTU0MjA0IDIwLjI5NjE0NSAKTCAyNTQuNDcxNjQ2IDE2LjE4NjU1IApMIDI1NC43ODkwODkgMjMuODcwNjg0IApMIDI1NS4xMDY1MzEgMTcuNDA2MTU1IApMIDI1NS40MjM5NzMgMjQuODE2MTgyIApMIDI1NS43NDE0MTUgMTguNTc3NzI5IApMIDI1Ni4wNTg4NTggMjMuNjA2NTQ0IApMIDI1Ni4zNzYzIDIxLjgzNDgxNyAKTCAyNTYuNjkzNzQyIDIxLjI5Njk2NiAKTCAyNTcuMDExMTg0IDE2Ljc1Mzc0NSAKTCAyNTcuMzI4NjI3IDE2LjU5OTE3MSAKTCAyNTcuNjQ2MDY5IDMyLjAzMTEyNyAKTCAyNTcuOTYzNTExIDMzLjk5OTEwNiAKTCAyNTguMjgwOTUzIDI4LjcyNjU3NSAKTCAyNTguNTk4Mzk2IDI2LjEzNDg1OCAKTCAyNTguOTE1ODM4IDI4LjQxMjAzNyAKTCAyNTkuMjMzMjggMjQuOTIzNzU0IApMIDI1OS41NTA3MjIgMjcuMjgwOTU1IApMIDI1OS44NjgxNjUgMzEuODE4ODk3IApMIDI2MC4xODU2MDcgMzMuMDY0NDQgCkwgMjYwLjUwMzA0OSAzNC45ODg4MzQgCkwgMjYwLjgyMDQ5MiA0MS4zMDU4NzMgCkwgMjYxLjEzNzkzNCA0MS40MTk0ODEgCkwgMjYxLjQ1NTM3NiAzOS42Njk5NDYgCkwgMjYxLjc3MjgxOCA0Ny42ODAxOTggCkwgMjYyLjA5MDI2MSAzMi42NjE4NDkgCkwgMjYyLjQwNzcwMyAzNS44MDY0MTYgCkwgMjYyLjcyNTE0NSA0NS4yMDI1MTYgCkwgMjYzLjA0MjU4NyA0MS4yMTQxNTkgCkwgMjYzLjM2MDAzIDQ0LjU1MDMwNiAKTCAyNjMuNjc3NDcyIDQxLjI4NjYxNCAKTCAyNjMuOTk0OTE0IDUzLjY0MTM1MSAKTCAyNjQuMzEyMzU2IDQ0LjEwNjkxIApMIDI2NC42Mjk3OTkgNDcuMTkzNTczIApMIDI2NC45NDcyNDEgNDYuOTQyMTUyIApMIDI2NS4yNjQ2ODMgNDIuNDM0OTM1IApMIDI2Ni4yMTcwMSA1My45MTc1MTggCkwgMjY2LjUzNDQ1MiA0OC4yNDUwMTUgCkwgMjY2Ljg1MTg5NCA0NS40MzQ3NDQgCkwgMjY3LjE2OTMzNyA1Mi45MDM1ODYgCkwgMjY3LjQ4Njc3OSA0OS42NDgyODggCkwgMjY3LjgwNDIyMSA1MC41Njg4MDIgCkwgMjY4LjEyMTY2MyA0OC42Njk0OTEgCkwgMjY4LjQzOTEwNiA1MC4xOTYyMzQgCkwgMjY4Ljc1NjU0OCA0My4wOTgyNjcgCkwgMjY5LjA3Mzk5IDUyLjM3NTc5NiAKTCAyNjkuMzkxNDMyIDQ2LjkwMzUwNSAKTCAyNjkuNzA4ODc1IDUwLjAwMjM2NiAKTCAyNzAuMDI2MzE3IDQzLjE4NTQxMyAKTCAyNzAuMzQzNzU5IDQ4LjM3NzEyNCAKTCAyNzAuOTc4NjQ0IDM2LjU5MDA0MiAKTCAyNzEuMjk2MDg2IDQ0LjgwMDA2IApMIDI3MS42MTM1MjggMzguNzU5Njk4IApMIDI3MS45MzA5NzEgNDQuMjM3MTU5IApMIDI3Mi4yNDg0MTMgNDEuODU4NzkxIApMIDI3Mi41NjU4NTUgMzguNDMyNTA4IApMIDI3Mi44ODMyOTcgNDIuMjk2MjY1IApMIDI3My4yMDA3NCAyNS4yNjkxMzEgCkwgMjczLjUxODE4MiAzMC41ODI3NjkgCkwgMjczLjUxODE4MiAzMC41ODI3NjkgCiIgY2xpcC1wYXRoPSJ1cmwoI3A3Njg4YzMxNWRiKSIgc3R5bGU9ImZpbGw6IG5vbmU7IHN0cm9rZTogIzAwMDBmZjsgc3Ryb2tlLXdpZHRoOiAxLjU7IHN0cm9rZS1saW5lY2FwOiBzcXVhcmUiLz4KICAgPC9nPgogIDwvZz4KIDwvZz4KIDxkZWZzPgogIDxjbGlwUGF0aCBpZD0icDc2ODhjMzE1ZGIiPgogICA8cmVjdCB4PSI3LjIiIHk9IjcuMiIgd2lkdGg9IjI3OSIgaGVpZ2h0PSI1NS40NCIvPgogIDwvY2xpcFBhdGg+CiA8L2RlZnM+Cjwvc3ZnPgo=;" vertex="1" parent="ftwKBMuob_kEdf0Gnwus-20">
          <mxGeometry x="37.61" y="51.60000000000002" width="78" height="18.45" as="geometry" />
        </mxCell>
        <mxCell id="ftwKBMuob_kEdf0Gnwus-25" value="" style="shape=image;aspect=fixed;image=data:image/svg+xml,PD94bWwgdmVyc2lvbj0iMS4wIiBlbmNvZGluZz0idXRmLTgiIHN0YW5kYWxvbmU9Im5vIj8+CjwhRE9DVFlQRSBzdmcgUFVCTElDICItLy9XM0MvL0RURCBTVkcgMS4xLy9FTiIKICAiaHR0cDovL3d3dy53My5vcmcvR3JhcGhpY3MvU1ZHLzEuMS9EVEQvc3ZnMTEuZHRkIj4KPHN2ZyB4bWxuczp4bGluaz0iaHR0cDovL3d3dy53My5vcmcvMTk5OS94bGluayIgd2lkdGg9IjI5My40cHQiIGhlaWdodD0iNjkuODRwdCIgdmlld0JveD0iMCAwIDI5My40IDY5Ljg0IiB4bWxucz0iaHR0cDovL3d3dy53My5vcmcvMjAwMC9zdmciIHZlcnNpb249IjEuMSI+CiA8bWV0YWRhdGE+CiAgPHJkZjpSREYgeG1sbnM6ZGM9Imh0dHA6Ly9wdXJsLm9yZy9kYy9lbGVtZW50cy8xLjEvIiB4bWxuczpjYz0iaHR0cDovL2NyZWF0aXZlY29tbW9ucy5vcmcvbnMjIiB4bWxuczpyZGY9Imh0dHA6Ly93d3cudzMub3JnLzE5OTkvMDIvMjItcmRmLXN5bnRheC1ucyMiPgogICA8Y2M6V29yaz4KICAgIDxkYzp0eXBlIHJkZjpyZXNvdXJjZT0iaHR0cDovL3B1cmwub3JnL2RjL2RjbWl0eXBlL1N0aWxsSW1hZ2UiLz4KICAgIDxkYzpkYXRlPjIwMjUtMDctMTZUMjI6MzE6MzMuNDU2NDkzPC9kYzpkYXRlPgogICAgPGRjOmZvcm1hdD5pbWFnZS9zdmcreG1sPC9kYzpmb3JtYXQ+CiAgICA8ZGM6Y3JlYXRvcj4KICAgICA8Y2M6QWdlbnQ+CiAgICAgIDxkYzp0aXRsZT5NYXRwbG90bGliIHYzLjkuNCwgaHR0cHM6Ly9tYXRwbG90bGliLm9yZy88L2RjOnRpdGxlPgogICAgIDwvY2M6QWdlbnQ+CiAgICA8L2RjOmNyZWF0b3I+CiAgIDwvY2M6V29yaz4KICA8L3JkZjpSREY+CiA8L21ldGFkYXRhPgogPGRlZnM+CiAgPHN0eWxlIHR5cGU9InRleHQvY3NzIj4qe3N0cm9rZS1saW5lam9pbjogcm91bmQ7IHN0cm9rZS1saW5lY2FwOiBidXR0fTwvc3R5bGU+CiA8L2RlZnM+CiA8ZyBpZD0iZmlndXJlXzEiPgogIDxnIGlkPSJwYXRjaF8xIj4KICAgPHBhdGggZD0iTSAwIDY5Ljg0IApMIDI5My40IDY5Ljg0IApMIDI5My40IDAgCkwgMCAwIAp6CiIgc3R5bGU9ImZpbGw6ICNmZmZmZmYiLz4KICA8L2c+CiAgPGcgaWQ9ImF4ZXNfMSI+CiAgIDxnIGlkPSJsaW5lMmRfMSI+CiAgICA8cGF0aCBkPSJNIDE5Ljg4MTgxOCAzNi40MzU5MTMgCkwgMjAuMTk5MjYgMzUuNDg4ODIyIApMIDIwLjUxNjcwMyAzMS4xNzg1MyAKTCAyMS4xNTE1ODcgMzguMTk2MDY1IApMIDIxLjc4NjQ3MiAyMy4yMDE3MzIgCkwgMjIuMTAzOTE0IDE5LjE1NDUzMSAKTCAyMi40MjEzNTYgMjEuNzIwMTAxIApMIDIyLjczODc5OCAyMC40MzUyMDcgCkwgMjMuMDU2MjQxIDIyLjI1NDkyNSAKTCAyMy4zNzM2ODMgMjAuODAwMTA1IApMIDIzLjY5MTEyNSAxNS41MjYyMDkgCkwgMjQuMDA4NTY4IDIyLjExMTc5OSAKTCAyNC4zMjYwMSAxNy40ODk0MDMgCkwgMjQuNjQzNDUyIDIzLjI2MTk3NSAKTCAyNC45NjA4OTQgMjUuMDM3NTg2IApMIDI1LjI3ODMzNyAxNy4yOTA0OSAKTCAyNS41OTU3NzkgMTYuNzIwNDExIApMIDI1LjkxMzIyMSAyMy4zNjQ1MjUgCkwgMjYuMjMwNjYzIDIyLjI5MjgzMyAKTCAyNi41NDgxMDYgMjMuMTcwNTc1IApMIDI2Ljg2NTU0OCAxOC43MTk1MDMgCkwgMjcuMTgyOTkgMTguNTI2NjAzIApMIDI3LjUwMDQzMiAyMS41Mzg4MTkgCkwgMjcuODE3ODc1IDE3Ljk0MDk0OCAKTCAyOC4xMzUzMTcgMjQuMDAyMjE3IApMIDI4LjQ1Mjc1OSAyNS4zMTg1NjQgCkwgMjguNzcwMjAxIDI4LjIyNzU5MSAKTCAyOS4wODc2NDQgMjEuMjcwNTY2IApMIDI5LjQwNTA4NiAyMy4wODE2NTggCkwgMjkuNzIyNTI4IDIyLjg0ODY4MyAKTCAzMC4wMzk5NyAyOC44NTY4NDEgCkwgMzAuMzU3NDEzIDMxLjc2MzI0NSAKTCAzMC42NzQ4NTUgMjguMjk3NDEzIApMIDMwLjk5MjI5NyAyOC4zMDY3MjQgCkwgMzEuMzA5NzM5IDI4LjY5Njc1OSAKTCAzMS42MjcxODIgMjkuNDYwMTMzIApMIDMxLjk0NDYyNCAzNS4yNzMzMjYgCkwgMzIuMjYyMDY2IDQzLjQxODMwNyAKTCAzMi41Nzk1MDggMzQuNjA5MjYxIApMIDMyLjg5Njk1MSAzNi42Mzg1MzEgCkwgMzMuMjE0MzkzIDMzLjEyMDgwNyAKTCAzMy44NDkyNzggNDMuNjAwNTE5IApMIDM0LjE2NjcyIDQwLjM0NjEwOSAKTCAzNC40ODQxNjIgNDUuMzgxMjk4IApMIDM0LjgwMTYwNCAzMC44MDU5MzEgCkwgMzUuMTE5MDQ3IDQxLjc3MDk4IApMIDM1LjQzNjQ4OSA0Ny41NjE4NjEgCkwgMzUuNzUzOTMxIDQ2LjAwNDc4MyAKTCAzNi4wNzEzNzMgNTMuNzQ2NTEzIApMIDM2LjM4ODgxNiA1MC4xMDE4NTIgCkwgMzYuNzA2MjU4IDQyLjkzNTQ0OSAKTCAzNy4wMjM3IDQ0LjE0NzY3MiAKTCAzNy4zNDExNDIgNTAuMDM1MDcgCkwgMzcuNjU4NTg1IDUxLjI1MzEzNSAKTCAzOC4yOTM0NjkgNDQuMDQ3MTg3IApMIDM4LjYxMDkxMSA0Ni4wMDEwMzIgCkwgMzguOTI4MzU0IDU1LjYzMzM0NSAKTCAzOS4yNDU3OTYgNDguNDA1ODQgCkwgMzkuNTYzMjM4IDUxLjYwOCAKTCAzOS44ODA2OCA1Ny40MDE2OTggCkwgNDAuMTk4MTIzIDUxLjgyMzEwMyAKTCA0MC41MTU1NjUgNTUuMTg4NDYxIApMIDQxLjQ2Nzg5MiA0OC41MzEwMjMgCkwgNDEuNzg1MzM0IDQ0LjExMjkwOSAKTCA0Mi4xMDI3NzYgNDIuNTE2OTIgCkwgNDIuNDIwMjE4IDQ0Ljg5NTQ1IApMIDQyLjczNzY2MSA0Mi40ODU3NDggCkwgNDMuMDU1MTAzIDQ3LjU1MzkwOCAKTCA0My4zNzI1NDUgMzcuNDYzMzk2IApMIDQzLjY4OTk4NyAzMy43MDgzNTYgCkwgNDQuMzI0ODcyIDQ1LjgzMzA0OSAKTCA0NC42NDIzMTQgMzEuMDkwODk2IApMIDQ0Ljk1OTc1NyA0My4wMTUyMjggCkwgNDUuNTk0NjQxIDMyLjY5ODU4MSAKTCA0NS45MTIwODMgMzIuMjQ1Nzg3IApMIDQ2LjIyOTUyNiAzNi41NTY2NjMgCkwgNDYuNTQ2OTY4IDMxLjM4MTI1OSAKTCA0Ni44NjQ0MSAxOS4zMzA0NDIgCkwgNDcuMTgxODUyIDMwLjU5NzgyOSAKTCA0Ny40OTkyOTUgMjcuODc4OTU0IApMIDQ3LjgxNjczNyAxOS4yNDI1NzggCkwgNDguMTM0MTc5IDI2LjEzNTk5OCAKTCA0OC40NTE2MjEgMjYuMjEwMDgyIApMIDQ4Ljc2OTA2NCAxOC40Njk5MiAKTCA0OS4wODY1MDYgMjMuMzg2NDE2IApMIDQ5LjQwMzk0OCAyNS4zOTAxNzYgCkwgNDkuNzIxMzkgMjMuNTY2OTc0IApMIDUwLjAzODgzMyAyNy44NzYwNzcgCkwgNTAuMzU2Mjc1IDIyLjA3Nzc0MiAKTCA1MC42NzM3MTcgMjAuOTQ4MDMzIApMIDUwLjk5MTE1OSAxOC44ODMzMDMgCkwgNTEuMzA4NjAyIDIyLjk5MDAxMiAKTCA1MS42MjYwNDQgMjQuOTU5MTM2IApMIDUxLjk0MzQ4NiAzMC4yOTAxMTIgCkwgNTIuMjYwOTI4IDI2LjI4MTMzNiAKTCA1Mi41NzgzNzEgMTkuNzY5ODUgCkwgNTIuODk1ODEzIDIwLjcxODM4MiAKTCA1My4yMTMyNTUgMTkuMzAyODA0IApMIDUzLjUzMDY5NyAyMy42NTE1NzEgCkwgNTMuODQ4MTQgMTguMzMzOTk5IApMIDU0LjE2NTU4MiAxOS4zMDE0MiAKTCA1NC40ODMwMjQgMjQuMDM4MTQ4IApMIDU0LjgwMDQ2NiAyMC4yOTE0NzMgCkwgNTUuMTE3OTA5IDMxLjA2NjEwNyAKTCA1NS40MzUzNTEgMjIuNDU1NTYxIApMIDU1Ljc1Mjc5MyAyMC41NDU5IApMIDU2LjA3MDIzNiAzMS4yMDQ4NTYgCkwgNTYuMzg3Njc4IDM4LjA1MTAzNiAKTCA1Ni43MDUxMiAzMC4xNjIyOTcgCkwgNTcuMDIyNTYyIDM5LjEwNDQ1NiAKTCA1Ny4zNDAwMDUgMzAuNjA5NzAyIApMIDU3LjY1NzQ0NyAzMy4xMTI2NzYgCkwgNTcuOTc0ODg5IDMyLjUzMDY1NiAKTCA1OC4yOTIzMzEgMzMuMTYyMDE0IApMIDU4LjYwOTc3NCA0NS44MzcxMzcgCkwgNTguOTI3MjE2IDM5LjQxNjExNSAKTCA1OS4yNDQ2NTggNDMuNzY3MDEgCkwgNTkuODc5NTQzIDQzLjQ5NzMzMyAKTCA2MC4xOTY5ODUgNDYuODgyNzM3IApMIDYwLjUxNDQyNyA0MS45NDk0OTkgCkwgNjAuODMxODY5IDQ4LjA5NzIzNiAKTCA2MS4xNDkzMTIgNTAuMTk0Mzg2IApMIDYxLjQ2Njc1NCA0Mi4wNjM4NjEgCkwgNjEuNzg0MTk2IDUzLjI3MTA1OCAKTCA2Mi4xMDE2MzggNDEuNTcyOTc4IApMIDYyLjQxOTA4MSA1NS44NTQwMDkgCkwgNjIuNzM2NTIzIDQ4LjQ5NDAyOSAKTCA2My4wNTM5NjUgNTUuNjA3Nzk2IApMIDYzLjM3MTQwNyA0OC4xMzQ1MTQgCkwgNjMuNjg4ODUgNTMuMjk2MDU4IApMIDY0LjAwNjI5MiA1MC4yMjE5ODYgCkwgNjQuMzIzNzM0IDQ5LjU2OTM5NyAKTCA2NC42NDExNzYgNDMuMjc0NjYgCkwgNjQuOTU4NjE5IDUyLjQzNTM5MyAKTCA2NS4yNzYwNjEgNTAuMDE0NTcgCkwgNjUuNTkzNTAzIDQ2LjQwNzg2NyAKTCA2NS45MTA5NDYgNTEuNDgyMjQgCkwgNjYuMjI4Mzg4IDQ0LjkyMzE5NSAKTCA2Ni41NDU4MyA0OS4yMjE0MDEgCkwgNjYuODYzMjcyIDU1Ljk4NTE3MSAKTCA2Ny4xODA3MTUgNDcuOTk0Mjc1IApMIDY3LjQ5ODE1NyA0NS4yMTQ4NjIgCkwgNjcuODE1NTk5IDQ1LjkyMTUzNCAKTCA2OC4xMzMwNDEgNDQuOTY1NTE0IApMIDY4LjQ1MDQ4NCAzOS4wNzQwNCAKTCA2OC43Njc5MjYgMzguOTkzNTggCkwgNjkuMDg1MzY4IDQxLjQ5MDU5NiAKTCA2OS40MDI4MSAzMS4wMTEzNzQgCkwgNjkuNzIwMjUzIDQwLjY0MTMwMSAKTCA3MC4wMzc2OTUgNDAuMTkzNDQ2IApMIDcwLjM1NTEzNyA0MS4xNDI5OSAKTCA3MC42NzI1NzkgMzguNzkyNTE1IApMIDcwLjk5MDAyMiAyNC42Mzg1OTUgCkwgNzEuMzA3NDY0IDM1LjM3OTMzNiAKTCA3MS42MjQ5MDYgMzIuNDQ0Mjg4IApMIDcyLjI1OTc5MSAyMS44MjAyODIgCkwgNzIuODk0Njc1IDI4LjUyNjY2MSAKTCA3My4yMTIxMTcgMjMuMzY4ODkzIApMIDczLjUyOTU2IDIyLjY3OTkzMSAKTCA3My44NDcwMDIgMjQuODk2MzQxIApMIDc0LjE2NDQ0NCAzNC44MTk4NDYgCkwgNzQuNDgxODg2IDIzLjU0NDI0NSAKTCA3NC43OTkzMjkgMjcuNzYyNDA5IApMIDc1LjExNjc3MSAyNy40MzI1ODMgCkwgNzUuNDM0MjEzIDIwLjkyMjc5OSAKTCA3NS43NTE2NTUgMTcuNDYwNzQ1IApMIDc2LjA2OTA5OCAxOS4xODkxNDcgCkwgNzYuMzg2NTQgMTcuMDcxNDU1IApMIDc2LjcwMzk4MiAyNC4yMTU5MzYgCkwgNzcuMDIxNDI1IDI1Ljc1MTQxIApMIDc3LjMzODg2NyAxMS4xNjk0MyAKTCA3Ny42NTYzMDkgMjcuMjg0NDY4IApMIDc3Ljk3Mzc1MSAzMy4xNTQ1ODEgCkwgNzguMjkxMTk0IDI2LjUxNjg5NCAKTCA3OC42MDg2MzYgMjMuMjkzNjY1IApMIDc4LjkyNjA3OCAyMy4wODAwNzIgCkwgNzkuMjQzNTIgMjAuMDI5ODg5IApMIDc5LjU2MDk2MyAyMi4zNDg4MTcgCkwgNzkuODc4NDA1IDIwLjM5Mzc1MiAKTCA4MC4xOTU4NDcgMjYuNjczODA0IApMIDgwLjUxMzI4OSAyMS4zMDQ2NDMgCkwgODAuODMwNzMyIDIwLjk3NzAwNyAKTCA4MS4xNDgxNzQgMjkuNDMzNjk2IApMIDgxLjQ2NTYxNiAyMC4wMzQwNTIgCkwgODEuNzgzMDU4IDI3LjU4OSAKTCA4Mi4xMDA1MDEgMzEuNTYyNjk2IApMIDgyLjQxNzk0MyAzMi4wMjgwMTggCkwgODIuNzM1Mzg1IDM4LjUwNzk5OSAKTCA4My4wNTI4MjcgMzUuMzQ5Njk2IApMIDgzLjM3MDI3IDMwLjA2NDA5NSAKTCA4My42ODc3MTIgMzkuNzM0Nzc5IApMIDg0LjAwNTE1NCAzNS4yMzkzMDIgCkwgODQuMzIyNTk2IDM3LjQ0MzIzOCAKTCA4NC42NDAwMzkgMzMuNTU4Mjg4IApMIDg0Ljk1NzQ4MSAzNS41MjA0ODEgCkwgODUuMjc0OTIzIDQyLjkyMTg5MiAKTCA4NS41OTIzNjUgMzcuODU2OTExIApMIDg1LjkwOTgwOCA0Mi44NTIzMTEgCkwgODYuMjI3MjUgNTAuODI4NSAKTCA4Ni41NDQ2OTIgNTAuNTE1MDQ5IApMIDg2Ljg2MjEzNCA1OS4wMTAxMTIgCkwgODcuMTc5NTc3IDQ0LjI2NjA4NSAKTCA4Ny40OTcwMTkgNDkuNjA4MjI0IApMIDg3LjgxNDQ2MSA0OS4wMzgxNTQgCkwgODguMTMxOTA0IDU0Ljc1NTg1NyAKTCA4OC40NDkzNDYgNDQuMzIwNzMzIApMIDg4Ljc2Njc4OCA0Ni4zNTQ1MTQgCkwgODkuMDg0MjMgNDQuMzE2NDc3IApMIDg5LjQwMTY3MyA2MC4xMiAKTCA4OS43MTkxMTUgNTAuOTYyMzAxIApMIDkwLjAzNjU1NyA1My43NDU1NzYgCkwgOTAuMzUzOTk5IDU0LjU1NDIyOCAKTCA5MC42NzE0NDIgNDYuNDY0OTU0IApMIDkwLjk4ODg4NCA1MC4yNTkyOTEgCkwgOTEuMzA2MzI2IDU1LjgxNjc2NyAKTCA5MS42MjM3NjggNDguMDYxMzQgCkwgOTEuOTQxMjExIDUwLjIwOTY0NiAKTCA5Mi4yNTg2NTMgNTMuNjM2MDY5IApMIDkyLjU3NjA5NSA0MC4xMDgyOTUgCkwgOTIuODkzNTM3IDUzLjM5MDg3NSAKTCA5My4yMTA5OCA0NC44NzQxNjkgCkwgOTMuNTI4NDIyIDUwLjE2NTEyOCAKTCA5My44NDU4NjQgNDQuMDk0ODMyIApMIDk0LjE2MzMwNiAzNS41MjI1MjUgCkwgOTQuNDgwNzQ5IDM3LjIzODg4IApMIDk0Ljc5ODE5MSA0Ny4xMzgzMDIgCkwgOTUuMTE1NjMzIDMyLjY5NjY3MSAKTCA5NS40MzMwNzUgNDEuNDI4NzkzIApMIDk1Ljc1MDUxOCAzNy43OTk2NDQgCkwgOTYuMDY3OTYgNDAuMTE0NTY0IApMIDk2LjcwMjg0NCAyNi45NTcxOTkgCkwgOTcuMDIwMjg3IDM4LjIwNzQ1IApMIDk3LjMzNzcyOSAzMC43OTU1MzIgCkwgOTcuNjU1MTcxIDMwLjQ2MzQ5MiAKTCA5Ny45NzI2MTMgMzIuODI3NDUzIApMIDk4LjI5MDA1NiAyNi43ODI1MTggCkwgOTguNjA3NDk4IDMyLjU1MzAwMyAKTCA5OC45MjQ5NCAyNi40NDI1MTggCkwgOTkuMjQyMzgzIDI4LjUzMDcyNSAKTCA5OS41NTk4MjUgMTcuNjk2Njc4IApMIDk5Ljg3NzI2NyAyNC4yOTcxIApMIDEwMC4xOTQ3MDkgMjAuMjczNTI1IApMIDEwMC41MTIxNTIgMTMuOTI3NTA4IApMIDEwMC44Mjk1OTQgMjEuNjkyMjU2IApMIDEwMS4xNDcwMzYgMjQuMDI4MzYyIApMIDEwMS40NjQ0NzggMjQuNTE1NTc0IApMIDEwMS43ODE5MjEgMTYuODA2NjYxIApMIDEwMi4wOTkzNjMgMjUuMTY0MjExIApMIDEwMi40MTY4MDUgMTUuMzUyMDIyIApMIDEwMi43MzQyNDcgMTkuNTEzMzY0IApMIDEwMy4wNTE2OSAyMS41NTE4ODUgCkwgMTAzLjM2OTEzMiAyNC4zOTUxNTMgCkwgMTAzLjY4NjU3NCAyMC4xMDI1NTkgCkwgMTA0LjAwNDAxNiAyNi4xNTk5NCAKTCAxMDQuMzIxNDU5IDE5LjAwODgwMyAKTCAxMDQuNjM4OTAxIDE4Ljg0MzY1MiAKTCAxMDQuOTU2MzQzIDIwLjEzODI0NyAKTCAxMDUuMjczNzg1IDI1LjIwNzYyMiAKTCAxMDUuNTkxMjI4IDI3LjAwMjkwMiAKTCAxMDUuOTA4NjcgMjcuNjcwMDI2IApMIDEwNi4yMjYxMTIgMjguODc4NzkyIApMIDEwNi41NDM1NTQgMzAuNjM4MDQyIApMIDEwNi44NjA5OTcgMjkuMzExNDMyIApMIDEwNy40OTU4ODEgMjIuMDg0ODc3IApMIDEwNy44MTMzMjMgMzQuMzczMDM3IApMIDEwOC4xMzA3NjYgMzEuMDYyNzIyIApMIDEwOC40NDgyMDggMzMuNTE3MDI4IApMIDEwOS4wODMwOTMgMzYuNTgwMDU5IApMIDEwOS40MDA1MzUgMzUuOTQ4NTkxIApMIDEwOS43MTc5NzcgMzQuNjUxMjUxIApMIDExMC4wMzU0MTkgMzguMjIzMDc5IApMIDExMC4zNTI4NjIgMzkuNDIyMzc4IApMIDExMC42NzAzMDQgNDcuMzIwMjcyIApMIDExMC45ODc3NDYgNDcuOTY0Njg4IApMIDExMS4zMDUxODggNDQuMzQ2MDMgCkwgMTExLjYyMjYzMSA1NC4wMTk2NzkgCkwgMTExLjk0MDA3MyA1Mi4yNzI1NCAKTCAxMTIuMjU3NTE1IDQ4LjI2NDAyNSAKTCAxMTIuNTc0OTU3IDUyLjQwMDQ4NyAKTCAxMTIuODkyNCA0OC4xMjgyMzQgCkwgMTEzLjIwOTg0MiA0OC41ODg1MjYgCkwgMTEzLjUyNzI4NCA1MC42MTgzMzUgCkwgMTEzLjg0NDcyNiA0NS41MzE3MTggCkwgMTE0LjE2MjE2OSA0OS4xODA1MTggCkwgMTE0LjQ3OTYxMSA1Ni45MTMzNDIgCkwgMTE0Ljc5NzA1MyA0Ni4wNjU4NjcgCkwgMTE1LjExNDQ5NSA1NC40NDkwMzIgCkwgMTE1LjQzMTkzOCA0Ni41NTQ2MSAKTCAxMTUuNzQ5MzggNDUuNzI2NDQ5IApMIDExNi4wNjY4MjIgNTQuMjIxMzA2IApMIDExNi4zODQyNjQgNDcuMDM2MjA5IApMIDExNi43MDE3MDcgNDIuOTkwMDYxIApMIDExNy4wMTkxNDkgNTMuODA4NjA4IApMIDExNy4zMzY1OTEgNDcuNTc2MTA0IApMIDExNy42NTQwMzMgNDguMDgyMjc5IApMIDExNy45NzE0NzYgNDMuNDM5NDA0IApMIDExOC4yODg5MTggNDYuNjkzMDI4IApMIDExOC42MDYzNiA0OC4yNTMxNjcgCkwgMTE4LjkyMzgwMiA0OS4xMzY2MTcgCkwgMTE5LjI0MTI0NSA0Ny40NzE2ODkgCkwgMTE5LjU1ODY4NyA0NC44OTMyMDkgCkwgMTE5Ljg3NjEyOSA0NS42MjkwNjcgCkwgMTIwLjUxMTAxNCAzNS4yNjM4MzggCkwgMTIwLjgyODQ1NiA0OC40ODAwNzYgCkwgMTIxLjQ2MzM0MSAzMC45NTA3MzIgCkwgMTIxLjc4MDc4MyAzNC44NTE5NDcgCkwgMTIyLjA5ODIyNSAyNy41OTE4NjMgCkwgMTIyLjQxNTY2NyAzMS4yMTUyNjcgCkwgMTIyLjczMzExIDM2Ljk0NTIwNiAKTCAxMjMuMDUwNTUyIDI4LjM4Njk1OSAKTCAxMjMuMzY3OTk0IDI2LjcyNDk1OCAKTCAxMjMuNjg1NDM2IDI2LjM0NjM4MSAKTCAxMjQuMDAyODc5IDIyLjgyMDgxOSAKTCAxMjQuMzIwMzIxIDI0LjMyMzk3NCAKTCAxMjQuNjM3NzYzIDI5LjU4NTYwOSAKTCAxMjQuOTU1MjA1IDIzLjg2NDg4IApMIDEyNS4yNzI2NDggMjIuNzI1ODA4IApMIDEyNS41OTAwOSAyMi43OTgwNDkgCkwgMTI1LjkwNzUzMiAyOC43MjE0NDkgCkwgMTI2LjIyNDk3NCAxOS41NTU3NDYgCkwgMTI2LjU0MjQxNyAyMC42MjQxNTIgCkwgMTI2Ljg1OTg1OSAxMC45MTA2MTYgCkwgMTI3LjE3NzMwMSAyMi41NTAwMzQgCkwgMTI3LjQ5NDc0MyAyMC42MjkyMzEgCkwgMTI3LjgxMjE4NiAyMC4wOTA1MDMgCkwgMTI4LjEyOTYyOCAyNC41ODExMiAKTCAxMjguNDQ3MDcgMjIuNjUyNzA3IApMIDEyOC43NjQ1MTIgMTguNDQxNDE0IApMIDEyOS4wODE5NTUgMTEuNzYwNTc2IApMIDEyOS4zOTkzOTcgMjMuNzUzODE5IApMIDEyOS43MTY4MzkgMTYuMTAwMDA5IApMIDEzMC4wMzQyODEgMjUuNDUxNDEyIApMIDEzMC4zNTE3MjQgMjguNzExOTU4IApMIDEzMC42NjkxNjYgMjEuMjQ5ODgzIApMIDEzMC45ODY2MDggMjEuNDcxNzcyIApMIDEzMS4zMDQwNTEgMjQuNTUwMzEyIApMIDEzMS42MjE0OTMgMzIuNzE0MzcyIApMIDEzMS45Mzg5MzUgMzYuMjM1NjgxIApMIDEzMi4yNTYzNzcgMjAuOTU5NzggCkwgMTMyLjU3MzgyIDMwLjc3NzI3NSAKTCAxMzIuODkxMjYyIDMyLjA0MTQzIApMIDEzMy4yMDg3MDQgMjcuNDMzMTIxIApMIDEzMy41MjYxNDYgMzkuMzc5MjkyIApMIDEzMy44NDM1ODkgMzkuMzUxNjYzIApMIDEzNC4xNjEwMzEgNDEuNTQ1NDI1IApMIDEzNC40Nzg0NzMgMzkuNzAwNjU0IApMIDEzNC43OTU5MTUgNDIuOTk0NjQ2IApMIDEzNS4xMTMzNTggNDAuNTc2MDIzIApMIDEzNS40MzA4IDQyLjcyNTgyNSAKTCAxMzUuNzQ4MjQyIDQyLjQxMTc5OCAKTCAxMzYuMDY1Njg0IDM5LjUwMzQ1NiAKTCAxMzYuMzgzMTI3IDQxLjQzOTM2MyAKTCAxMzYuNzAwNTY5IDM4LjQwMDQ2OSAKTCAxMzcuMDE4MDExIDUzLjgwNzQ3MyAKTCAxMzcuNjUyODk2IDQyLjcwNTc3IApMIDEzNy45NzAzMzggNDEuMzkwNzUyIApMIDEzOC4yODc3OCA0Ny45MDAyMjggCkwgMTM4LjYwNTIyMiA0Ni4yNDQ2NDYgCkwgMTM4LjkyMjY2NSA0NS45NzM3MzUgCkwgMTM5LjI0MDEwNyA1NS4xNzM1OTMgCkwgMTM5LjU1NzU0OSA1OC44MjA2MzcgCkwgMTM5Ljg3NDk5MSA1Mi41NzIzMzggCkwgMTQwLjE5MjQzNCA1My44MDQxNzcgCkwgMTQwLjUwOTg3NiA1NC41MjQ0MTEgCkwgMTQxLjE0NDc2IDQzLjE2MDQxMSAKTCAxNDEuNDYyMjAzIDU2LjY1ODM5IApMIDE0MS43Nzk2NDUgNDguNjkwOTk3IApMIDE0Mi4wOTcwODcgNDUuMDcyNzE0IApMIDE0Mi40MTQ1MyA1Ni42MTMxMzcgCkwgMTQyLjczMTk3MiA0Ni40NDc0MTcgCkwgMTQzLjA0OTQxNCA0Ni41NDcxMDEgCkwgMTQzLjM2Njg1NiA0MS4xMTAzMzIgCkwgMTQzLjY4NDI5OSA0Ny4wMzY2MzggCkwgMTQ0LjAwMTc0MSA0MS43NTE2MjUgCkwgMTQ0LjMxOTE4MyA1NC40NTEzMDYgCkwgMTQ0LjYzNjYyNSA0My4xNjAxMDkgCkwgMTQ0Ljk1NDA2OCA0MS42NjkzMjkgCkwgMTQ1LjI3MTUxIDUxLjgzMjcyNCAKTCAxNDUuNTg4OTUyIDQyLjYzNzk3NSAKTCAxNDUuOTA2Mzk0IDQxLjI2OTA1NiAKTCAxNDYuMjIzODM3IDM0LjI0MDI2IApMIDE0Ni41NDEyNzkgMzguOTQ4NzMgCkwgMTQ2Ljg1ODcyMSAzMy4wMzg5MjYgCkwgMTQ3LjE3NjE2MyAzMi41NzkwNTYgCkwgMTQ3LjQ5MzYwNiAyOC42OTkwODEgCkwgMTQ3LjgxMTA0OCAyOS4zMjkyMDggCkwgMTQ4LjEyODQ5IDMxLjg2NTI5NyAKTCAxNDguNDQ1OTMyIDI4LjExNDk2NyAKTCAxNDguNzYzMzc1IDI5LjA1NDY2NCAKTCAxNDkuMDgwODE3IDIxLjcxMDQzIApMIDE0OS4zOTgyNTkgMjEuNzc1MzA3IApMIDE0OS43MTU3MDEgMjcuMTQ1MzY3IApMIDE1MC4wMzMxNDQgMjEuMzgxNjc0IApMIDE1MC4zNTA1ODYgMjYuODM0ODI1IApMIDE1MC42NjgwMjggMTYuNDQ4NjEyIApMIDE1MC45ODU0NyAyMy44MTY4MjMgCkwgMTUxLjMwMjkxMyAxOC43OTg4NzcgCkwgMTUxLjYyMDM1NSAyOC42MzgxMDcgCkwgMTUxLjkzNzc5NyAxOC4zOTAyNzEgCkwgMTUyLjI1NTI0IDEzLjIzNjg3NCAKTCAxNTIuNTcyNjgyIDE1LjY1OTAxNCAKTCAxNTIuODkwMTI0IDkuNzIgCkwgMTUzLjIwNzU2NiAxNy43MDc0MDggCkwgMTUzLjUyNTAwOSAxOS4yMjU5NyAKTCAxNTMuODQyNDUxIDE4LjY3MDAwOCAKTCAxNTQuMTU5ODkzIDIyLjY1NzA4OCAKTCAxNTQuNDc3MzM1IDIwLjYwMjM5NiAKTCAxNTQuNzk0Nzc4IDIxLjg2NzUwMSAKTCAxNTUuMTEyMjIgMjYuMzQxMzU0IApMIDE1NS40Mjk2NjIgMTYuMzQyMzQgCkwgMTU1Ljc0NzEwNCAyMi43Mjk4NzIgCkwgMTU2LjA2NDU0NyAyMC4xMjUyMTMgCkwgMTU2LjM4MTk4OSAyMi40MzcxOSAKTCAxNTYuNjk5NDMxIDMxLjM0NTMxNCAKTCAxNTcuMDE2ODczIDIzLjMyMzA4NCAKTCAxNTcuMzM0MzE2IDM0LjY1NjM2OCAKTCAxNTcuOTY5MiAzMi4wODEyNzUgCkwgMTU4LjI4NjY0MiAzNi40MzExODMgCkwgMTU4LjYwNDA4NSAzNy45MzUwNyAKTCAxNTguOTIxNTI3IDQxLjg0NDE3MiAKTCAxNTkuMjM4OTY5IDM0LjQ4MjAzMSAKTCAxNTkuNTU2NDExIDM1LjQ3NjQ1OSAKTCAxNTkuODczODU0IDMxLjQ5OTE5NSAKTCAxNjAuMTkxMjk2IDQ0LjEzNjQ0MiAKTCAxNjAuNTA4NzM4IDI5LjI0NzUzNiAKTCAxNjAuODI2MTggNDQuNzM1NzYxIApMIDE2MS4xNDM2MjMgMzIuNzk0Mjk1IApMIDE2MS43Nzg1MDcgNTIuNzM4ODU2IApMIDE2Mi4wOTU5NDkgNDUuMjcwNTYgCkwgMTYyLjQxMzM5MiA0NS40NjgxOTIgCkwgMTYyLjczMDgzNCA0Ny40MTQyMzUgCkwgMTYzLjA0ODI3NiA0NC40ODc0MDcgCkwgMTYzLjM2NTcxOSA0NC41NzkzMDIgCkwgMTY0LjAwMDYwMyA1NS45ODUzMDUgCkwgMTY0LjMxODA0NSA0OC43NjA5NDIgCkwgMTY0LjYzNTQ4OCA1Mi42OTg1MSAKTCAxNjQuOTUyOTMgNDguMDczMDkzIApMIDE2NS4yNzAzNzIgNDkuNjQ2Mjc0IApMIDE2NS41ODc4MTQgNTMuNTE2NTM2IApMIDE2NS45MDUyNTcgNTAuOTU3NzYxIApMIDE2Ni4yMjI2OTkgNTcuMzg3OTM5IApMIDE2Ni41NDAxNDEgNTEuNTI3MzYyIApMIDE2Ni44NTc1ODMgNDAuMjE5ODY5IApMIDE2Ny4xNzUwMjYgNDguNTkxOTc1IApMIDE2Ny44MDk5MSA0MS4yMTg3MzQgCkwgMTY4LjEyNzM1MiA1My45MzUzMyAKTCAxNjguNDQ0Nzk1IDUwLjU3NTIwMiAKTCAxNjguNzYyMjM3IDQ5Ljc2NDczMiAKTCAxNjkuMDc5Njc5IDQ1LjQxNTMxNyAKTCAxNjkuMzk3MTIxIDQ2LjYwNjI5NCAKTCAxNjkuNzE0NTY0IDQ2LjU1ODM0MyAKTCAxNzAuMDMyMDA2IDM5Ljg1ODMwMyAKTCAxNzAuMzQ5NDQ4IDQwLjYwMDA5NyAKTCAxNzAuNjY2ODkgNTAuMzcwNTQxIApMIDE3MC45ODQzMzMgMzYuOTMxMTczIApMIDE3MS4zMDE3NzUgMzUuNzIxMjgxIApMIDE3MS42MTkyMTcgMzcuODU4ODg3IApMIDE3MS45MzY2NTkgMzIuMDE3NDg3IApMIDE3Mi4yNTQxMDIgMzcuNTU0MTUxIApMIDE3Mi41NzE1NDQgMzAuNzM5OTM0IApMIDE3Mi44ODg5ODYgMzIuMTk1NDUzIApMIDE3My4yMDY0MjggMjguMzIwMzYxIApMIDE3My41MjM4NzEgMzMuNzQ2NDQ3IApMIDE3My44NDEzMTMgMjcuMTQ2MTQyIApMIDE3NC4xNTg3NTUgMjkuMDUzNzc5IApMIDE3NC40NzYxOTggMjkuNDQwNTc2IApMIDE3NC43OTM2NCAzMC41MjY0NjYgCkwgMTc1LjExMTA4MiAxOS4yMDc5MDEgCkwgMTc1LjQyODUyNCAyMy42NTM5NDIgCkwgMTc1Ljc0NTk2NyAyMy44ODI0NzEgCkwgMTc2LjA2MzQwOSAyNS43MTk0ODEgCkwgMTc2LjM4MDg1MSAyNC40OTQyMjUgCkwgMTc2LjY5ODI5MyAyMi40OTQ0MzIgCkwgMTc3LjAxNTczNiAxOS4yMjIxNzQgCkwgMTc3LjMzMzE3OCAxNy4zNTA5OTYgCkwgMTc3LjY1MDYyIDI2LjQ5MTc4MSAKTCAxNzcuOTY4MDYyIDEyLjYyMzQ3MiAKTCAxNzguNjAyOTQ3IDI0LjY1MzExMSAKTCAxNzguOTIwMzg5IDE3LjYzMTA3OCAKTCAxNzkuMjM3ODMxIDE3LjM1NDE4NiAKTCAxNzkuNTU1Mjc0IDIwLjMzNzExNiAKTCAxNzkuODcyNzE2IDE2LjU4NzQ4NSAKTCAxODAuNTA3NiAyNS41ODU3ODMgCkwgMTgwLjgyNTA0MyAxNi44NjQyNzIgCkwgMTgxLjE0MjQ4NSAyOC4zOTk4MjQgCkwgMTgxLjQ1OTkyNyAyMy40NzIzNjEgCkwgMTgxLjc3NzM2OSAyMC43Mjc4NDIgCkwgMTgyLjA5NDgxMiAyNy4zNDg4NzIgCkwgMTgyLjQxMjI1NCAyNy44NTU0ODEgCkwgMTgyLjcyOTY5NiAyMC43Nzc0OTMgCkwgMTgzLjA0NzEzOCAyOC4wMjU3NjMgCkwgMTgzLjM2NDU4MSAyOC45Mzc3MTkgCkwgMTgzLjY4MjAyMyAyNi45NzQyNjkgCkwgMTgzLjk5OTQ2NSAzNi4xMzYxNTQgCkwgMTg0LjMxNjkwNyAzNi41ODgxMDMgCkwgMTg0LjYzNDM1IDI3LjQxMjY1OCAKTCAxODQuOTUxNzkyIDM3LjMzODY5NCAKTCAxODUuMjY5MjM0IDM2LjQxODQyIApMIDE4NS41ODY2NzcgMzYuNTgxMDQ5IApMIDE4NS45MDQxMTkgNDAuNTA3MzkxIApMIDE4Ni4yMjE1NjEgNDIuMjg1ODk5IApMIDE4Ni41MzkwMDMgMzcuMjk4NzY3IApMIDE4Ny4xNzM4ODggNDkuODc1MDY3IApMIDE4Ny40OTEzMyA0MC43NjU3MTEgCkwgMTg3LjgwODc3MiAzOS42NTEzMjkgCkwgMTg4LjEyNjIxNSA0NS41NjAzNDYgCkwgMTg4LjQ0MzY1NyA1NS40MjA1NzEgCkwgMTg4Ljc2MTA5OSA1My41NTIzMzEgCkwgMTg5LjA3ODU0MSA1My40NTE0NjkgCkwgMTg5LjM5NTk4NCA1Ny4xNDk0MzggCkwgMTg5LjcxMzQyNiA1My4yNDg2OCAKTCAxOTAuMDMwODY4IDQzLjI1MzczMiAKTCAxOTAuMzQ4MzEgNDUuNjYyODg5IApMIDE5MC42NjU3NTMgNTEuOTgzNjY3IApMIDE5MC45ODMxOTUgNDMuNjY2MTg0IApMIDE5MS42MTgwNzkgNDUuMzQ5ODI3IApMIDE5MS45MzU1MjIgNTQuODA2NjQ5IApMIDE5Mi4yNTI5NjQgNDYuMDE5ODQ1IApMIDE5Mi41NzA0MDYgNDYuOTAyNzcxIApMIDE5Mi44ODc4NDggNDQuMzQ4OTYzIApMIDE5My4yMDUyOTEgNTQuMjQ0NTk0IApMIDE5My41MjI3MzMgNDguMDU3ODE1IApMIDE5My44NDAxNzUgNDguMzU0MzU5IApMIDE5NC4xNTc2MTcgNDQuMDUwMTY4IApMIDE5NC40NzUwNiA0Ni44NTQyNDIgCkwgMTk0Ljc5MjUwMiA0My42MzA0MzcgCkwgMTk1LjEwOTk0NCA0My42Mjk3NjcgCkwgMTk1LjQyNzM4NyA0MS42MzI4MzMgCkwgMTk1Ljc0NDgyOSA0NC4xMzUxNzQgCkwgMTk2LjA2MjI3MSAzOS45NzI2NzggCkwgMTk2LjM3OTcxMyA0MC4yMTMxNjUgCkwgMTk2LjY5NzE1NiAzMy45ODgzMjMgCkwgMTk3LjAxNDU5OCAzNS40MDYzNTQgCkwgMTk3LjMzMjA0IDM0LjA2NjA2MiAKTCAxOTcuNjQ5NDgyIDMxLjc3NDgwNyAKTCAxOTcuOTY2OTI1IDMwLjk1MjYzMiAKTCAxOTguNjAxODA5IDI4LjI1NjA4MyAKTCAxOTguOTE5MjUxIDI0Ljk1NTE2OCAKTCAxOTkuMjM2Njk0IDI5Ljc3OTAzOCAKTCAxOTkuNTU0MTM2IDI4LjkxNDI4NiAKTCAxOTkuODcxNTc4IDI4LjQ1MzgxMSAKTCAyMDAuMTg5MDIgMjYuNDU2ODE3IApMIDIwMC41MDY0NjMgMTYuNzg3NjU3IApMIDIwMC44MjM5MDUgMjQuMTExNzI1IApMIDIwMS4xNDEzNDcgMjYuMDIzNTY1IApMIDIwMS40NTg3ODkgMjIuODk2MDUzIApMIDIwMS43NzYyMzIgMjcuNDYzMjIgCkwgMjAyLjA5MzY3NCAyMi40ODI0ODYgCkwgMjAyLjQxMTExNiAyOC4yMjE5MTkgCkwgMjAzLjY4MDg4NSAxOS43OTA1NzEgCkwgMjAzLjk5ODMyNyAxOS43MDQwNzUgCkwgMjA0LjMxNTc3IDI4LjUwNDY3IApMIDIwNC42MzMyMTIgMjguMTQ1MjkxIApMIDIwNC45NTA2NTQgMjAuMTg1MDUzIApMIDIwNS4yNjgwOTYgMTcuNDYyMzYgCkwgMjA1LjU4NTUzOSAxOS45NDQyMzYgCkwgMjA1LjkwMjk4MSAyNC4xMjU0MDUgCkwgMjA2LjIyMDQyMyAyNi40ODQ2MDkgCkwgMjA2LjUzNzg2NiAxOS44NDY2NjcgCkwgMjA2Ljg1NTMwOCAyOC43MDIwNTggCkwgMjA3LjE3Mjc1IDI1LjgzOTgxMyAKTCAyMDcuNDkwMTkyIDI1LjQ4MjE0OCAKTCAyMDcuODA3NjM1IDIyLjk0Njk2IApMIDIwOC4xMjUwNzcgMzYuMzY1NTcyIApMIDIwOC40NDI1MTkgMjcuNzI3MTg3IApMIDIwOC43NTk5NjEgMzUuNjU1NTM4IApMIDIwOS4wNzc0MDQgMzEuODg3OTY0IApMIDIwOS4zOTQ4NDYgNDAuMTEyNDg5IApMIDIwOS43MTIyODggMzMuMzcxNDc3IApMIDIxMC4wMjk3MyAzNS4yNTg4MTMgCkwgMjEwLjM0NzE3MyAzNS4zMzIzOTggCkwgMjEwLjY2NDYxNSA0My4zMzI2NzQgCkwgMjEwLjk4MjA1NyA0NC44MzU0ODMgCkwgMjExLjI5OTQ5OSAzMy45ODUxNzIgCkwgMjExLjYxNjk0MiAzOS41MTU5NDUgCkwgMjEyLjI1MTgyNiA0Mi4yNTAwODQgCkwgMjEyLjU2OTI2OCA0Mi4zNzczNTQgCkwgMjEyLjg4NjcxMSA1Mi4zODUzNTUgCkwgMjEzLjIwNDE1MyA0OC45NTY3NzUgCkwgMjEzLjUyMTU5NSA0OC42ODY0MjQgCkwgMjEzLjgzOTAzNyA1MS4xMzg2MyAKTCAyMTQuMTU2NDggNDguNDAwOTY3IApMIDIxNC40NzM5MjIgNDguOTgwNDc1IApMIDIxNC43OTEzNjQgNTIuNjA1OTE3IApMIDIxNS4xMDg4MDYgNDguNzgxNzY2IApMIDIxNS40MjYyNDkgNTIuMjY0Njg3IApMIDIxNS43NDM2OTEgNDUuMjg1MzgzIApMIDIxNi4wNjExMzMgNDguNDY0Njk2IApMIDIxNi4zNzg1NzUgNTAuMTk0NjgxIApMIDIxNi42OTYwMTggNTIuNjc3Mzk3IApMIDIxNy4wMTM0NiA0Ny45NDk4MjMgCkwgMjE3LjMzMDkwMiA0OS41NjkzNjEgCkwgMjE3Ljk2NTc4NyAzOC42MzM5NDUgCkwgMjE4LjI4MzIyOSA0Ny41NzAxNzEgCkwgMjE4LjYwMDY3MSA0Ny4xNjk4ODYgCkwgMjE4LjkxODExNCA1Ni4xMjY3MDYgCkwgMjE5LjIzNTU1NiA0OC4xNjU3MTkgCkwgMjE5LjU1Mjk5OCA0OC43OTM2OSAKTCAyMTkuODcwNDQgNDguNTYwMjQ4IApMIDIyMC4xODc4ODMgNDcuMDkxMzU1IApMIDIyMC41MDUzMjUgMzguMDMxMTYxIApMIDIyMC44MjI3NjcgNDMuNTc5NTEzIApMIDIyMS4xNDAyMDkgNDEuNDExNzk1IApMIDIyMS40NTc2NTIgNDguNzcyNzE0IApMIDIyMi4wOTI1MzYgMzUuMjY5MTYgCkwgMjIyLjQwOTk3OCAzNy4zMjg2ODEgCkwgMjIzLjA0NDg2MyAzNC42NTY4MDYgCkwgMjIzLjM2MjMwNSA0MS42NjgzOTQgCkwgMjIzLjY3OTc0NyAzMS42Nzg0NTUgCkwgMjIzLjk5NzE5IDMzLjI3MTM2MSAKTCAyMjQuMzE0NjMyIDIyLjcyNjcwNSAKTCAyMjQuNjMyMDc0IDI1Ljk5NTMwMyAKTCAyMjQuOTQ5NTE2IDMxLjE2NzY0NiAKTCAyMjUuMjY2OTU5IDMyLjEyODcwNyAKTCAyMjUuNTg0NDAxIDIwLjY2MjI2NiAKTCAyMjUuOTAxODQzIDI4LjUwMDIyOCAKTCAyMjYuMjE5Mjg1IDI4LjE2NDMyNSAKTCAyMjYuNTM2NzI4IDIzLjI3NjgxMiAKTCAyMjYuODU0MTcgMjMuNzQ5OTk3IApMIDIyNy4xNzE2MTIgMjMuNDI1NTE1IApMIDIyNy40ODkwNTQgMTcuMTMxMDY4IApMIDIyNy44MDY0OTcgMjguMjQ0NjU2IApMIDIyOC4xMjM5MzkgMjcuNjUzNzc1IApMIDIyOC40NDEzODEgMjYuMDUwMjQ5IApMIDIyOC43NTg4MjQgMjEuNjIyNzM5IApMIDIyOS4wNzYyNjYgMjIuMzM5MTI3IApMIDIyOS4zOTM3MDggMjIuNDM3Mjg5IApMIDIzMC4wMjg1OTMgMTcuMDg0MDAzIApMIDIzMC4zNDYwMzUgMjYuNjE1MjU3IApMIDIzMC42NjM0NzcgMTYuMjE0NDc0IApMIDIzMC45ODA5MTkgMjEuMDEzMjg2IApMIDIzMS4yOTgzNjIgMjguODU4Mzk2IApMIDIzMS42MTU4MDQgMjQuNzkyMjI1IApMIDIzMS45MzMyNDYgMjkuMzQ1MDM3IApMIDIzMi4yNTA2ODggMjkuNjYwMjM0IApMIDIzMi41NjgxMzEgMjcuOTUyMjgzIApMIDIzMi44ODU1NzMgMzMuNTAxOTY3IApMIDIzMy4yMDMwMTUgMjEuNjM4MzA2IApMIDIzMy41MjA0NTcgMjguNzI0OTY0IApMIDIzMy44Mzc5IDMxLjAwMDQ3NCAKTCAyMzQuMTU1MzQyIDM2Ljc4OTczMiAKTCAyMzQuNDcyNzg0IDM3LjQ4NDUwMyAKTCAyMzUuMTA3NjY5IDM1LjAxMzcyNSAKTCAyMzUuNDI1MTExIDI5Ljc5MTQyOSAKTCAyMzUuNzQyNTUzIDM4LjMzNjAyNyAKTCAyMzYuMDU5OTk1IDM2LjkwMTgzNCAKTCAyMzYuMzc3NDM4IDM5LjI4MzE1MyAKTCAyMzYuNjk0ODggMzguOTk5OTAxIApMIDIzNy4wMTIzMjIgMzEuMzM4NTQyIApMIDIzNy45NjQ2NDkgNTIuMTI5NTcyIApMIDIzOC4yODIwOTEgNDUuNzg5Mzc1IApMIDIzOC41OTk1MzQgNDguNzE1MTczIApMIDIzOC45MTY5NzYgNDYuNTE5OTQgCkwgMjM5LjIzNDQxOCA0MC4zMTc3NDUgCkwgMjM5LjU1MTg2IDQ4LjY2MzA1MiAKTCAyMzkuODY5MzAzIDQ1LjM3NzYyNyAKTCAyNDAuMTg2NzQ1IDU1LjA0NDYwNyAKTCAyNDAuNTA0MTg3IDUxLjk0MjIwNyAKTCAyNDAuODIxNjI5IDUxLjgzNDI4MyAKTCAyNDEuMTM5MDcyIDQ2LjY5NTY1OCAKTCAyNDEuNDU2NTE0IDU5LjUzODUyNCAKTCAyNDEuNzczOTU2IDQ3LjYwMjQ4NiAKTCAyNDIuMDkxMzk4IDQ4LjAwODA4NSAKTCAyNDIuNDA4ODQxIDUyLjc4MDcyOSAKTCAyNDIuNzI2MjgzIDUyLjU1MTM2MyAKTCAyNDMuMDQzNzI1IDQwLjc4OTI0MiAKTCAyNDMuMzYxMTY3IDQ1LjA5NzMxNiAKTCAyNDMuNjc4NjEgNDQuNjEyODYzIApMIDI0My45OTYwNTIgNTIuNTQyOTM3IApMIDI0NC4zMTM0OTQgNDguNjk5Mzc2IApMIDI0NC42MzA5MzYgNTIuODU4MDM2IApMIDI0NC45NDgzNzkgNDMuNzQ5MDY3IApMIDI0NS4yNjU4MjEgNDYuODQ0ODIzIApMIDI0NS41ODMyNjMgNDQuNjE0NTk4IApMIDI0NS45MDA3MDUgNDkuMTgxOTMgCkwgMjQ2LjIxODE0OCA0NS4zMDU3NTMgCkwgMjQ2LjUzNTU5IDQ2Ljg0MDIwOSAKTCAyNDYuODUzMDMyIDM1Ljk5NzgyMiAKTCAyNDcuMTcwNDc0IDQ2LjU3MzQxMiAKTCAyNDcuNDg3OTE3IDM3LjUyMTQ3NyAKTCAyNDcuODA1MzU5IDM3LjAxNDMzMyAKTCAyNDguMTIyODAxIDMxLjYwMTI4OCAKTCAyNDguNDQwMjQzIDM5LjUzMDAyOSAKTCAyNDguNzU3Njg2IDI4LjkyMDkyNyAKTCAyNDkuMDc1MTI4IDM4LjYyMTY2IApMIDI0OS43MTAwMTMgMzAuMTUzODU3IApMIDI1MC4wMjc0NTUgMjguMjA3NDM1IApMIDI1MC4zNDQ4OTcgMjMuMTc4Njg0IApMIDI1MC42NjIzMzkgMjQuMDc2ODU4IApMIDI1MC45Nzk3ODIgMjAuODIxNzMzIApMIDI1MS4yOTcyMjQgMjguMDY2NzkgCkwgMjUxLjYxNDY2NiAyMy4yMzAwMjYgCkwgMjUxLjkzMjEwOCAzMC4wMjc5ODUgCkwgMjUyLjI0OTU1MSAxOS40NTEyNjMgCkwgMjUyLjU2Njk5MyAxOC41ODQ5NjEgCkwgMjUyLjg4NDQzNSAxOS44MzgwNjEgCkwgMjUzLjIwMTg3NyAyMC4zNzQ1NjEgCkwgMjUzLjUxOTMyIDE2LjMyOTk2OSAKTCAyNTQuMTU0MjA0IDIwLjI5NjE0NSAKTCAyNTQuNDcxNjQ2IDE2LjE4NjU1IApMIDI1NC43ODkwODkgMjMuODcwNjg0IApMIDI1NS4xMDY1MzEgMTcuNDA2MTU1IApMIDI1NS40MjM5NzMgMjQuODE2MTgyIApMIDI1NS43NDE0MTUgMTguNTc3NzI5IApMIDI1Ni4wNTg4NTggMjMuNjA2NTQ0IApMIDI1Ni4zNzYzIDIxLjgzNDgxNyAKTCAyNTYuNjkzNzQyIDIxLjI5Njk2NiAKTCAyNTcuMDExMTg0IDE2Ljc1Mzc0NSAKTCAyNTcuMzI4NjI3IDE2LjU5OTE3MSAKTCAyNTcuNjQ2MDY5IDMyLjAzMTEyNyAKTCAyNTcuOTYzNTExIDMzLjk5OTEwNiAKTCAyNTguMjgwOTUzIDI4LjcyNjU3NSAKTCAyNTguNTk4Mzk2IDI2LjEzNDg1OCAKTCAyNTguOTE1ODM4IDI4LjQxMjAzNyAKTCAyNTkuMjMzMjggMjQuOTIzNzU0IApMIDI1OS41NTA3MjIgMjcuMjgwOTU1IApMIDI1OS44NjgxNjUgMzEuODE4ODk3IApMIDI2MC4xODU2MDcgMzMuMDY0NDQgCkwgMjYwLjUwMzA0OSAzNC45ODg4MzQgCkwgMjYwLjgyMDQ5MiA0MS4zMDU4NzMgCkwgMjYxLjEzNzkzNCA0MS40MTk0ODEgCkwgMjYxLjQ1NTM3NiAzOS42Njk5NDYgCkwgMjYxLjc3MjgxOCA0Ny42ODAxOTggCkwgMjYyLjA5MDI2MSAzMi42NjE4NDkgCkwgMjYyLjQwNzcwMyAzNS44MDY0MTYgCkwgMjYyLjcyNTE0NSA0NS4yMDI1MTYgCkwgMjYzLjA0MjU4NyA0MS4yMTQxNTkgCkwgMjYzLjM2MDAzIDQ0LjU1MDMwNiAKTCAyNjMuNjc3NDcyIDQxLjI4NjYxNCAKTCAyNjMuOTk0OTE0IDUzLjY0MTM1MSAKTCAyNjQuMzEyMzU2IDQ0LjEwNjkxIApMIDI2NC42Mjk3OTkgNDcuMTkzNTczIApMIDI2NC45NDcyNDEgNDYuOTQyMTUyIApMIDI2NS4yNjQ2ODMgNDIuNDM0OTM1IApMIDI2Ni4yMTcwMSA1My45MTc1MTggCkwgMjY2LjUzNDQ1MiA0OC4yNDUwMTUgCkwgMjY2Ljg1MTg5NCA0NS40MzQ3NDQgCkwgMjY3LjE2OTMzNyA1Mi45MDM1ODYgCkwgMjY3LjQ4Njc3OSA0OS42NDgyODggCkwgMjY3LjgwNDIyMSA1MC41Njg4MDIgCkwgMjY4LjEyMTY2MyA0OC42Njk0OTEgCkwgMjY4LjQzOTEwNiA1MC4xOTYyMzQgCkwgMjY4Ljc1NjU0OCA0My4wOTgyNjcgCkwgMjY5LjA3Mzk5IDUyLjM3NTc5NiAKTCAyNjkuMzkxNDMyIDQ2LjkwMzUwNSAKTCAyNjkuNzA4ODc1IDUwLjAwMjM2NiAKTCAyNzAuMDI2MzE3IDQzLjE4NTQxMyAKTCAyNzAuMzQzNzU5IDQ4LjM3NzEyNCAKTCAyNzAuOTc4NjQ0IDM2LjU5MDA0MiAKTCAyNzEuMjk2MDg2IDQ0LjgwMDA2IApMIDI3MS42MTM1MjggMzguNzU5Njk4IApMIDI3MS45MzA5NzEgNDQuMjM3MTU5IApMIDI3Mi4yNDg0MTMgNDEuODU4NzkxIApMIDI3Mi41NjU4NTUgMzguNDMyNTA4IApMIDI3Mi44ODMyOTcgNDIuMjk2MjY1IApMIDI3My4yMDA3NCAyNS4yNjkxMzEgCkwgMjczLjUxODE4MiAzMC41ODI3NjkgCkwgMjczLjUxODE4MiAzMC41ODI3NjkgCiIgY2xpcC1wYXRoPSJ1cmwoI3A3Njg4YzMxNWRiKSIgc3R5bGU9ImZpbGw6IG5vbmU7IHN0cm9rZTogIzAwMDBmZjsgc3Ryb2tlLXdpZHRoOiAxLjU7IHN0cm9rZS1saW5lY2FwOiBzcXVhcmUiLz4KICAgPC9nPgogIDwvZz4KIDwvZz4KIDxkZWZzPgogIDxjbGlwUGF0aCBpZD0icDc2ODhjMzE1ZGIiPgogICA8cmVjdCB4PSI3LjIiIHk9IjcuMiIgd2lkdGg9IjI3OSIgaGVpZ2h0PSI1NS40NCIvPgogIDwvY2xpcFBhdGg+CiA8L2RlZnM+Cjwvc3ZnPgo=;" vertex="1" parent="ftwKBMuob_kEdf0Gnwus-20">
          <mxGeometry x="37.61" y="65.24000000000001" width="78" height="18.45" as="geometry" />
        </mxCell>
        <mxCell id="6GTcLYlPlf5bQPA8wPKu-6" value="Raw EEG Files" style="text;html=1;align=center;verticalAlign=middle;whiteSpace=wrap;rounded=0;fontFamily=Helvetica;" parent="ftwKBMuob_kEdf0Gnwus-20" vertex="1">
          <mxGeometry x="12.079999999999998" y="-11" width="105" height="10" as="geometry" />
        </mxCell>
        <mxCell id="ftwKBMuob_kEdf0Gnwus-27" value="&lt;font style=&quot;font-size: 9px;&quot;&gt;(Time x 64 Channel x File)&lt;/font&gt;" style="text;html=1;align=center;verticalAlign=middle;whiteSpace=wrap;rounded=0;" vertex="1" parent="ftwKBMuob_kEdf0Gnwus-20">
          <mxGeometry x="-10" y="89" width="150" height="20" as="geometry" />
        </mxCell>
        <mxCell id="ftwKBMuob_kEdf0Gnwus-32" value="" style="shape=image;aspect=fixed;image=data:image/svg+xml,PD94bWwgdmVyc2lvbj0iMS4wIiBlbmNvZGluZz0idXRmLTgiIHN0YW5kYWxvbmU9Im5vIj8+CjwhRE9DVFlQRSBzdmcgUFVCTElDICItLy9XM0MvL0RURCBTVkcgMS4xLy9FTiIKICAiaHR0cDovL3d3dy53My5vcmcvR3JhcGhpY3MvU1ZHLzEuMS9EVEQvc3ZnMTEuZHRkIj4KPHN2ZyB4bWxuczp4bGluaz0iaHR0cDovL3d3dy53My5vcmcvMTk5OS94bGluayIgd2lkdGg9IjMzNi4yNHB0IiBoZWlnaHQ9IjExMi4zMnB0IiB2aWV3Qm94PSIwIDAgMzM2LjI0IDExMi4zMiIgeG1sbnM9Imh0dHA6Ly93d3cudzMub3JnLzIwMDAvc3ZnIiB2ZXJzaW9uPSIxLjEiPgogPG1ldGFkYXRhPgogIDxyZGY6UkRGIHhtbG5zOmRjPSJodHRwOi8vcHVybC5vcmcvZGMvZWxlbWVudHMvMS4xLyIgeG1sbnM6Y2M9Imh0dHA6Ly9jcmVhdGl2ZWNvbW1vbnMub3JnL25zIyIgeG1sbnM6cmRmPSJodHRwOi8vd3d3LnczLm9yZy8xOTk5LzAyLzIyLXJkZi1zeW50YXgtbnMjIj4KICAgPGNjOldvcms+CiAgICA8ZGM6dHlwZSByZGY6cmVzb3VyY2U9Imh0dHA6Ly9wdXJsLm9yZy9kYy9kY21pdHlwZS9TdGlsbEltYWdlIi8+CiAgICA8ZGM6ZGF0ZT4yMDI1LTA3LTE2VDIyOjU1OjUzLjM0NDg4MTwvZGM6ZGF0ZT4KICAgIDxkYzpmb3JtYXQ+aW1hZ2Uvc3ZnK3htbDwvZGM6Zm9ybWF0PgogICAgPGRjOmNyZWF0b3I+CiAgICAgPGNjOkFnZW50PgogICAgICA8ZGM6dGl0bGU+TWF0cGxvdGxpYiB2My45LjQsIGh0dHBzOi8vbWF0cGxvdGxpYi5vcmcvPC9kYzp0aXRsZT4KICAgICA8L2NjOkFnZW50PgogICAgPC9kYzpjcmVhdG9yPgogICA8L2NjOldvcms+CiAgPC9yZGY6UkRGPgogPC9tZXRhZGF0YT4KIDxkZWZzPgogIDxzdHlsZSB0eXBlPSJ0ZXh0L2NzcyI+KntzdHJva2UtbGluZWpvaW46IHJvdW5kOyBzdHJva2UtbGluZWNhcDogYnV0dH08L3N0eWxlPgogPC9kZWZzPgogPGcgaWQ9ImZpZ3VyZV8xIj4KICA8ZyBpZD0icGF0Y2hfMSI+CiAgIDxwYXRoIGQ9Ik0gMCAxMTIuMzIgCkwgMzM2LjI0IDExMi4zMiAKTCAzMzYuMjQgMCAKTCAwIDAgCkwgMCAxMTIuMzIgCnoKIiBzdHlsZT0iZmlsbDogbm9uZSIvPgogIDwvZz4KICA8ZyBpZD0iYXhlc18xIj4KICAgPGcgaWQ9ImxpbmUyZF8xIj4KICAgIDxwYXRoIGQ9Ik0gMC43MiA5Ny4xMzczOTEgCkwgMi43MzAxNCA5MS45NjgwMTggCkwgMy44NDY4ODUgODkuNzA0Njk4IApMIDQuNzQwMjggODguNDEwMTkgCkwgNS40MTAzMjcgODcuNzk2NDU4IApMIDYuMDgwMzc0IDg3LjUxNDA3NCAKTCA2LjUyNzA3MSA4Ny41MTUzNDMgCkwgNy4xOTcxMTggODcuODAxNDg3IApMIDcuODY3MTY1IDg4LjQxODc5OSAKTCA4LjUzNzIxMSA4OS4zNDUzODMgCkwgOS40MzA2MDcgOTEuMDAzNjY4IApMIDEwLjU0NzM1MiA5My42MDQ1NyAKTCAxNC43OTA5ODEgMTA0LjE4MzMyMSAKTCAxNS42ODQzNzYgMTA1LjU5OTUyMyAKTCAxNi4zNTQ0MjMgMTA2LjMxNTkzMyAKTCAxNy4wMjQ0NyAxMDYuNzA2NzU1IApMIDE3LjY5NDUxNiAxMDYuNzU4MTI3IApMIDE4LjM2NDU2MyAxMDYuNDY4MjI2IApMIDE5LjAzNDYxIDEwNS44NDczMzYgCkwgMTkuNzA0NjU2IDEwNC45MTc0ODEgCkwgMjAuNTk4MDUyIDEwMy4yNTU1MSAKTCAyMS43MTQ3OTcgMTAwLjY1MTQwMyAKTCAyNS45NTg0MjYgOTAuMDc3NjgzIApMIDI2Ljg1MTgyMSA4OC42NjU1OTMgCkwgMjcuNTIxODY4IDg3Ljk1MjY4MiAKTCAyOC4xOTE5MTUgODcuNTY1NTc3IApMIDI4Ljg2MTk2MSA4Ny41MTgwMSAKTCAyOS41MzIwMDggODcuODExNjY3IApMIDMwLjIwMjA1NSA4OC40MzYxMzIgCkwgMzAuODcyMTAxIDg5LjM2OTI1NCAKTCAzMS43NjU0OTcgOTEuMDM0OTA0IApMIDMyLjg4MjI0MSA5My42NDIyMDQgCkwgMzcuMTI1ODcxIDEwNC4yMTA4NDcgCkwgMzguMDE5MjY2IDEwNS42MTg4MTkgCkwgMzguNjg5MzEzIDEwNi4zMjgyMjggCkwgMzkuMzU5MzYgMTA2LjcxMTYxNCAKTCAzOS44MDYwNTcgMTA2Ljc3ODg3MSAKTCA0MC4yNTI3NTUgMTA2LjY5Mzg3NCAKTCA0MC45MjI4MDIgMTA2LjI4NDQ5IApMIDQxLjU5Mjg0OSAxMDUuNTUwNjM0IApMIDQyLjQ4NjI0NCAxMDQuMTEzOTY3IApMIDQzLjYwMjk4OSAxMDEuNzE0MTg4IApMIDQ1LjE2NjQzMSA5Ny42NjI1MTUgCkwgNDcuMzk5OTIgOTEuODk5OTcyIApMIDQ4LjUxNjY2NCA4OS42NTM0NzUgCkwgNDkuNDEwMDYgODguMzc2MTM3IApMIDUwLjA4MDEwNyA4Ny43NzY3NTQgCkwgNTAuNzUwMTUzIDg3LjUwOTQxOCAKTCA1MS4xOTY4NTEgODcuNTIwODQ1IApMIDUxLjg2Njg5OCA4Ny44MjIwMTEgCkwgNTIuNTM2OTQ1IDg4LjQ1MzYxOCAKTCA1My4yMDY5OTEgODkuMzkzMjYyIApMIDU0LjEwMDM4NyA5MS4wNjYyNDYgCkwgNTUuMjE3MTMxIDkzLjY3OTkgCkwgNTkuMjM3NDEyIDEwMy44MTQ0MDMgCkwgNjAuMTMwODA3IDEwNS4zMzUyNzYgCkwgNjAuODAwODU0IDEwNi4xNDE1MDMgCkwgNjEuNDcwOTAxIDEwNi42MjgzMzEgCkwgNjIuMTQwOTQ3IDEwNi43Nzg0OSAKTCA2Mi41ODc2NDUgMTA2LjY4ODQyNyAKTCA2My4yNTc2OTIgMTA2LjI3MTYzMSAKTCA2My45Mjc3MzggMTA1LjUzMDgxOSAKTCA2NC44MjExMzQgMTA0LjA4NjAxIApMIDY1LjkzNzg3OSAxMDEuNjc4NTc3IApMIDY3LjUwMTMyMSA5Ny42MjIxNTcgCkwgNjkuNzM0ODEgOTEuODY2MDg2IApMIDcwLjg1MTU1NCA4OS42MjgwNiAKTCA3MS43NDQ5NSA4OC4zNTkzNDIgCkwgNzIuNDE0OTk3IDg3Ljc2NzE0OSAKTCA3My4wODUwNDMgODcuNTA3MzQ0IApMIDczLjUzMTc0MSA4Ny41MjM4NDkgCkwgNzQuMjAxNzg4IDg3LjgzMjUxOSAKTCA3NC44NzE4MzUgODguNDcxMjU3IApMIDc1LjU0MTg4MSA4OS40MTc0MDYgCkwgNzYuNDM1Mjc3IDkxLjA5NzY5NiAKTCA3Ny41NTIwMjEgOTMuNzE3NjU3IApMIDgxLjU3MjMwMiAxMDMuODQzNSAKTCA4Mi40NjU2OTcgMTA1LjM1NjQ3NyAKTCA4My4xMzU3NDQgMTA2LjE1NTg3NyAKTCA4My44MDU3OTEgMTA2LjYzNTM2NyAKTCA4NC40NzU4MzcgMTA2Ljc3NzkzOSAKTCA4NC45MjI1MzUgMTA2LjY4MjgxMyAKTCA4NS41OTI1ODIgMTA2LjI1ODYxMiAKTCA4Ni4yNjI2MjggMTA1LjUxMDg1NyAKTCA4Ny4xNTYwMjQgMTA0LjA1NzkzMiAKTCA4OC4yNzI3NjkgMTAxLjY0Mjg4NiAKTCA4OS44MzYyMTEgOTcuNTgxNzkgCkwgOTIuMDY5NyA5MS44MzIyOTMgCkwgOTMuMTg2NDQ0IDg5LjYwMjc3NyAKTCA5NC4wNzk4NCA4OC4zNDI3IApMIDk0Ljc0OTg4NyA4Ny43NTc3MDggCkwgOTUuNDE5OTMzIDg3LjUwNTQzOSAKTCA5NS44NjY2MzEgODcuNTI3MDIyIApMIDk2LjUzNjY3OCA4Ny44NDMxOSAKTCA5Ny4yMDY3MjQgODguNDg5MDQ4IApMIDk3Ljg3Njc3MSA4OS40NDE2ODUgCkwgOTguNzcwMTY3IDkxLjEyOTI1MSAKTCA5OS44ODY5MTEgOTMuNzU1NDczIApMIDEwMy45MDcxOTEgMTAzLjg3MjQ3OCAKTCAxMDQuODAwNTg3IDEwNS4zNzc1MzQgCkwgMTA1LjQ3MDYzNCAxMDYuMTcwMDkyIApMIDEwNi4xNDA2OCAxMDYuNjQyMjM3IApMIDEwNi44MTA3MjcgMTA2Ljc3NzIxOSAKTCAxMDcuMjU3NDI1IDEwNi42NzcwMzEgCkwgMTA3LjkyNzQ3MiAxMDYuMjQ1NDMzIApMIDEwOC41OTc1MTggMTA1LjQ5MDc0OCAKTCAxMDkuNDkwOTE0IDEwNC4wMjk3MzEgCkwgMTEwLjYwNzY1OCAxMDEuNjA3MTE2IApMIDExMi4xNzExMDEgOTcuNTQxNDE1IApMIDExNC40MDQ1OSA5MS43OTg1OTMgCkwgMTE1LjUyMTMzNCA4OS41Nzc2MjcgCkwgMTE2LjQxNDczIDg4LjMyNjIxMyAKTCAxMTcuMDg0Nzc3IDg3Ljc0ODQzMiAKTCAxMTcuNzU0ODIzIDg3LjUwMzcwMyAKTCAxMTguMjAxNTIxIDg3LjUzMDM2MyAKTCAxMTguODcxNTY4IDg3Ljg1NDAyNCAKTCAxMTkuNTQxNjE0IDg4LjUwNjk5IApMIDEyMC4yMTE2NjEgODkuNDY2MSAKTCAxMjEuMTA1MDU3IDkxLjE2MDkxMiAKTCAxMjIuMjIxODAxIDkzLjc5MzM1IApMIDEyNi4yNDIwODEgMTAzLjkwMTMzOCAKTCAxMjcuMTM1NDc3IDEwNS4zOTg0NDYgCkwgMTI3LjgwNTUyNCAxMDYuMTg0MTQ5IApMIDEyOC40NzU1NyAxMDYuNjQ4OTM5IApMIDEyOS4xNDU2MTcgMTA2Ljc3NjMzIApMIDEyOS41OTIzMTUgMTA2LjY3MTA4MSAKTCAxMzAuMjYyMzYyIDEwNi4yMzIwOTMgCkwgMTMwLjkzMjQwOCAxMDUuNDcwNDkyIApMIDEzMS44MjU4MDQgMTA0LjAwMTQxIApMIDEzMi45NDI1NDggMTAxLjU3MTI2OCAKTCAxMzQuNTA1OTkxIDk3LjUwMTAzMyAKTCAxMzYuNTE2MTMxIDkyLjI3ODY1NSAKTCAxMzcuNjMyODc1IDg5Ljk0MTYxNiAKTCAxMzguNTI2MjcxIDg4LjU3MDk4MiAKTCAxMzkuMTk2MzE4IDg3Ljg5MzIyOCAKTCAxMzkuODY2MzY0IDg3LjU0MzM4OSAKTCAxNDAuMzEzMDYyIDg3LjQ5ODk2MSAKTCAxNDAuNzU5NzYgODcuNjA2NzM5IApMIDE0MS40Mjk4MDcgODguMDQ5NDE5IApMIDE0Mi4wOTk4NTMgODguODE0NDczIApMIDE0Mi45OTMyNDkgOTAuMjg3NTc5IApMIDE0NC4xMDk5OTMgOTIuNzIxNDY4IApMIDE0NS42NzM0MzYgOTYuNzkzOTQ0IApMIDE0Ny42ODM1NzYgMTAyLjAxMzU3IApMIDE0OC44MDAzMiAxMDQuMzQ2NjAxIApMIDE0OS42OTM3MTYgMTA1LjcxMzA1NiAKTCAxNTAuMzYzNzYzIDEwNi4zODcyNzcgCkwgMTUxLjAzMzgwOSAxMDYuNzMzMzgxIApMIDE1MS40ODA1MDcgMTA2Ljc3NTI3MiAKTCAxNTEuOTI3MjA1IDEwNi42NjQ5NjQgCkwgMTUyLjU5NzI1MiAxMDYuMjE4NTk0IApMIDE1My4yNjcyOTggMTA1LjQ1MDA5IApMIDE1NC4xNjA2OTQgMTAzLjk3Mjk2OCAKTCAxNTUuMjc3NDM4IDEwMS41MzUzNDIgCkwgMTU2Ljg0MDg4MSA5Ny40NjA2NDQgCkwgMTU4Ljg1MTAyMSA5Mi4yNDM3OSAKTCAxNTkuOTY3NzY1IDg5LjkxNDc4IApMIDE2MC44NjExNjEgODguNTUyNTEgCkwgMTYxLjUzMTIwNyA4Ny44ODE4MjMgCkwgMTYyLjIwMTI1NCA4Ny41Mzk0NTYgCkwgMTYyLjY0Nzk1MiA4Ny41MDAxMDQgCkwgMTYzLjA5NDY1IDg3LjYxMjk0IApMIDE2My43NjQ2OTYgODguMDYyOTk4IApMIDE2NC40MzQ3NDMgODguODM0OTQ5IApMIDE2NS4zMjgxMzkgOTAuMzE2MDgxIApMIDE2Ni40NDQ4ODMgOTIuNzU3NDMzIApMIDE2OC4wMDgzMjYgOTYuODM0MzM1IApMIDE3MC4wMTg0NjYgMTAyLjA0ODM5MiAKTCAxNzEuMTM1MjEgMTA0LjM3MzM3MyAKTCAxNzIuMDI4NjA2IDEwNS43MzE0NTIgCkwgMTcyLjY5ODY1MiAxMDYuMzk4NjAxIApMIDE3My4zNjg2OTkgMTA2LjczNzIyOSAKTCAxNzMuODE1Mzk3IDEwNi43NzQwNDQgCkwgMTc0LjI2MjA5NSAxMDYuNjU4NjggCkwgMTc0LjkzMjE0MSAxMDYuMjA0OTM1IApMIDE3NS42MDIxODggMTA1LjQyOTU0MSAKTCAxNzYuNDk1NTg0IDEwMy45NDQ0MDYgCkwgMTc3LjYxMjMyOCAxMDEuNDk5MzM4IApMIDE3OS4zOTkxMTkgOTYuODE0MTM5IApMIDE4MS4xODU5MTEgOTIuMjA5MDEyIApMIDE4Mi4zMDI2NTUgODkuODg4MDcgCkwgMTgzLjE5NjA1MSA4OC41MzQxODkgCkwgMTgzLjg2NjA5NyA4Ny44NzA1ODIgCkwgMTg0LjUzNjE0NCA4Ny41MzU2OTMgCkwgMTg0Ljk4Mjg0MiA4Ny41MDE0MTYgCkwgMTg1LjQyOTU0IDg3LjYxOTMwOCAKTCAxODYuMDk5NTg2IDg4LjA3NjczNiAKTCAxODYuNzY5NjMzIDg4Ljg1NTU3IApMIDE4Ny42NjMwMjkgOTAuMzQ0NzAzIApMIDE4OC43Nzk3NzMgOTIuNzkzNDc1IApMIDE5MC41NjY1NjQgOTcuNDgwODM5IApMIDE5Mi4zNTMzNTYgMTAyLjA4MzEyOCAKTCAxOTMuNDcwMSAxMDQuNDAwMDE5IApMIDE5NC4zNjM0OTYgMTA1Ljc0OTY5OCAKTCAxOTUuMDMzNTQyIDEwNi40MDk3NjEgCkwgMTk1LjcwMzU4OSAxMDYuNzQwOTA5IApMIDE5Ni4xNTAyODcgMTA2Ljc3MjY0NiAKTCAxOTYuNTk2OTg1IDEwNi42NTIyMjggCkwgMTk3LjI2NzAzMSAxMDYuMTkxMTE3IApMIDE5Ny45MzcwNzggMTA1LjQwODg0NyAKTCAxOTguODMwNDc0IDEwMy45MTU3MjQgCkwgMTk5Ljk0NzIxOCAxMDEuNDYzMjU4IApMIDIwMS43MzQwMDkgOTYuNzczNzUgCkwgMjAzLjUyMDgwMSA5Mi4xNzQzMTkgCkwgMjA0LjYzNzU0NSA4OS44NjE0ODkgCkwgMjA1LjUzMDk0MSA4OC41MTYwMTkgCkwgMjA2LjIwMDk4NyA4Ny44NTk1MDMgCkwgMjA2Ljg3MTAzNCA4Ny41MzIwOTggCkwgMjA3LjMxNzczMiA4Ny41MDI4OTggCkwgMjA3Ljc2NDQzIDg3LjYyNTg0MyAKTCAyMDguNDM0NDc2IDg4LjA5MDYzNCAKTCAyMDkuMTA0NTIzIDg4Ljg3NjMzNyAKTCAyMDkuOTk3OTE5IDkwLjM3MzQ0NCAKTCAyMTEuMTE0NjYzIDkyLjgyOTU5MyAKTCAyMTIuOTAxNDU0IDk3LjUyMTIyNCAKTCAyMTQuNjg4MjQ1IDEwMi4xMTc3NzcgCkwgMjE1LjgwNDk5IDEwNC40MjY1MzcgCkwgMjE2LjY5ODM4NiAxMDUuNzY3NzkyIApMIDIxNy4zNjg0MzIgMTA2LjQyMDc1OCAKTCAyMTguMDM4NDc5IDEwNi43NDQ0MTkgCkwgMjE4LjQ4NTE3NyAxMDYuNzcxMDggCkwgMjE4LjkzMTg3NSAxMDYuNjQ1NjA5IApMIDIxOS42MDE5MjEgMTA2LjE3NzE0IApMIDIyMC4yNzE5NjggMTA1LjM4ODAwOCAKTCAyMjEuMTY1MzY0IDEwMy44ODY5MjMgCkwgMjIyLjI4MjEwOCAxMDEuNDI3MTAyIApMIDIyNC4wNjg4OTkgOTYuNzMzMzY4IApMIDIyNS44NTU2OSA5Mi4xMzk3MTQgCkwgMjI2Ljk3MjQzNSA4OS44MzUwMzUgCkwgMjI3Ljg2NTgzMSA4OC40OTggCkwgMjI4LjUzNTg3NyA4Ny44NDg1ODYgCkwgMjI5LjIwNTkyNCA4Ny41Mjg2NzEgCkwgMjI5LjY1MjYyMiA4Ny41MDQ1NSAKTCAyMzAuMzIyNjY4IDg3Ljc1MzA1IApMIDIzMC45OTI3MTUgODguMzM0NDM3IApMIDIzMS42NjI3NjIgODkuMjI4MDg5IApMIDIzMi41NTYxNTcgOTAuODQ5MTE4IApMIDIzMy42NzI5MDIgOTMuNDE3MzQyIApMIDIzNi4xMjk3NCA5OS45NDUzMDMgCkwgMjM3LjQ2OTgzMyAxMDMuMTQ1NTMxIApMIDIzOC4zNjMyMjkgMTA0LjgzMzA5OCAKTCAyMzkuMjU2NjI0IDEwNi4wMzY0NzIgCkwgMjM5LjkyNjY3MSAxMDYuNTc0NDE1IApMIDI0MC41OTY3MTggMTA2Ljc3NzYwMSAKTCAyNDEuMDQzNDE2IDEwNi43MjMwMjQgCkwgMjQxLjcxMzQ2MiAxMDYuMzU4MjU5IApMIDI0Mi4zODM1MDkgMTA1LjY2NjQwNSAKTCAyNDMuMDUzNTU2IDEwNC42NzIwMDUgCkwgMjQzLjk0Njk1MSAxMDIuOTM3ODcyIApMIDI0NS4wNjM2OTYgMTAwLjI3MjA4MiAKTCAyNDguODYwNjI3IDkwLjY1MjM0MiAKTCAyNDkuNzU0MDIzIDg5LjA4MDgwOCAKTCAyNTAuNDI0MDY5IDg4LjIzMDU1MyAKTCAyNTEuMDk0MTE2IDg3LjY5NjI0NyAKTCAyNTEuNzY0MTYzIDg3LjQ5Njg0MyAKTCAyNTIuMjEwODYxIDg3LjU1Mzk1NyAKTCAyNTIuODgwOTA3IDg3LjkyMjQ0OSAKTCAyNTMuNTUwOTU0IDg4LjYxNzgyIApMIDI1NC4yMjEwMDEgODkuNjE1NDAyIApMIDI1NS4xMTQzOTYgOTEuMzUzMDY0IApMIDI1Ni4yMzExNDEgOTQuMDIxODE3IApMIDI2MC4wMjgwNzIgMTAzLjYzNzM4IApMIDI2MC45MjE0NjggMTA1LjIwNTA1OCAKTCAyNjEuNTkxNTE0IDEwNi4wNTE5NDggCkwgMjYyLjI2MTU2MSAxMDYuNTgyNjE1IApMIDI2Mi45MzE2MDggMTA2Ljc3ODIzNiAKTCAyNjMuMzc4MzA2IDEwNi43MTg1ODYgCkwgMjY0LjA0ODM1MiAxMDYuMzQ2MzY4IApMIDI2NC43MTgzOTkgMTA1LjY0NzQ4MyAKTCAyNjUuMzg4NDQ2IDEwNC42NDY3MjMgCkwgMjY2LjI4MTg0MSAxMDIuOTA1NTM5IApMIDI2Ny42MjE5MzUgOTkuNjUzOTk2IApMIDI3MC45NzIxNjggOTEuMDgxOTU4IApMIDI3MS44NjU1NjQgODkuNDA1MzE3IApMIDI3Mi43NTg5NTkgODguMjE1MTU1IApMIDI3My40MjkwMDYgODcuNjg4MTI5IApMIDI3NC4wOTkwNTMgODcuNDk2MjkzIApMIDI3NC41NDU3NTEgODcuNTU4NDc5IApMIDI3NS4yMTU3OTcgODcuOTM0NDIxIApMIDI3NS44ODU4NDQgODguNjM2ODE3IApMIDI3Ni41NTU4OTEgODkuNjQwNzUxIApMIDI3Ny40NDkyODYgOTEuMzg1NDQ5IApMIDI3OC43ODkzOCA5NC42NDAyOTkgCkwgMjgyLjEzOTYxMyAxMDMuMjA4NTM2IApMIDI4My4wMzMwMDkgMTA0Ljg4MTUyMSAKTCAyODMuOTI2NDA0IDEwNi4wNjcyNjcgCkwgMjg0LjU5NjQ1MSAxMDYuNTkwNjUgCkwgMjg1LjI2NjQ5OCAxMDYuNzc4NzAyIApMIDI4NS43MTMxOTUgMTA2LjcxMzk4IApMIDI4Ni4zODMyNDIgMTA2LjMzNDMxNSAKTCAyODcuMDUzMjg5IDEwNS42Mjg0MTEgCkwgMjg3LjcyMzMzNiAxMDQuNjIxMzA4IApMIDI4OC42MTY3MzEgMTAyLjg3MzEwNCAKTCAyODkuOTU2ODI1IDk5LjYxNDk2IApMIDI5My4zMDcwNTggOTEuMDUwNTYyIApMIDI5NC4yMDA0NTQgODkuMzgxMjQxIApMIDI5NS4wOTM4NDkgODguMTk5OTE1IApMIDI5NS43NjM4OTYgODcuNjgwMTc3IApMIDI5Ni40MzM5NDMgODcuNDk1OTEyIApMIDI5Ni44ODA2NCA4Ny41NjMxNjkgCkwgMjk3LjU1MDY4NyA4Ny45NDY1NTUgCkwgMjk4LjIyMDczNCA4OC42NTU5NjQgCkwgMjk4Ljg5MDc4MSA4OS42NjYyMzIgCkwgMjk5Ljc4NDE3NiA5MS40MTc5MzQgCkwgMzAxLjEyNDI3IDk0LjY3OTM1NiAKTCAzMDQuNDc0NTAzIDEwMy4yMzk4NzkgCkwgMzA1LjM2Nzg5OSAxMDQuOTA1NTI4IApMIDMwNi4yNjEyOTQgMTA2LjA4MjQyOSAKTCAzMDYuOTMxMzQxIDEwNi41OTg1MTkgCkwgMzA3LjYwMTM4OCAxMDYuNzc4OTk4IApMIDMwOC4wNDgwODUgMTA2LjcwOTIwNiAKTCAzMDguNzE4MTMyIDEwNi4zMjIxIApMIDMwOS4zODgxNzkgMTA1LjYwOTE5IApMIDMxMC4yODE1NzQgMTA0LjE5NzEgCkwgMzExLjE3NDk3IDEwMi4zNDA4MzMgCkwgMzEyLjUxNTA2MyA5OC45ODQ5NDUgCkwgMzE1LjQxODU5OSA5MS40OTk1ODYgCkwgMzE2LjUzNTM0NCA4OS4zNTczMDIgCkwgMzE3LjQyODczOSA4OC4xODQ4MzEgCkwgMzE4LjA5ODc4NiA4Ny42NzIzOTEgCkwgMzE4Ljc2ODgzMyA4Ny40OTU3IApMIDMxOS4yMTU1MyA4Ny41NjgwMjcgCkwgMzE5Ljg4NTU3NyA4Ny45NTg4NSAKTCAzMjAuNTU1NjI0IDg4LjY3NTI2IApMIDMyMS40NDkwMTkgOTAuMDkxNDYxIApMIDMyMi4zNDI0MTUgOTEuOTUwOTcyIApMIDMyMy42ODI1MDggOTUuMzA5Njc0IApMIDMyNi41ODYwNDQgMTAyLjc5MTU3NyAKTCAzMjcuNzAyNzg5IDEwNC45Mjk0IApMIDMyOC41OTYxODQgMTA2LjA5NzQzNCAKTCAzMjkuMjY2MjMxIDEwNi42MDYyMjIgCkwgMzI5LjkzNjI3OCAxMDYuNzc5MTI1IApMIDMzMC4zODI5NzUgMTA2LjcwNDI2MyAKTCAzMzEuMDUzMDIyIDEwNi4zMDk3MjUgCkwgMzMxLjcyMzA2OSAxMDUuNTg5ODE5IApMIDMzMi42MTY0NjQgMTA0LjE2OTUxMiAKTCAzMzMuNTA5ODYgMTAyLjMwNjc2NCAKTCAzMzQuODQ5OTUzIDk4Ljk0NTI2NCAKTCAzMzUuNTIgOTcuMTM3MzkxIApMIDMzNS41MiA5Ny4xMzczOTEgCiIgY2xpcC1wYXRoPSJ1cmwoI3A5ZjdhMmRmMzk4KSIgc3R5bGU9ImZpbGw6IG5vbmU7IHN0cm9rZTogIzFmNzdiNDsgc3Ryb2tlLXdpZHRoOiAyOyBzdHJva2UtbGluZWNhcDogc3F1YXJlIi8+CiAgIDwvZz4KICAgPGcgaWQ9ImxpbmUyZF8yIj4KICAgIDxwYXRoIGQ9Ik0gMC43MiA3My4wMzMwNDMgCkwgMi41MDY3OTEgNjcuNTYwMzkgCkwgMy40MDAxODcgNjUuNDQ4MjYxIApMIDQuMDcwMjMzIDY0LjMwNTg0MiAKTCA0Ljc0MDI4IDYzLjYwODYzMiAKTCA1LjE4Njk3OCA2My40MDk3MjYgCkwgNS42MzM2NzYgNjMuNDI5NTI2IApMIDYuMDgwMzc0IDYzLjY2NzU4MyAKTCA2LjUyNzA3MSA2NC4xMTg0ODcgCkwgNy4xOTcxMTggNjUuMTcwMjQ1IApMIDguMDkwNTE0IDY3LjE4NDI1MyAKTCA5LjIwNzI1OCA3MC40MTkwNDYgCkwgMTIuMTEwNzk0IDc5LjI5MDYyNiAKTCAxMy4wMDQxODkgODEuMTg4MDk0IApMIDEzLjY3NDIzNiA4Mi4xMzQ0MzUgCkwgMTQuMTIwOTM0IDgyLjUwOTQxIApMIDE0LjU2NzYzMiA4Mi42NjkwMTggCkwgMTUuMDE0MzMgODIuNjA5NjMyIApMIDE1LjQ2MTAyNyA4Mi4zMzI2MDEgCkwgMTYuMTMxMDc0IDgxLjUyNDA2MyAKTCAxNi44MDExMjEgODAuMjgyMzY0IApMIDE3LjY5NDUxNiA3OC4wNjUyMzggCkwgMTkuMDM0NjEgNzMuOTYxMTMgCkwgMjEuMDQ0NzUgNjcuNzI3OTQ1IApMIDIxLjkzODE0NSA2NS41NzQ2NzMgCkwgMjIuNjA4MTkyIDY0LjM5MzY1MiAKTCAyMy4yNzgyMzkgNjMuNjUzMzYxIApMIDIzLjcyNDkzNyA2My40MjQzMjQgCkwgMjQuMTcxNjM0IDYzLjQxMzY2MiAKTCAyNC42MTgzMzIgNjMuNjIxNjE3IApMIDI1LjA2NTAzIDY0LjA0MzQ2MyAKTCAyNS43MzUwNzcgNjUuMDU1MDI5IApMIDI2LjQwNTEyMyA2Ni40NzM1ODUgCkwgMjcuMjk4NTE5IDY4Ljg3MDQ2OCAKTCAyOS4wODUzMSA3NC41NDIzNDIgCkwgMzAuNDI1NDA0IDc4LjU1NTQ5OSAKTCAzMS4zMTg3OTkgODAuNjU1MTAyIApMIDMxLjk4ODg0NiA4MS43ODU4NDIgCkwgMzIuNjU4ODkzIDgyLjQ3MDA2NyAKTCAzMy4xMDU1OSA4Mi42NTk5MTYgCkwgMzMuNTUyMjg4IDgyLjYzMDk3OCAKTCAzMy45OTg5ODYgODIuMzgzOTExIApMIDM0LjQ0NTY4NCA4MS45MjQzMjggCkwgMzUuMTE1NzMgODAuODYwNjAyIApMIDM2LjAwOTEyNiA3OC44MzM1MjUgCkwgMzcuMTI1ODcxIDc1LjU4ODYzOSAKTCA0MC4wMjk0MDYgNjYuNzI5NDY2IApMIDQwLjkyMjgwMiA2NC44NDU4MTMgCkwgNDEuNTkyODQ5IDYzLjkxMTgyMyAKTCA0Mi4wMzk1NDYgNjMuNTQ1Njg1IApMIDQyLjQ4NjI0NCA2My4zOTUxNjMgCkwgNDIuOTMyOTQyIDYzLjQ2MzY4IApMIDQzLjM3OTY0IDYzLjc0OTY3NiAKTCA0NC4wNDk2ODYgNjQuNTcwOTEyIApMIDQ0LjcxOTczMyA2NS44MjM4MzQgCkwgNDUuNjEzMTI5IDY4LjA1MjY1OCAKTCA0Ni45NTMyMjIgNzIuMTY1MzE1IApMIDQ4Ljk2MzM2MiA3OC4zODg2NTcgCkwgNDkuODU2NzU4IDgwLjUyOTY4NCAKTCA1MC41MjY4MDUgODEuNjk5MTc4IApMIDUxLjE5Njg1MSA4Mi40MjY1NzggCkwgNTEuNjQzNTQ5IDgyLjY0NjU4NiAKTCA1Mi4wOTAyNDcgODIuNjQ4MTA5IApMIDUyLjUzNjk0NSA4Mi40MzExMTMgCkwgNTIuOTgzNjQyIDgyLjAwMDUzIApMIDUzLjY1MzY4OSA4MC45NzY4NTkgCkwgNTQuMzIzNzM2IDc5LjU0Nzk0MyAKTCA1NS4yMTcxMzEgNzcuMTQwODU2IApMIDU3LjAwMzkyMyA3MS40NjM5MDIgCkwgNTguMzQ0MDE2IDY3LjQ2MTAwNSAKTCA1OS4yMzc0MTIgNjUuMzc0MDEgCkwgNTkuOTA3NDU4IDY0LjI1NDk5NCAKTCA2MC41Nzc1MDUgNjMuNTgzNzgxIApMIDYxLjAyNDIwMyA2My40MDI5OTYgCkwgNjEuNDcwOTAxIDYzLjQ0MTA3IApMIDYxLjkxNzU5OCA2My42OTcxMzkgCkwgNjIuMzY0Mjk2IDY0LjE2NTM4MiAKTCA2My4wMzQzNDMgNjUuMjQxMDM1IApMIDYzLjkyNzczOCA2Ny4yODExMDEgCkwgNjUuMDQ0NDgzIDcwLjUzNTk1MSAKTCA2Ny43MjQ2NyA3OC44MTczNzEgCkwgNjguNjE4MDY1IDgwLjg0ODc4NiAKTCA2OS4yODgxMTIgODEuOTE2NDkzIApMIDY5Ljk1ODE1OSA4Mi41MzEwMTkgCkwgNzAuNDA0ODU3IDgyLjY3MjQ0OCAKTCA3MC44NTE1NTQgODIuNTk0ODA1IApMIDcxLjI5ODI1MiA4Mi4yOTk4NTMgCkwgNzEuOTY4Mjk5IDgxLjQ2NTk1MyAKTCA3Mi42MzgzNDYgODAuMjAxODU3IApMIDczLjUzMTc0MSA3Ny45NjE0MjMgCkwgNzQuODcxODM1IDczLjg0MDM4IApMIDc2Ljg4MTk3NSA2Ny42MjcxMjcgCkwgNzcuNzc1MzcgNjUuNDk4NDI5IApMIDc4LjQ0NTQxNyA2NC4zNDA1MDggCkwgNzkuMTE1NDY0IDYzLjYyNjAyOCAKTCA3OS41NjIxNjEgNjMuNDE1MDU4IApMIDgwLjAwODg1OSA2My40MjI2NzQgCkwgODAuNDU1NTU3IDYzLjY0ODcwMiAKTCA4MC45MDIyNTUgNjQuMDg4MDA2IApMIDgxLjU3MjMwMiA2NS4xMjM3NDEgCkwgODIuNDY1Njk3IDY3LjEyMDIwMSAKTCA4My41ODI0NDIgNzAuMzQxMzM4IApMIDg2LjQ4NTk3NyA3OS4yMjg5MTQgCkwgODcuMzc5MzczIDgxLjE0NDY4NyAKTCA4OC4wNDk0MiA4Mi4xMDc0MzcgCkwgODguNDk2MTE3IDgyLjQ5NDE3MSAKTCA4OC45NDI4MTUgODIuNjY1ODg1IApMIDg5LjM4OTUxMyA4Mi42MTg2NzYgCkwgODkuODM2MjExIDgyLjM1MzYxNiAKTCA5MC4yODI5MDkgODEuODc2NzMxIApMIDkwLjk1Mjk1NSA4MC43ODkxOTQgCkwgOTEuODQ2MzUxIDc4LjczNjIyIApMIDkyLjk2MzA5NSA3NS40NzE1MzQgCkwgOTUuNjQzMjgyIDY3LjIwMDMzMSAKTCA5Ni41MzY2NzggNjUuMTgxOTU3IApMIDk3LjIwNjcyNCA2NC4xMjYyMDUgCkwgOTcuODc2NzcxIDYzLjUyNDgyNiAKTCA5OC4zMjM0NjkgNjMuMzkyNDk1IApMIDk4Ljc3MDE2NyA2My40NzkyNjMgCkwgOTkuMjE2ODY1IDYzLjc4MzE1NyAKTCA5OS44ODY5MTEgNjQuNjI5NjkgCkwgMTAwLjU1Njk1OCA2NS45MDQ5MSAKTCAxMDEuNDUwMzU0IDY4LjE1Njg2NCAKTCAxMDIuNzkwNDQ3IDcyLjI4NjEzIApMIDEwNC44MDA1ODcgNzguNDg5MDQ5IApMIDEwNS42OTM5ODMgODAuNjA1MzM0IApMIDEwNi4zNjQwMjkgODEuNzUxNjM2IApMIDEwNy4wMzQwNzYgODIuNDUzMTY4IApMIDEwNy40ODA3NzQgODIuNjU1MDkxIApMIDEwNy45Mjc0NzIgODIuNjM4MzM3IApMIDEwOC4zNzQxNjkgODIuNDAzMjg2IApMIDEwOC44MjA4NjcgODEuOTU1Mjc5IApMIDEwOS40OTA5MTQgODAuOTA3NTIgCkwgMTEwLjM4NDMxIDc4Ljg5Nzg4NSAKTCAxMTEuNTAxMDU0IDc1LjY2NjQ4NSAKTCAxMTQuNDA0NTkgNjYuNzkwODQ4IApMIDExNS4yOTc5ODUgNjQuODg4NzkxIApMIDExNS45NjgwMzIgNjMuOTM4MzQxIApMIDExNi40MTQ3MyA2My41NjA0MjQgCkwgMTE2Ljg2MTQyOCA2My4zOTc3ODggCkwgMTE3LjMwODEyNSA2My40NTQxMzEgCkwgMTE3Ljc1NDgyMyA2My43MjgxNzEgCkwgMTE4LjQyNDg3IDY0LjUzMjQ2OSAKTCAxMTkuMDk0OTE3IDY1Ljc3MDQxNiAKTCAxMTkuOTg4MzEyIDY3Ljk4MzYyNCAKTCAxMjEuMzI4NDA2IDcyLjA4NDg0NiAKTCAxMjMuMzM4NTQ2IDc4LjMyMTI1NyAKTCAxMjQuMjMxOTQxIDgwLjQ3ODU5MSAKTCAxMjQuOTAxOTg4IDgxLjY2MzQ0NSAKTCAxMjUuNTcyMDM1IDgyLjQwODAyNyAKTCAxMjYuMDE4NzMyIDgyLjY0MDA3MSAKTCAxMjYuNDY1NDMgODIuNjUzNzc5IApMIDEyNi45MTIxMjggODIuNDQ4ODQgCkwgMTI3LjM1ODgyNiA4Mi4wMjk5MDkgCkwgMTI4LjAyODg3MyA4MS4wMjIzODggCkwgMTI4LjY5ODkxOSA3OS42MDcyOTggCkwgMTI5LjU5MjMxNSA3Ny4yMTM4MzYgCkwgMTMxLjM3OTEwNiA3MS41NDM3MDcgCkwgMTMyLjcxOTE5OSA2Ny41MjcxNjUgCkwgMTMzLjYxMjU5NSA2NS40MjMzNzcgCkwgMTM0LjI4MjY0MiA2NC4yODg3MzkgCkwgMTM0Ljk1MjY4OCA2My42MDAxODMgCkwgMTM1LjM5OTM4NiA2My40MDczMTMgCkwgMTM1Ljg0NjA4NCA2My40MzMyMDYgCkwgMTM2LjI5Mjc4MiA2My42NzcyNzEgCkwgMTM2LjczOTQ4IDY0LjEzMzk2MiAKTCAxMzcuNDA5NTI2IDY1LjE5MzcwNCAKTCAxMzguMzAyOTIyIDY3LjIxNjQzNCAKTCAxMzkuNDE5NjY2IDcwLjQ1Nzk2OSAKTCAxNDIuMzIzMjAyIDc5LjMyMTMxNyAKTCAxNDMuMjE2NTk4IDgxLjIwOTU4MyAKTCAxNDMuODg2NjQ0IDgyLjE0NzY5NSAKTCAxNDQuMzMzMzQyIDgyLjUxNjc4IApMIDE0NC43ODAwNCA4Mi42NzAzMzEgCkwgMTQ1LjIyNjczOCA4Mi42MDQ4NTggCkwgMTQ1LjY3MzQzNiA4Mi4zMjE4NDggCkwgMTQ2LjM0MzQ4MiA4MS41MDQ4NDIgCkwgMTQ3LjAxMzUyOSA4MC4yNTU2NTUgCkwgMTQ3LjkwNjkyNSA3OC4wMzA3MiAKTCAxNDkuMjQ3MDE4IDczLjkyMDg5NiAKTCAxNTEuMjU3MTU4IDY3LjY5NDI0NSAKTCAxNTIuMTUwNTU0IDY1LjU0OTEyNyAKTCAxNTIuODIwNiA2NC4zNzU3ODUgCkwgMTUzLjQ5MDY0NyA2My42NDQwODUgCkwgMTUzLjkzNzM0NSA2My40MjEwNjYgCkwgMTU0LjM4NDA0MyA2My40MTY0OTcgCkwgMTU0LjgzMDc0IDYzLjYzMDQ4IApMIDE1NS4yNzc0MzggNjQuMDU4MTUzIApMIDE1NS45NDc0ODUgNjUuMDc3NzkzIApMIDE1Ni42MTc1MzIgNjYuNTAzMjYyIApMIDE1Ny41MTA5MjcgNjguOTA2OTU5IApMIDE1OS4yOTc3MTggNzQuNTgyMjQ0IApMIDE2MC42Mzc4MTIgNzguNTg4NTc4IApMIDE2MS41MzEyMDcgODAuNjc5Nzg2IApMIDE2Mi4yMDEyNTQgODEuODAyNzE1IApMIDE2Mi44NzEzMDEgODIuNDc4MjY4IApMIDE2My4zMTc5OTkgODIuNjYyMDc1IApMIDE2My43NjQ2OTYgODIuNjI3MDQ2IApMIDE2NC4yMTEzOTQgODIuMzczOTc3IApMIDE2NC42NTgwOTIgODEuOTA4NjE4IApMIDE2NS4zMjgxMzkgODAuODM2OTM2IApMIDE2Ni4yMjE1MzQgNzguODAxMTkxIApMIDE2Ny4zMzgyNzkgNzUuNTQ5NjQ4IApMIDE3MC4yNDE4MTUgNjYuNjk4OTQxIApMIDE3MS4xMzUyMSA2NC44MjQ1NCAKTCAxNzEuODA1MjU3IDYzLjg5ODgwNCAKTCAxNzIuMjUxOTU1IDYzLjUzODU2NSAKTCAxNzIuNjk4NjUyIDYzLjM5NDEwNSAKTCAxNzMuMTQ1MzUgNjMuNDY4NzA2IApMIDE3My41OTIwNDggNjMuNzYwNjc0IApMIDE3NC4yNjIwOTUgNjQuNTkwMzU2IApMIDE3NC45MzIxNDEgNjUuODUwNzMzIApMIDE3NS44MjU1MzcgNjguMDg3MzA3IApMIDE3Ny4xNjU2MyA3Mi4yMDU1NzIgCkwgMTc5LjE3NTc3MSA3OC40MjIyMTYgCkwgMTgwLjA2OTE2NiA4MC41NTUwMzMgCkwgMTgwLjczOTIxMyA4MS43MTY4MTcgCkwgMTgxLjQwOTI2IDgyLjQzNTYwNyAKTCAxODEuODU1OTU3IDgyLjY0OTU5IApMIDE4Mi4zMDI2NTUgODIuNjQ1MDIxIApMIDE4Mi43NDkzNTMgODIuNDIyMDAyIApMIDE4My4xOTYwNTEgODEuOTg1NjAzIApMIDE4My44NjYwOTcgODAuOTUzODg1IApMIDE4NC41MzYxNDQgNzkuNTE4MDkzIApMIDE4NS40Mjk1NCA3Ny4xMDQyNTcgCkwgMTg3LjIxNjMzMSA3MS40MjQwNCAKTCAxODguNTU2NDI0IDY3LjQyODA3MiAKTCAxODkuNDQ5ODIgNjUuMzQ5NTI4IApMIDE5MC4xMTk4NjcgNjQuMjM4MzUyIApMIDE5MC43ODk5MTMgNjMuNTc1ODI5IApMIDE5MS4yMzY2MTEgNjMuNDAxMDkxIApMIDE5MS42ODMzMDkgNjMuNDQ1MjU1IApMIDE5Mi4xMzAwMDcgNjMuNzA3MzE5IApMIDE5Mi41NzY3MDQgNjQuMTgxMzI2IApMIDE5My4yNDY3NTEgNjUuMjY0OTA2IApMIDE5NC4xNDAxNDcgNjcuMzEzNTg2IApMIDE5NS4yNTY4OTEgNzAuNTc1MDA4IApMIDE5Ny45MzcwNzggNzguODQ5NjUzIApMIDE5OC44MzA0NzQgODAuODcyMzgzIApMIDE5OS41MDA1MiA4MS45MzIxMjUgCkwgMjAwLjE3MDU2NyA4Mi41Mzc4ODkgCkwgMjAwLjYxNzI2NSA4Mi42NzMyNTMgCkwgMjAxLjA2Mzk2MyA4Mi41ODk1MjYgCkwgMjAxLjUxMDY2IDgyLjI4ODYxMSAKTCAyMDIuMTgwNzA3IDgxLjQ0NjI4NiAKTCAyMDIuODUwNzU0IDgwLjE3NDc2OCAKTCAyMDMuNzQ0MTQ5IDc3LjkyNjY0NCAKTCAyMDUuMDg0MjQzIDczLjgwMDEwMSAKTCAyMDcuMDk0MzgzIDY3LjU5MzcxMSAKTCAyMDcuOTg3Nzc5IDY1LjQ3MzI3OSAKTCAyMDguNjU3ODI1IDY0LjMyMzA5OSAKTCAyMDkuMzI3ODcyIDYzLjYxNzI0NyAKTCAyMDkuNzc0NTcgNjMuNDEyMzA4IApMIDIxMC4yMjEyNjggNjMuNDI2MDE2IApMIDIxMC42Njc5NjUgNjMuNjU4MDYgCkwgMjExLjExNDY2MyA2NC4xMDMxNjggCkwgMjExLjc4NDcxIDY1LjE0NjkyNCAKTCAyMTIuNjc4MTA1IDY3LjE1MjE3NiAKTCAyMTMuNzk0ODUgNzAuMzgwMTY5IApMIDIxNi42OTgzODYgNzkuMjU5ODI0IApMIDIxNy41OTE3ODEgODEuMTY2NDYyIApMIDIxOC4yNjE4MjggODIuMTIxMDE2IApMIDIxOC43MDg1MjYgODIuNTAxODc0IApMIDIxOS4xNTUyMjMgODIuNjY3NTM2IApMIDIxOS42MDE5MjEgODIuNjE0MjM4IApMIDIyMC4wNDg2MTkgODIuMzQzMTkxIApMIDIyMC43MTg2NjYgODEuNTQzMTM1IApMIDIyMS4zODg3MTIgODAuMzA4OTQ2IApMIDIyMi4yODIxMDggNzguMDk5NjY2IApMIDIyMy42MjIyMDEgNzQuMDAxMzQ4IApMIDIyNS42MzIzNDIgNjcuNzYxNzM4IApMIDIyNi41MjU3MzcgNjUuNjAwMzUxIApMIDIyNy4xOTU3ODQgNjQuNDExNjcxIApMIDIyNy44NjU4MzEgNjMuNjYyODAxIApMIDIyOC4zMTI1MjggNjMuNDI3NzUgCkwgMjI4Ljc1OTIyNiA2My40MTA5OTYgCkwgMjI5LjIwNTkyNCA2My42MTI5MTkgCkwgMjI5LjY1MjYyMiA2NC4wMjg5MzIgCkwgMjMwLjMyMjY2OCA2NS4wMzI0MDUgCkwgMjMwLjk5MjcxNSA2Ni40NDQwMjIgCkwgMjMxLjg4NjExMSA2OC44MzQwNTEgCkwgMjMzLjY3MjkwMiA3NC41MDI0MTMgCkwgMjM1LjAxMjk5NSA3OC41MjIzMjIgCkwgMjM1LjkwNjM5MSA4MC42MzAyODUgCkwgMjM2LjU3NjQzOCA4MS43Njg4MTYgCkwgMjM3LjI0NjQ4NCA4Mi40NjE3IApMIDIzNy42OTMxODIgODIuNjU3NTg4IApMIDIzOC4xMzk4OCA4Mi42MzQ3NDIgCkwgMjM4LjU4NjU3OCA4Mi4zOTM2OCAKTCAyMzkuMDMzMjc2IDgxLjkzOTg4MiAKTCAyMzkuNzAzMzIyIDgwLjg4NDEzIApMIDI0MC41OTY3MTggNzguODY1NzU2IApMIDI0MS43MTM0NjIgNzUuNjI3NTg1IApMIDI0NC42MTY5OTggNjYuNzYwMTAyIApMIDI0NS41MTAzOTQgNjQuODY3MjMgCkwgMjQ2LjE4MDQ0IDYzLjkyNTAwMiAKTCAyNDYuNjI3MTM4IDYzLjU1Mjk3MSAKTCAyNDcuMDczODM2IDYzLjM5NjM5MSAKTCAyNDcuNTIwNTM0IDYzLjQ1ODgyMSAKTCAyNDcuOTY3MjMxIDYzLjczODg0MiAKTCAyNDguNjM3Mjc4IDY0LjU1MTYxNiAKTCAyNDkuMzA3MzI1IDY1Ljc5NzA2MSAKTCAyNTAuMjAwNzIgNjguMDE4MDk3IApMIDI1MS41NDA4MTQgNzIuMTI1MDcyIApMIDI1My41NTA5NTQgNzguMzU1MDA0IApMIDI1NC40NDQzNSA4MC41MDQyMDMgCkwgMjU1LjExNDM5NiA4MS42ODEzODcgCkwgMjU1Ljc4NDQ0MyA4Mi40MTczODUgCkwgMjU2LjIzMTE0MSA4Mi42NDM0MTMgCkwgMjU2LjY3NzgzOSA4Mi42NTEwMjkgCkwgMjU3LjEyNDUzNiA4Mi40NDAwNTkgCkwgMjU3LjU3MTIzNCA4Mi4wMTUyOTggCkwgMjU4LjI0MTI4MSA4MC45OTk2OTMgCkwgMjU4LjkxMTMyOCA3OS41Nzc2NzggCkwgMjU5LjgwNDcyMyA3Ny4xNzczODIgCkwgMjYxLjU5MTUxNCA3MS41MDM3OTEgCkwgMjYyLjkzMTYwOCA2Ny40OTQwMzYgCkwgMjYzLjgyNTAwMyA2NS4zOTg2MjYgCkwgMjY0LjQ5NTA1IDY0LjI3MTc4OSAKTCAyNjUuMTY1MDk3IDYzLjU5MTg5OSAKTCAyNjUuNjExNzk1IDYzLjQwNTA3IApMIDI2Ni4wNTg0OTIgNjMuNDM3MDU0IApMIDI2Ni41MDUxOSA2My42ODcxMjMgCkwgMjY2Ljk1MTg4OCA2NC4xNDk1OTQgCkwgMjY3LjYyMTkzNSA2NS4yMTczMDEgCkwgMjY4LjUxNTMzIDY3LjI0ODcxNiAKTCAyNjkuNjMyMDc1IDcwLjQ5NjkzOCAKTCAyNzIuNTM1NjEgNzkuMzUxODk4IApMIDI3My40MjkwMDYgODEuMjMwOTI4IApMIDI3NC4wOTkwNTMgODIuMTYwNzk0IApMIDI3NC41NDU3NTEgODIuNTIzOTgzIApMIDI3NC45OTI0NDggODIuNjcxNDc0IApMIDI3NS40MzkxNDYgODIuNTk5OTE1IApMIDI3NS44ODU4NDQgODIuMzEwOTMyIApMIDI3Ni41NTU4OTEgODEuNDg1NDcyIApMIDI3Ny4yMjU5MzcgODAuMjI4ODE5IApMIDI3OC4xMTkzMzMgNzcuOTk2MTE1IApMIDI3OS40NTk0MjYgNzMuODgwNjQ1IApMIDI4MS40Njk1NjYgNjcuNjYwNjM5IApMIDI4Mi4zNjI5NjIgNjUuNTIzNzEyIApMIDI4My4wMzMwMDkgNjQuMzU4MDcxIApMIDI4My43MDMwNTUgNjMuNjM0OTc0IApMIDI4NC4xNDk3NTMgNjMuNDE3OTc4IApMIDI4NC41OTY0NTEgNjMuNDE5NTAxIApMIDI4NS4wNDMxNDkgNjMuNjM5NTA5IApMIDI4NS40ODk4NDcgNjQuMDczMDAxIApMIDI4Ni4xNTk4OTMgNjUuMTAwNjk4IApMIDI4Ni44Mjk5NCA2Ni41MzMwNTUgCkwgMjg3LjcyMzMzNiA2OC45NDM1MjEgCkwgMjg5LjUxMDEyNyA3NC42MjIxMiAKTCAyOTAuODUwMjIgNzguNjIxNTYgCkwgMjkxLjc0MzYxNiA4MC43MDQzMzUgCkwgMjkyLjQxMzY2MiA4MS44MTk0MzMgCkwgMjkzLjA4MzcwOSA4Mi40ODYzMDMgCkwgMjkzLjUzMDQwNyA4Mi42NjQwNjUgCkwgMjkzLjk3NzEwNSA4Mi42MjI5NDUgCkwgMjk0LjQyMzgwMyA4Mi4zNjM4NzggCkwgMjk0Ljg3MDUgODEuODkyNzUyIApMIDI5NS41NDA1NDcgODAuODEzMTMzIApMIDI5Ni40MzM5NDMgNzguNzY4NzU2IApMIDI5Ny41NTA2ODcgNzUuNTEwNjEzIApMIDMwMC4yMzA4NzQgNjcuMjMyNTYyIApMIDMwMS4xMjQyNyA2NS4yMDU0ODUgCkwgMzAxLjc5NDMxNiA2NC4xNDE3NTkgCkwgMzAyLjQ2NDM2MyA2My41MzE2MTIgCkwgMzAyLjkxMTA2MSA2My4zOTMyMTUgCkwgMzAzLjM1Nzc1OSA2My40NzM5MDEgCkwgMzAzLjgwNDQ1NiA2My43NzE4MzQgCkwgMzA0LjQ3NDUwMyA2NC42MDk5NDkgCkwgMzA1LjE0NDU1IDY1Ljg3Nzc1OSAKTCAzMDYuMDM3OTQ1IDY4LjEyMjA0MiAKTCAzMDcuMzc4MDM5IDcyLjI0NTg0NCAKTCAzMDkuMzg4MTc5IDc4LjQ1NTY4IApMIDMxMC4yODE1NzQgODAuNTgwMjQ5IApMIDMxMC45NTE2MjEgODEuNzM0MzAzIApMIDMxMS42MjE2NjggODIuNDQ0NDcgCkwgMzEyLjA2ODM2NiA4Mi42NTI0MjUgCkwgMzEyLjUxNTA2MyA4Mi42NDE3NjMgCkwgMzEyLjk2MTc2MSA4Mi40MTI3MjYgCkwgMzEzLjQwODQ1OSA4MS45NzA1MiAKTCAzMTQuMDc4NTA2IDgwLjkzMDc3MiAKTCAzMTQuOTcxOTAxIDc4LjkyOTkxMiAKTCAzMTYuMDg4NjQ2IDc1LjcwNTM0IApMIDMxOC45OTIxODEgNjYuODIxNzA0IApMIDMxOS44ODU1NzcgNjQuOTEwNDk0IApMIDMyMC41NTU2MjQgNjMuOTUxODQxIApMIDMyMS4wMDIzMjIgNjMuNTY4MDQzIApMIDMyMS40NDkwMTkgNjMuMzk5MzU1IApMIDMyMS44OTU3MTcgNjMuNDQ5NjA5IApMIDMyMi4zNDI0MTUgNjMuNzE3NjYzIApMIDMyMy4wMTI0NjIgNjQuNTEzNDcyIApMIDMyMy42ODI1MDggNjUuNzQzODk4IApMIDMyNC41NzU5MDQgNjcuOTQ5MjM5IApMIDMyNS45MTU5OTcgNzIuMDQ0NjM2IApMIDMyNy45MjYxMzcgNzguMjg3NDE4IApMIDMyOC44MTk1MzMgODAuNDUyODQ5IApMIDMyOS40ODk1OCA4MS42NDUzNSAKTCAzMzAuMTU5NjI2IDgyLjM5ODUwNCAKTCAzMzAuNjA2MzI0IDgyLjYzNjU2MSAKTCAzMzEuMDUzMDIyIDgyLjY1NjM2MSAKTCAzMzEuNDk5NzIgODIuNDU3NDU1IApMIDMzMS45NDY0MTggODIuMDQ0MzYyIApMIDMzMi42MTY0NjQgODEuMDQ0OTQyIApMIDMzMy4yODY1MTEgNzkuNjM2ODAzIApMIDMzNC4xNzk5MDcgNzcuMjUwMjE3IApMIDMzNS41MiA3My4wMzMwNDMgCkwgMzM1LjUyIDczLjAzMzA0MyAKIiBjbGlwLXBhdGg9InVybCgjcDlmN2EyZGYzOTgpIiBzdHlsZT0iZmlsbDogbm9uZTsgc3Ryb2tlOiAjZmY3ZjBlOyBzdHJva2Utd2lkdGg6IDI7IHN0cm9rZS1saW5lY2FwOiBzcXVhcmUiLz4KICAgPC9nPgogICA8ZyBpZD0ibGluZTJkXzMiPgogICAgPHBhdGggZD0iTSAwLjcyIDQ4LjkyODY5NiAKTCAyLjI4MzQ0MiA0My4zNTY2NTggCkwgMy4xNzY4MzggNDAuOTg0ODggCkwgMy44NDY4ODUgMzkuODMzOTk0IApMIDQuMjkzNTgyIDM5LjQxMzg1OSAKTCA0Ljc0MDI4IDM5LjI4Nzg1MSAKTCA1LjE4Njk3OCAzOS40NTk4NjUgCkwgNS42MzM2NzYgMzkuOTI0NTg0IApMIDYuMzAzNzIyIDQxLjEzNjY4NyAKTCA2Ljk3Mzc2OSA0Mi44ODkgCkwgOC4wOTA1MTQgNDYuNjY2NTggCkwgMTAuMzI0MDAzIDU0LjcxMzAyMyAKTCAxMS4yMTczOTggNTcuMDE4NDIyIApMIDExLjg4NzQ0NSA1OC4xMDcyMzcgCkwgMTIuMzM0MTQzIDU4LjQ4MjQ3NiAKTCAxMi43ODA4NDEgNTguNTYyMzg0IApMIDEzLjIyNzUzOCA1OC4zNDQ0OTIgCkwgMTMuNjc0MjM2IDU3LjgzNTUzNCAKTCAxNC4zNDQyODMgNTYuNTYzMTEzIApMIDE1LjAxNDMzIDU0Ljc2MTQwOCAKTCAxNi4xMzEwNzQgNTAuOTM0NjQ0IApMIDE4LjM2NDU2MyA0Mi45MzYzNzMgCkwgMTkuMjU3OTU5IDQwLjY5OTA2MyAKTCAxOS45MjgwMDUgMzkuNjczMTI4IApMIDIwLjM3NDcwMyAzOS4zNDMwNjMgCkwgMjAuODIxNDAxIDM5LjMwOTMxNCAKTCAyMS4yNjgwOTkgMzkuNTcyOTIzIApMIDIxLjcxNDc5NyA0MC4xMjU3NDIgCkwgMjIuMzg0ODQzIDQxLjQ1NzUzNiAKTCAyMy4yNzgyMzkgNDQuMDE3Njk1IApMIDI0LjYxODMzMiA0OC44NjgwNzUgCkwgMjYuMTgxNzc1IDU0LjQ1MTE1MSAKTCAyNy4wNzUxNyA1Ni44Mzc5OTggCkwgMjcuNzQ1MjE3IDU4LjAwMzA4OSAKTCAyOC4xOTE5MTUgNTguNDMzNTQxIApMIDI4LjYzODYxMiA1OC41NzAxNzUgCkwgMjkuMDg1MzEgNTguNDA4NzY4IApMIDI5LjUzMjAwOCA1Ny45NTQzMDkgCkwgMzAuMjAyMDU1IDU2Ljc1NjI1NCAKTCAzMC44NzIxMDEgNTUuMDE1NTI1IApMIDMxLjc2NTQ5NyA1Mi4wNjMzODcgCkwgMzQuNDQ1Njg0IDQyLjUzMzg3NyAKTCAzNS4xMTU3MyA0MC44NzIxMTIgCkwgMzUuNzg1Nzc3IDM5Ljc2ODg5OSAKTCAzNi4yMzI0NzUgMzkuMzgzMjc0IApMIDM2LjY3OTE3MyAzOS4yOTI3MjEgCkwgMzcuMTI1ODcxIDM5LjUwMDAzOSAKTCAzNy41NzI1NjggMzkuOTk4ODIgCkwgMzguMjQyNjE1IDQxLjI1NzQwNCAKTCAzOC45MTI2NjIgNDMuMDQ3ODI4IApMIDQwLjAyOTQwNiA0Ni44NjM0OTMgCkwgNDIuMjYyODk1IDU0Ljg3MzQwOSAKTCA0My4xNTYyOTEgNTcuMTI2NTggCkwgNDMuODI2MzM4IDU4LjE2NzA5NiAKTCA0NC4yNzMwMzUgNTguNTA3NjA4IApMIDQ0LjcxOTczMyA1OC41NTIwMTMgCkwgNDUuMTY2NDMxIDU4LjI5ODkzOCAKTCA0NS42MTMxMjkgNTcuNzU2MjA2IApMIDQ2LjI4MzE3NSA1Ni40MzgwMjcgCkwgNDYuOTUzMjIyIDU0LjU5OTIzNyAKTCA0OC4wNjk5NjcgNTAuNzM2NTY4IApMIDUwLjA4MDEwNyA0My40NTYwNDIgCkwgNTAuOTczNTAyIDQxLjA1NDIxOSAKTCA1MS42NDM1NDkgMzkuODc0OTcgCkwgNTIuMDkwMjQ3IDM5LjQzNDIxNyAKTCA1Mi41MzY5NDUgMzkuMjg2OTYyIApMIDUyLjk4MzY0MiAzOS40Mzc3NTYgCkwgNTMuNDMwMzQgMzkuODgxOTM4IApMIDUzLjg3NzAzOCA0MC42MDU3NzggCkwgNTQuNTQ3MDg1IDQyLjE2NDc0OSAKTCA1NS40NDA0OCA0NC45NDkyOSAKTCA1OC43OTA3MTQgNTYuNDUwNjg1IApMIDU5LjQ2MDc2MSA1Ny43NjQzMTQgCkwgNTkuOTA3NDU4IDU4LjMwMzY3OSAKTCA2MC4zNTQxNTYgNTguNTUzMjQxIApMIDYwLjgwMDg1NCA1OC41MDUyODQgCkwgNjEuMjQ3NTUyIDU4LjE2MTI5MiAKTCA2MS42OTQyNDkgNTcuNTMxODk4IApMIDYyLjM2NDI5NiA1Ni4wOTc1MDkgCkwgNjMuMjU3NjkyIDUzLjQzNDE5MSAKTCA2NC44MjExMzQgNDcuNjc5Mzc5IApMIDY2LjE2MTIyNyA0My4wMzE4MjggCkwgNjcuMDU0NjIzIDQwLjc2Mjg4MyAKTCA2Ny43MjQ2NyAzOS43MDc4MjggCkwgNjguMTcxMzY4IDM5LjM1Njg4MSAKTCA2OC42MTgwNjUgMzkuMzAxODIzIApMIDY5LjA2NDc2MyAzOS41NDQzNTQgCkwgNjkuNTExNDYxIDQwLjA3Njk3OCAKTCA3MC4xODE1MDggNDEuMzgxNDkgCkwgNzAuODUxNTU0IDQzLjIwOTIzOCAKTCA3MS45NjgyOTkgNDcuMDYxMzEzIApMIDc0LjIwMTc4OCA1NS4wMzExODMgCkwgNzUuMDk1MTgzIDU3LjIzMTEzOCAKTCA3NS43NjUyMyA1OC4yMjI4OTcgCkwgNzYuMjExOTI4IDU4LjUyODUzNCAKTCA3Ni42NTg2MjYgNTguNTM3NDE1IApMIDc3LjEwNTMyNCA1OC4yNDkyNjkgCkwgNzcuNTUyMDIxIDU3LjY3MyAKTCA3OC4yMjIwNjggNTYuMzA5NjQzIApMIDc5LjExNTQ2NCA1My43MTc0NDcgCkwgODAuNDU1NTU3IDQ4Ljg0Nzg2OCAKTCA4Mi4wMTg5OTkgNDMuMjkwODkgCkwgODIuOTEyMzk1IDQwLjkzOTM1MiAKTCA4My41ODI0NDIgMzkuODA3NDc1IApMIDg0LjAyOTEzOSAzOS40MDExMjMgCkwgODQuNDc1ODM3IDM5LjI4OTI5MSAKTCA4NC45MjI1MzUgMzkuNDc1NDM3IApMIDg1LjM2OTIzMyAzOS45NTM4MDUgCkwgODYuMDM5MjggNDEuMTg0NTY2IApMIDg2LjcwOTMyNiA0Mi45NTIyMTcgCkwgODcuODI2MDcxIDQ2Ljc0NTIzMSAKTCA5MC4wNTk1NiA1NC43Nzc0ODYgCkwgOTAuOTUyOTU1IDU3LjA2MjExNCAKTCA5MS42MjMwMDIgNTguMTMxNjY2IApMIDkyLjA2OTcgNTguNDkzMDMzIApMIDkyLjUxNjM5OCA1OC41NTg3NDMgCkwgOTIuOTYzMDk1IDU4LjMyNjc2NSAKTCA5My40MDk3OTMgNTcuODA0MjcgCkwgOTQuMDc5ODQgNTYuNTEzNDc4IApMIDk0Ljc0OTg4NyA1NC42OTY4NDMgCkwgOTUuODY2NjMxIDUwLjg1NTUxNCAKTCA5OC4xMDAxMiA0Mi44NzMyNjIgCkwgOTguOTkzNTE2IDQwLjY1NzI0IApMIDk5LjY2MzU2MiAzOS42NTA4MDcgCkwgMTAwLjExMDI2IDM5LjMzNDY5MyAKTCAxMDAuNTU2OTU4IDM5LjMxNTE1MyAKTCAxMDEuMDAzNjU2IDM5LjU5Mjc5MSAKTCAxMDEuNDUwMzU0IDQwLjE1OTAyNSAKTCAxMDIuMTIwNCA0MS41MDg4OSAKTCAxMDMuMDEzNzk2IDQ0LjA4NzQyNCAKTCAxMDQuMzUzODg5IDQ4Ljk0ODkwMyAKTCAxMDUuOTE3MzMyIDU0LjUxNzIxMiAKTCAxMDYuODEwNzI3IDU2Ljg4Mzk0NiAKTCAxMDcuNDgwNzc0IDU4LjAzMDA4NyAKTCAxMDcuOTI3NDcyIDU4LjQ0Njc3OSAKTCAxMDguMzc0MTY5IDU4LjU2OTI0NCAKTCAxMDguODIwODY3IDU4LjM5MzY5NiAKTCAxMDkuMjY3NTY1IDU3LjkyNTU2MSAKTCAxMDkuOTM3NjEyIDU2LjcwODc4NSAKTCAxMTAuNjA3NjU4IDU0Ljk1MjYyNyAKTCAxMTEuNzI0NDAzIDUxLjE3MTE2MyAKTCAxMTMuOTU3ODkyIDQzLjEyODIxNCAKTCAxMTQuODUxMjg4IDQwLjgyNzk5MyAKTCAxMTUuNTIxMzM0IDM5Ljc0Mzk4NiAKTCAxMTUuOTY4MDMyIDM5LjM3MjIxMyAKTCAxMTYuNDE0NzMgMzkuMjk1ODU0IApMIDExNi44NjE0MjggMzkuNTE3MjY5IApMIDExNy4zMDgxMjUgNDAuMDI5NjE0IApMIDExNy45NzgxNzIgNDEuMzA2NjM3IApMIDExOC42NDgyMTkgNDMuMTEyMDg2IApMIDExOS43NjQ5NjMgNDYuOTQyNTE3IApMIDEyMS45OTg0NTIgNTQuOTM2ODM2IApMIDEyMi44OTE4NDggNTcuMTY4ODM4IApMIDEyMy41NjE4OTUgNTguMTg5OTA1IApMIDEyNC4wMDg1OTIgNTguNTE2NDg0IApMIDEyNC40NTUyOSA1OC41NDY2ODEgCkwgMTI0LjkwMTk4OCA1OC4yNzk1NjMgCkwgMTI1LjM0ODY4NiA1Ny43MjMzODcgCkwgMTI2LjAxODczMiA1Ni4zODcwNjYgCkwgMTI2LjkxMjEyOCA1My44MjIyOTcgCkwgMTI4LjI1MjIyMSA0OC45NjkxMSAKTCAxMjkuODE1NjY0IDQzLjM4OTY4OSAKTCAxMzAuNzA5MDU5IDQxLjAwNzg1NCAKTCAxMzEuMzc5MTA2IDM5Ljg0NzQ5MyAKTCAxMzEuODI1ODA0IDM5LjQyMDQ3OCAKTCAxMzIuMjcyNTAyIDM5LjI4NzM4NSAKTCAxMzIuNzE5MTk5IDM5LjQ1MjMyOSAKTCAxMzMuMTY1ODk3IDM5LjkxMDIxIApMIDEzMy44MzU5NDQgNDEuMTEyOTUzIApMIDEzNC41MDU5OTEgNDIuODU3NTUxIApMIDEzNS4zOTkzODYgNDUuODEzMTIxIApMIDEzOC4wNzk1NzMgNTUuMzM4NjI0IApMIDEzOC43NDk2MiA1Ni45OTYzNjIgCkwgMTM5LjQxOTY2NiA1OC4wOTQ3ODEgCkwgMTM5Ljg2NjM2NCA1OC40NzY5NDUgCkwgMTQwLjMxMzA2MiA1OC41NjM5NTEgCkwgMTQwLjc1OTc2IDU4LjM1MzEwNyAKTCAxNDEuMjA2NDU4IDU3Ljg1MDkzMSAKTCAxNDEuODc2NTA0IDU2LjU4NzczIApMIDE0Mi41NDY1NTEgNTQuNzkzNTM4IApMIDE0My42NjMyOTYgNTAuOTc0MTU2IApMIDE0NS44OTY3ODUgNDIuOTY4MDg3IApMIDE0Ni43OTAxOCA0MC43MjAxOTIgCkwgMTQ3LjQ2MDIyNyAzOS42ODQ1MzIgCkwgMTQ3LjkwNjkyNSAzOS4zNDc1MDEgCkwgMTQ4LjM1MzYyMiAzOS4zMDY2NDggCkwgMTQ4LjgwMDMyIDM5LjU2MzIzNSAKTCAxNDkuMjQ3MDE4IDQwLjEwOTMzMiAKTCAxNDkuOTE3MDY1IDQxLjQzMjA1NSAKTCAxNTAuNTg3MTExIDQzLjI3NDUxIApMIDE1MS43MDM4NTYgNDcuMTQwNjc2IApMIDE1My43MTM5OTYgNTQuNDE3OTc0IApMIDE1NC42MDczOTIgNTYuODE0ODE1IApMIDE1NS4yNzc0MzggNTcuOTg5MzUxIApMIDE1NS43MjQxMzYgNTguNDI2NjcyIApMIDE1Ni4xNzA4MzQgNTguNTcwMzg3IApMIDE1Ni42MTc1MzIgNTguNDE2MDU1IApMIDE1Ny4wNjQyMjkgNTcuOTY4NDQ1IApMIDE1Ny41MTA5MjcgNTcuMjQxMzk0IApMIDE1OC4xODA5NzQgNTUuNjc4MjI3IApMIDE1OS4wNzQzNyA1Mi44ODk2ODYgCkwgMTYyLjQyNDYwMyA0MS4zOTQwODEgCkwgMTYzLjA5NDY1IDQwLjA4NTAwOSAKTCAxNjMuNTQxMzQ4IDM5LjU0OTAxMyAKTCAxNjMuOTg4MDQ1IDM5LjMwMjk2NiAKTCAxNjQuNDM0NzQzIDM5LjM1NDQ3MyAKTCAxNjQuODgxNDQxIDM5LjcwMTk0MyAKTCAxNjUuMzI4MTM5IDQwLjMzNDYzNSAKTCAxNjUuOTk4MTg1IDQxLjc3MzQxMSAKTCAxNjYuODkxNTgxIDQ0LjQ0MTA3NiAKTCAxNjguNDU1MDIzIDUwLjE5ODA0NiAKTCAxNjkuNzk1MTE3IDU0Ljg0MTUzOCAKTCAxNzAuNjg4NTEyIDU3LjEwNTIzNSAKTCAxNzEuMzU4NTU5IDU4LjE1NTQ0OCAKTCAxNzEuODA1MjU3IDU4LjUwMjkxOCAKTCAxNzIuMjUxOTU1IDU4LjU1NDQyNiAKTCAxNzIuNjk4NjUyIDU4LjMwODM3OSAKTCAxNzMuMTQ1MzUgNTcuNzcyMzgzIApMIDE3My44MTUzOTcgNTYuNDYzMzEgCkwgMTc0LjQ4NTQ0NCA1NC42MzE4NzMgCkwgMTc1LjYwMjE4OCA1MC43NzYyNSAKTCAxNzcuODM1Njc3IDQyLjgxMDU3NyAKTCAxNzguNzI5MDczIDQwLjYxNTk5NyAKTCAxNzkuMzk5MTE5IDM5LjYyOTEzOCAKTCAxNzkuODQ1ODE3IDM5LjMyNjk5NyAKTCAxODAuMjkyNTE1IDM5LjMyMTY2OCAKTCAxODAuNzM5MjEzIDM5LjYxMzMxNSAKTCAxODEuMTg1OTExIDQwLjE5MjkyNCAKTCAxODEuODU1OTU3IDQxLjU2MDc2NiAKTCAxODIuNzQ5MzUzIDQ0LjE1NzQ5NCAKTCAxODQuMDg5NDQ2IDQ5LjAyOTcyOSAKTCAxODUuNjUyODg5IDU0LjU4Mjg4MSAKTCAxODYuNTQ2Mjg0IDU2LjkyOTMzNCAKTCAxODcuMjE2MzMxIDU4LjA1NjQ0NiAKTCAxODcuNjYzMDI5IDU4LjQ1OTM0OCAKTCAxODguMTA5NzI2IDU4LjU2NzYzNSAKTCAxODguNTU2NDI0IDU4LjM3Nzk1OCAKTCAxODkuMDAzMTIyIDU3Ljg5NjE4MiAKTCAxODkuNjczMTY5IDU2LjY2MDc3IApMIDE5MC4zNDMyMTUgNTQuODg5MzA1IApMIDE5MS40NTk5NiA1MS4wOTI0NzQgCkwgMTkzLjY5MzQ0OSA0My4wNjM4NTQgCkwgMTk0LjU4Njg0NSA0MC43ODQ0NDMgCkwgMTk1LjI1Njg5MSAzOS43MTk3MTkgCkwgMTk1LjcwMzU4OSAzOS4zNjE4MjQgCkwgMTk2LjE1MDI4NyAzOS4yOTk2NjQgCkwgMTk2LjU5Njk4NSAzOS41MzUxNjEgCkwgMTk3LjA0MzY4MiA0MC4wNjEwMzQgCkwgMTk3LjcxMzcyOSA0MS4zNTY0MDYgCkwgMTk4LjM4Mzc3NiA0My4xNzY3NTMgCkwgMTk5LjUwMDUyIDQ3LjAyMTY4MSAKTCAyMDEuNzM0MDA5IDU0Ljk5OTg0MSAKTCAyMDIuNjI3NDA1IDU3LjIxMDUxNyAKTCAyMDMuMjk3NDUyIDU4LjIxMjA2MyAKTCAyMDMuNzQ0MTQ5IDU4LjUyNDY4NiAKTCAyMDQuMTkwODQ3IDU4LjU0MDY3MyAKTCAyMDQuNjM3NTQ1IDU4LjI1OTUzMSAKTCAyMDUuMDg0MjQzIDU3LjY4OTk1IApMIDIwNS43NTQyOSA1Ni4zMzU1ODEgCkwgMjA2LjY0NzY4NSA1My43NTI0ODIgCkwgMjA3Ljk4Nzc3OSA0OC44ODgyODIgCkwgMjA5LjU1MTIyMSA0My4zMjM3MjUgCkwgMjEwLjQ0NDYxNiA0MC45NjIwNDYgCkwgMjExLjExNDY2MyAzOS44MjA2NTQgCkwgMjExLjU2MTM2MSAzOS40MDc0MDcgCkwgMjEyLjAwODA1OSAzOS4yODg0ODYgCkwgMjEyLjQ1NDc1NyAzOS40Njc1NjggCkwgMjEyLjkwMTQ1NCAzOS45MzkxMTYgCkwgMjEzLjU3MTUwMSA0MS4xNjA1NTkgCkwgMjE0LjI0MTU0OCA0Mi45MjA1NTYgCkwgMjE1LjM1ODI5MiA0Ni43MDU4ODYgCkwgMjE3LjU5MTc4MSA1NC43NDUzMDUgCkwgMjE4LjQ4NTE3NyA1Ny4wNDAzMzkgCkwgMjE5LjE1NTIyMyA1OC4xMTk1MzIgCkwgMjE5LjYwMTkyMSA1OC40ODc4MzggCkwgMjIwLjA0ODYxOSA1OC41NjA2NDggCkwgMjIwLjQ5NTMxNyA1OC4zMzU3MTEgCkwgMjIwLjk0MjAxNSA1Ny44MTk5OCAKTCAyMjEuNjEyMDYxIDU2LjUzODM2MiAKTCAyMjIuMjgyMTA4IDU0LjcyOTE3NyAKTCAyMjMuMzk4ODUzIDUwLjg5NTA5NiAKTCAyMjUuNjMyMzQyIDQyLjkwNDc2NSAKTCAyMjYuNTI1NzM3IDQwLjY3ODA3OSAKTCAyMjcuMTk1Nzg0IDM5LjY2MTg4NiAKTCAyMjcuNjQyNDgyIDM5LjMzODc5NCAKTCAyMjguMDg5MTc5IDM5LjMxMjE0OSAKTCAyMjguNTM1ODc3IDM5LjU4Mjc3NSAKTCAyMjguOTgyNTc1IDQwLjE0MjMwNiAKTCAyMjkuNjUyNjIyIDQxLjQ4MzE0OCAKTCAyMzAuNTQ2MDE3IDQ0LjA1MjUxNiAKTCAyMzEuODg2MTExIDQ4LjkwODQ4OSAKTCAyMzMuNDQ5NTUzIDU0LjQ4NDIzIApMIDIzNC4zNDI5NDkgNTYuODYxMDQxIApMIDIzNS4wMTI5OTUgNTguMDE2NjY4IApMIDIzNS40NTk2OTMgNTguNDQwMjQ0IApMIDIzNS45MDYzOTEgNTguNTY5Nzk0IApMIDIzNi4zNTMwODkgNTguNDAxMzE1IApMIDIzNi43OTk3ODcgNTcuOTQwMDE0IApMIDIzNy40Njk4MzMgNTYuNzMyNTg4IApMIDIzOC4xMzk4OCA1NC45ODQxMjkgCkwgMjM5LjAzMzI3NiA1Mi4wMjUxNDEgCkwgMjQxLjcxMzQ2MiA0Mi41MDM2ODcgCkwgMjQyLjM4MzUwOSA0MC44NDk5ODIgCkwgMjQzLjA1MzU1NiAzOS43NTYzNjIgCkwgMjQzLjUwMDI1NCAzOS4zNzc2NiAKTCAyNDMuOTQ2OTUxIDM5LjI5NDIwMyAKTCAyNDQuMzkzNjQ5IDM5LjUwODU3MSAKTCAyNDQuODQwMzQ3IDQwLjAxNDEzOSAKTCAyNDUuNTEwMzk0IDQxLjI4MTk1MyAKTCAyNDYuMTgwNDQgNDMuMDc5OTA1IApMIDI0Ny4yOTcxODUgNDYuOTAyOTg3IApMIDI0OS41MzA2NzQgNTQuOTA1MTc1IApMIDI1MC40MjQwNjkgNTcuMTQ3NzgxIApMIDI1MS4wOTQxMTYgNTguMTc4NTgyIApMIDI1MS41NDA4MTQgNTguNTEyMTMgCkwgMjUxLjk4NzUxMiA1OC41NDk0MzIgCkwgMjUyLjQzNDIwOSA1OC4yODkzMzMgCkwgMjUyLjg4MDkwNyA1Ny43Mzk4NzQgCkwgMjUzLjU1MDk1NCA1Ni40MTI2MTIgCkwgMjU0LjIyMTAwMSA1NC41NjY1MDEgCkwgMjU1LjMzNzc0NSA1MC42OTY4NTUgCkwgMjU3LjM0Nzg4NSA0My40MjI4MTcgCkwgMjU4LjI0MTI4MSA0MS4wMzA5NjcgCkwgMjU4LjkxMTMyOCAzOS44NjExNTIgCkwgMjU5LjM1ODAyNSAzOS40MjcyNjQgCkwgMjU5LjgwNDcyMyAzOS4yODcwODkgCkwgMjYwLjI1MTQyMSAzOS40NDQ5NTkgCkwgMjYwLjY5ODExOSAzOS44OTU5OTUgCkwgMjYxLjE0NDgxNyA0MC42MjYyNTMgCkwgMjYxLjgxNDg2MyA0Mi4xOTM2MDkgCkwgMjYyLjcwODI1OSA0NC45ODYxMzcgCkwgMjY2LjA1ODQ5MiA1Ni40NzU5MDIgCkwgMjY2LjcyODUzOSA1Ny43ODA0MTMgCkwgMjY3LjE3NTIzNyA1OC4zMTMwMzcgCkwgMjY3LjYyMTkzNSA1OC41NTU1NjkgCkwgMjY4LjA2ODYzMiA1OC41MDA1MSAKTCAyNjguNTE1MzMgNTguMTQ5NTYzIApMIDI2OC45NjIwMjggNTcuNTEzNTc3IApMIDI2OS42MzIwNzUgNTYuMDcwNDIgCkwgMjcwLjUyNTQ3IDUzLjM5ODQyMSAKTCAyNzIuMDg4OTEzIDQ3LjYzOTMxNyAKTCAyNzMuNDI5MDA2IDQyLjk5OTkwNSAKTCAyNzQuMzIyNDAyIDQwLjc0MTQ2NiAKTCAyNzQuOTkyNDQ4IDM5LjY5NjA5OSAKTCAyNzUuNDM5MTQ2IDM5LjM1MjEwNyAKTCAyNzUuODg1ODQ0IDM5LjMwNDE1MSAKTCAyNzYuMzMyNTQyIDM5LjU1MzcxMiAKTCAyNzYuNzc5MjM5IDQwLjA5MzA3OCAKTCAyNzcuNDQ5Mjg2IDQxLjQwNjcwNiAKTCAyNzguMTE5MzMzIDQzLjI0MTgyNCAKTCAyNzkuMjM2MDc3IDQ3LjEwMDk3OCAKTCAyODEuNDY5NTY2IDU1LjA2MjQxOSAKTCAyODIuMzYyOTYyIDU3LjI1MTYxNCAKTCAyODMuMDMzMDA5IDU4LjIzMzU2OCAKTCAyODMuNDc5NzA2IDU4LjUzMjIxMyAKTCAyODMuOTI2NDA0IDU4LjUzMzk4OSAKTCAyODQuMzczMTAyIDU4LjIzODg0MyAKTCAyODQuODE5OCA1Ny42NTU4OTcgCkwgMjg1LjQ4OTg0NyA1Ni4yODM1NzUgCkwgMjg2LjM4MzI0MiA1My42ODIzMjggCkwgMjg3LjcyMzMzNiA0OC44MDc0NTYgCkwgMjg5LjI4Njc3OCA0My4yNTgxNTUgCkwgMjkwLjE4MDE3MyA0MC45MTY3OTcgCkwgMjkwLjg1MDIyIDM5Ljc5NDQ1NiAKTCAyOTEuMjk2OTE4IDM5LjM5NTAwNiAKTCAyOTEuNzQzNjE2IDM5LjI5MDI2NSAKTCAyOTIuMTkwMzE0IDM5LjQ4MzQ3MiAKTCAyOTIuNjM3MDExIDM5Ljk2ODY1MyAKTCAyOTMuMzA3MDU4IDQxLjIwODcxIApMIDI5My45NzcxMDUgNDIuOTgzOTgzIApMIDI5NS4wOTM4NDkgNDYuNzg0NjE0IApMIDI5Ny4zMjczMzggNTQuODA5NTY0IApMIDI5OC4yMjA3MzQgNTcuMDgzNzQ2IApMIDI5OC44OTA3ODEgNTguMTQzNjM4IApMIDI5OS4zMzc0NzggNTguNDk4MDYgCkwgMjk5Ljc4NDE3NiA1OC41NTY2NjkgCkwgMzAwLjIzMDg3NCA1OC4zMTc2NTQgCkwgMzAwLjY3NzU3MiA1Ny43ODg0MDQgCkwgMzAxLjM0NzYxOCA1Ni40ODg0NiAKTCAzMDIuMDE3NjY1IDU0LjY2NDQwOCAKTCAzMDMuMTM0NDEgNTAuODE1ODk5IApMIDMwNS4zNjc4OTkgNDIuODQxODY2IApMIDMwNi4yNjEyOTQgNDAuNjM2NTQ2IApMIDMwNi45MzEzNDEgMzkuNjM5ODkxIApMIDMwNy4zNzgwMzkgMzkuMzMwNzYxIApMIDMwNy44MjQ3MzYgMzkuMzE4MzI2IApMIDMwOC4yNzE0MzQgMzkuNjAyOTcxIApMIDMwOC43MTgxMzIgNDAuMTc1ODk3IApMIDMwOS4zODgxNzkgNDEuNTM0NzYzIApMIDMxMC4yODE1NzQgNDQuMTIyNDE3IApMIDMxMS42MjE2NjggNDguOTg5MzE3IApMIDMxMy4xODUxMSA1NC41NTAwOTYgCkwgMzE0LjA3ODUwNiA1Ni45MDY3MSAKTCAzMTQuNzQ4NTUyIDU4LjA0MzM0NyAKTCAzMTUuMTk1MjUgNTguNDUzMTQ3IApMIDMxNS42NDE5NDggNTguNTY4NTI0IApMIDMxNi4wODg2NDYgNTguMzg1OTEgCkwgMzE2LjUzNTM0NCA1Ny45MTA5NTEgCkwgMzE3LjIwNTM5IDU2LjY4NDg0NiAKTCAzMTcuODc1NDM3IDU0LjkyMTAxOCAKTCAzMTguOTkyMTgxIDUxLjEzMTgzOCAKTCAzMjEuMjI1NjcgNDMuMDk1OTgzIApMIDMyMi4xMTkwNjYgNDAuODA2MTQ3IApMIDMyMi43ODkxMTMgMzkuNzMxNzcyIApMIDMyMy4yMzU4MTEgMzkuMzY2OTM1IApMIDMyMy42ODI1MDggMzkuMjk3Njc0IApMIDMyNC4xMjkyMDYgMzkuNTI2MTMyIApMIDMyNC41NzU5MDQgNDAuMDQ1MjQ2IApMIDMyNS4yNDU5NTEgNDEuMzMxNDU0IApMIDMyNS45MTU5OTcgNDMuMTQ0MzY5IApMIDMyNy4wMzI3NDIgNDYuOTgyMDgyIApMIDMyOS4yNjYyMzEgNTQuOTY4MzkxIApMIDMzMC4xNTk2MjYgNTcuMTg5NzUgCkwgMzMwLjgyOTY3MyA1OC4yMDEwNjUgCkwgMzMxLjI3NjM3MSA1OC41MjA2NjkgCkwgMzMxLjcyMzA2OSA1OC41NDM3NjEgCkwgMzMyLjE2OTc2NyA1OC4yNjk2MjkgCkwgMzMyLjYxNjQ2NCA1Ny43MDY3NDUgCkwgMzMzLjI4NjUxMSA1Ni4zNjEzODkgCkwgMzM0LjE3OTkwNyA1My43ODc0MzIgCkwgMzM1LjUyIDQ4LjkyODY5NiAKTCAzMzUuNTIgNDguOTI4Njk2IAoiIGNsaXAtcGF0aD0idXJsKCNwOWY3YTJkZjM5OCkiIHN0eWxlPSJmaWxsOiBub25lOyBzdHJva2U6ICMyY2EwMmM7IHN0cm9rZS13aWR0aDogMjsgc3Ryb2tlLWxpbmVjYXA6IHNxdWFyZSIvPgogICA8L2c+CiAgIDxnIGlkPSJsaW5lMmRfNCI+CiAgICA8cGF0aCBkPSJNIDAuNzIgMjQuODI0MzQ4IApMIDIuMDYwMDkzIDE5LjM1MTY5NCAKTCAyLjczMDE0IDE3LjIzOTU2NiAKTCAzLjQwMDE4NyAxNS44MTMwMjkgCkwgMy44NDY4ODUgMTUuMzA5NTExIApMIDQuMjkzNTgyIDE1LjE4OTg1NSAKTCA0Ljc0MDI4IDE1LjQ1ODg4OCAKTCA1LjE4Njk3OCAxNi4xMDU3NTYgCkwgNS44NTcwMjUgMTcuNzIzNDkxIApMIDYuNzUwNDIgMjAuODQ0OTQzIApMIDkuNjUzOTU2IDMyLjI2OTg5NiAKTCAxMC4zMjQwMDMgMzMuNzU0MjI0IApMIDEwLjc3MDcgMzQuMzAwNzE1IApMIDExLjIxNzM5OCAzNC40NjQ4OTYgCkwgMTEuNjY0MDk2IDM0LjI0MDE0NCAKTCAxMi4xMTA3OTQgMzMuNjM1NTI2IApMIDEyLjU1NzQ5MiAzMi42NzU0MzQgCkwgMTMuMjI3NTM4IDMwLjY1NzA2MSAKTCAxNC4xMjA5MzQgMjcuMTg0NTUzIApMIDE2LjEzMTA3NCAxOC45Mjc0OCAKTCAxNi44MDExMjEgMTYuOTI2NjE5IApMIDE3LjQ3MTE2NyAxNS42Mzk2MzkgCkwgMTcuOTE3ODY1IDE1LjIzODcxNSAKTCAxOC4zNjQ1NjMgMTUuMjI0NTEgCkwgMTguODExMjYxIDE1LjU5NzU5NSAKTCAxOS4yNTc5NTkgMTYuMzQyOTIgCkwgMTkuOTI4MDA1IDE4LjA4OTI2MSAKTCAyMC44MjE0MDEgMjEuMzI5MTYxIApMIDIzLjUwMTU4OCAzMS45Nzk2MzIgCkwgMjQuMTcxNjM0IDMzLjU3NzE0NiAKTCAyNC42MTgzMzIgMzQuMjA4Njg5IApMIDI1LjA2NTAzIDM0LjQ2MTYzNSAKTCAyNS41MTE3MjggMzQuMzI1Nzc5IApMIDI1Ljk1ODQyNiAzMy44MDY2MDMgCkwgMjYuNDA1MTIzIDMyLjkyNTA1MSAKTCAyNy4wNzUxNyAzMS4wMDQ3MjIgCkwgMjcuOTY4NTY2IDI3LjYxMjkyMiAKTCAzMC4yMDIwNTUgMTguNTIwNzcgCkwgMzAuODcyMTAxIDE2LjYzNzExOCAKTCAzMS4zMTg3OTkgMTUuNzg0NTk5IApMIDMxLjc2NTQ5NyAxNS4yOTY3NzUgCkwgMzIuMjEyMTk1IDE1LjE5MzMyNyAKTCAzMi42NTg4OTMgMTUuNDc4NDI3IApMIDMzLjEwNTU5IDE2LjE0MDU3NSAKTCAzMy43NzU2MzcgMTcuNzc4NDE4IApMIDM0LjY2OTAzMyAyMC45MTg3MDQgCkwgMzcuNTcyNTY4IDMyLjMyMDk4OCAKTCAzOC4yNDI2MTUgMzMuNzg0MzkxIApMIDM4LjY4OTMxMyAzNC4zMTUyODcgCkwgMzkuMTM2MDExIDM0LjQ2MzI4NyAKTCAzOS41ODI3MDggMzQuMjIyNDE4IApMIDQwLjAyOTQwNiAzMy42MDIzOTggCkwgNDAuNjk5NDUzIDMyLjAyMDEyMyAKTCA0MS4zNjk1IDI5Ljc4NzQyIApMIDQyLjcwOTU5MyAyNC4yMTg1MzUgCkwgNDQuMDQ5Njg2IDE4Ljg2MzczOSAKTCA0NC43MTk3MzMgMTYuODgwNTMyIApMIDQ1LjM4OTc4IDE1LjYxNTM3MSAKTCA0NS44MzY0NzggMTUuMjMwMzQ1IApMIDQ2LjI4MzE3NSAxNS4yMzIzNzUgCkwgNDYuNzI5ODczIDE1LjYyMTM3OCAKTCA0Ny4xNzY1NzEgMTYuMzgxNjYgCkwgNDcuODQ2NjE4IDE4LjE0NzMzNiAKTCA0OC43NDAwMTMgMjEuNDA0NjEzIApMIDUxLjQyMDIgMzIuMDMzNTU3IApMIDUyLjA5MDI0NyAzMy42MTA3MzggCkwgNTIuNTM2OTQ1IDM0LjIyNjkxMSAKTCA1Mi45ODM2NDIgMzQuNDYzNzUzIApMIDUzLjQzMDM0IDM0LjMxMTcwNyAKTCA1My44NzcwMzggMzMuNzc2OTA4IApMIDU0LjMyMzczNiAzMi44ODA5MzEgCkwgNTQuOTkzNzgzIDMwLjk0MjQ2NyAKTCA1NS44ODcxNzggMjcuNTM1NDUxIApMIDU4LjEyMDY2NyAxOC40NTk4MzEgCkwgNTguNzkwNzE0IDE2LjU5NDcxNiAKTCA1OS4yMzc0MTIgMTUuNzU2ODA0IApMIDU5LjY4NDEwOSAxNS4yODQ3MDggCkwgNjAuMTMwODA3IDE1LjE5NzQ3NSAKTCA2MC41Nzc1MDUgMTUuNDk4NjIzIApMIDYxLjAyNDIwMyAxNi4xNzYwMDQgCkwgNjEuNjk0MjQ5IDE3LjgzMzg0IApMIDYyLjU4NzY0NSAyMC45OTI3NDEgCkwgNjUuNDkxMTgxIDMyLjM3MTU1NCAKTCA2Ni4xNjEyMjcgMzMuODEzOTI4IApMIDY2LjYwNzkyNSAzNC4zMjkxOTMgCkwgNjcuMDU0NjIzIDM0LjQ2MSAKTCA2Ny41MDEzMjEgMzQuMjA0MDMxIApMIDY3Ljk0ODAxOSAzMy41Njg2NTIgCkwgNjguNjE4MDY1IDMxLjk2NjA3MiAKTCA2OS4yODgxMTIgMjkuNzE3OTQ5IApMIDcwLjYyODIwNSAyNC4xMzc4ODggCkwgNzEuOTY4Mjk5IDE4LjgwMDQxNyAKTCA3Mi42MzgzNDYgMTYuODM1MDA0IApMIDczLjMwODM5MiAxNS41OTE3NTEgCkwgNzMuNzU1MDkgMTUuMjIyNjQ5IApMIDc0LjIwMTc4OCAxNS4yNDA5MTMgCkwgNzQuNjQ4NDg2IDE1LjY0NTgwNiAKTCA3NS4wOTUxODMgMTYuNDIwOTk0IApMIDc1Ljc2NTIzIDE4LjIwNTg4IApMIDc2LjY1ODYyNiAyMS40ODAzMDYgCkwgNzkuMTE1NDY0IDMxLjQxMzM2OSAKTCA3OS43ODU1MSAzMy4yMDc4MTMgCkwgODAuMjMyMjA4IDMzLjk5MDQzMyAKTCA4MC42Nzg5MDYgMzQuNDAzMjYgCkwgODEuMTI1NjA0IDM0LjQyOTY0MSAKTCA4MS41NzIzMDIgMzQuMDY4NTExIApMIDgyLjAxODk5OSAzMy4zMzQ0MzkgCkwgODIuNjg5MDQ2IDMxLjYwMjY4IApMIDgzLjU4MjQ0MiAyOC4zNzU5NjMgCkwgODYuMjYyNjI4IDE3LjcwOTgzNyAKTCA4Ni45MzI2NzUgMTYuMDk3MTQ3IApMIDg3LjM3OTM3MyAxNS40NTQxMDYgCkwgODcuODI2MDcxIDE1LjE4OTA5MyAKTCA4OC4yNzI3NjkgMTUuMzEyOCAKTCA4OC43MTk0NjYgMTUuODIwMjM2IApMIDg5LjE2NjE2NCAxNi42OTA5MjkgCkwgODkuODM2MjExIDE4LjU5NzU2NyAKTCA5MC43Mjk2MDYgMjEuOTc3Nzk4IApMIDkyLjk2MzA5NSAzMS4wODE5MyAKTCA5My42MzMxNDIgMzIuOTc5Mzk5IApMIDk0LjA3OTg0IDMzLjg0MjgzMyAKTCA5NC41MjY1MzggMzQuMzQyNDMxIApMIDk0Ljk3MzIzNSAzNC40NTgwMzYgCkwgOTUuNDE5OTMzIDM0LjE4NDk4NSAKTCA5NS44NjY2MzEgMzMuNTM0MjkzIApMIDk2LjUzNjY3OCAzMS45MTE1MiAKTCA5Ny40MzAwNzMgMjguNzg1MzM5IApMIDEwMC4zMzM2MDkgMTcuMzY1OTc4IApMIDEwMS4wMDM2NTYgMTUuODg2ODcxIApMIDEwMS40NTAzNTQgMTUuMzQ0Mjc1IApMIDEwMS44OTcwNTEgMTUuMTg0MTM5IApMIDEwMi4zNDM3NDkgMTUuNDEyOTIxIApMIDEwMi43OTA0NDcgMTYuMDIxMzk0IApMIDEwMy4yMzcxNDUgMTYuOTg1MDA4IApMIDEwMy45MDcxOTEgMTkuMDA3NzM4IApMIDEwNC44MDA1ODcgMjIuNDgzNzQgCkwgMTA2LjgxMDcyNyAzMC43MzcxOSAKTCAxMDcuNDgwNzc0IDMyLjczMzY1IApMIDEwOC4xNTA4MjEgMzQuMDE1MTg0IApMIDEwOC41OTc1MTggMzQuNDEyMTM2IApMIDEwOS4wNDQyMTYgMzQuNDIyMjgzIApMIDEwOS40OTA5MTQgMzQuMDQ1MjE1IApMIDEwOS45Mzc2MTIgMzMuMjk2MTQ2IApMIDExMC42MDc2NTggMzEuNTQ0OTYgCkwgMTExLjUwMTA1NCAyOC4zMDA2OTQgCkwgMTE0LjE4MTI0MSAxNy42NTU1MzUgCkwgMTE0Ljg1MTI4OCAxNi4wNjMwOTQgCkwgMTE1LjI5Nzk4NSAxNS40MzUzODkgCkwgMTE1Ljc0NDY4MyAxNS4xODY0NjggCkwgMTE2LjE5MTM4MSAxNS4zMjYzNzIgCkwgMTE2LjYzODA3OSAxNS44NDk0NTggCkwgMTE3LjA4NDc3NyAxNi43MzQ2MjIgCkwgMTE3Ljc1NDgyMyAxOC42NTk0OTcgCkwgMTE4LjY0ODIxOSAyMi4wNTUxMjMgCkwgMTIwLjg4MTcwOCAzMS4xNDMyMDIgCkwgMTIxLjU1MTc1NSAzMy4wMjIyMzMgCkwgMTIxLjk5ODQ1MiAzMy44NzExMDUgCkwgMTIyLjQ0NTE1IDM0LjM1NSAKTCAxMjIuODkxODQ4IDM0LjQ1NDM5NSAKTCAxMjMuMzM4NTQ2IDM0LjE2NTI4MSAKTCAxMjMuNzg1MjQzIDMzLjQ5OTMyMSAKTCAxMjQuNDU1MjkgMzEuODU2NDY5IApMIDEyNS4zNDg2ODYgMjguNzExNTA4IApMIDEyOC4yNTIyMjEgMTcuMzE1MDE3IApMIDEyOC45MjIyNjggMTUuODU2ODYyIApMIDEyOS4zNjg5NjYgMTUuMzI5ODY5IApMIDEyOS44MTU2NjQgMTUuMTg1OTE3IApMIDEzMC4yNjIzNjIgMTUuNDMwODEzIApMIDEzMC43MDkwNTkgMTYuMDU0Njc3IApMIDEzMS4zNzkxMDYgMTcuNjQyMDM4IApMIDEzMi4wNDkxNTMgMTkuODc4NjExIApMIDEzMy4zODkyNDYgMjUuNDUwMzI3IApMIDEzNC43MjkzNCAzMC44MDA4MjcgCkwgMTM1LjM5OTM4NiAzMi43Nzk1OTggCkwgMTM2LjA2OTQzMyAzNC4wMzkyOSAKTCAxMzYuNTE2MTMxIDM0LjQyMDMzOCAKTCAxMzYuOTYyODI5IDM0LjQxNDI1IApMIDEzNy40MDk1MjYgMzQuMDIxMjcxIApMIDEzNy44NTYyMjQgMzMuMjU3MjU3IApMIDEzOC41MjYyNzEgMzEuNDg2NzY4IApMIDEzOS40MTk2NjYgMjguMjI1MTgxIApMIDE0Mi4wOTk4NTMgMTcuNjAxNzM2IApMIDE0Mi43Njk5IDE2LjAyOTY1NyAKTCAxNDMuMjE2NTk4IDE1LjQxNzMzMiAKTCAxNDMuNjYzMjk2IDE1LjE4NDUyIApMIDE0NC4xMDk5OTMgMTUuMzQwNjExIApMIDE0NC41NTY2OTEgMTUuODc5MzEgCkwgMTQ1LjAwMzM4OSAxNi43Nzg4ODMgCkwgMTQ1LjY3MzQzNiAxOC43MjE4NiAKTCAxNDYuNTY2ODMxIDIyLjEzMjY0MiAKTCAxNDguODAwMzIgMzEuMjA0MDMgCkwgMTQ5LjQ3MDM2NyAzMy4wNjQ0OSAKTCAxNDkuOTE3MDY1IDMzLjg5ODc0MSAKTCAxNTAuMzYzNzYzIDM0LjM2Njg5OSAKTCAxNTAuODEwNDYgMzQuNDUwMDc4IApMIDE1MS4yNTcxNTggMzQuMTQ0OTIxIApMIDE1MS43MDM4NTYgMzMuNDYzNzM5IApMIDE1Mi4zNzM5MDMgMzEuODAwOTIzIApMIDE1My4yNjcyOTggMjguNjM3NDA0IApMIDE1Ni4xNzA4MzQgMTcuMjY0NTgzIApMIDE1Ni44NDA4ODEgMTUuODI3NDgyIApMIDE1Ny4yODc1NzggMTUuMzE2MTMgCkwgMTU3LjczNDI3NiAxNS4xODgzNzMgCkwgMTU4LjE4MDk3NCAxNS40NDkzNjUgCkwgMTU4LjYyNzY3MiAxNi4wODg1NzYgCkwgMTU5LjI5NzcxOCAxNy42OTYyMTUgCkwgMTYwLjE5MTExNCAyMC44MDgxNjYgCkwgMTYzLjA5NDY1IDMyLjI0NDE1MyAKTCAxNjMuNzY0Njk2IDMzLjczODkwNSAKTCAxNjQuMjExMzk0IDM0LjI5MzE3OCAKTCAxNjQuNjU4MDkyIDM0LjQ2NTQ0NiAKTCAxNjUuMTA0NzkgMzQuMjQ4NzU5IApMIDE2NS41NTE0ODggMzMuNjUxODU4IApMIDE2NS45OTgxODUgMzIuNjk4ODI0IApMIDE2Ni42NjgyMzIgMzAuNjg5MTkgCkwgMTY3LjU2MTYyOCAyNy4yMjM3MTcgCkwgMTY5LjU3MTc2OCAxOC45NTk1MDYgCkwgMTcwLjI0MTgxNSAxNi45NDk4NzEgCkwgMTcwLjkxMTg2MSAxNS42NTIwMTQgCkwgMTcxLjM1ODU1OSAxNS4yNDMxNTMgCkwgMTcxLjgwNTI1NyAxNS4yMjA4MzEgCkwgMTcyLjI1MTk1NSAxNS41ODU5NDcgCkwgMTcyLjY5ODY1MiAxNi4zMjM3NzQgCkwgMTczLjM2ODY5OSAxOC4wNjA0MDEgCkwgMTc0LjI2MjA5NSAyMS4yOTE1MjYgCkwgMTc2Ljk0MjI4MiAzMS45NTI0ODEgCkwgMTc3LjYxMjMyOCAzMy41NjAxMiAKTCAxNzguMDU5MDI2IDM0LjE5OTMzMSAKTCAxNzguNTA1NzI0IDM0LjQ2MDMyMyAKTCAxNzguOTUyNDIyIDM0LjMzMjU2NSAKTCAxNzkuMzk5MTE5IDMzLjgyMTIxNCAKTCAxNzkuODQ1ODE3IDMyLjk0Njg5NyAKTCAxODAuNTE1ODY0IDMxLjAzNTY4NyAKTCAxODEuNDA5MjYgMjcuNjUxNTg1IApMIDE4My42NDI3NDggMTguNTUxNDA2IApMIDE4NC4zMTI3OTUgMTYuNjU4NTM1IApMIDE4NC43NTk0OTMgMTUuNzk4NzM1IApMIDE4NS4yMDYxOTEgMTUuMzAzMDU5IApMIDE4NS42NTI4ODkgMTUuMTkxNTA2IApMIDE4Ni4wOTk1ODYgMTUuNDY4NTc1IApMIDE4Ni41NDYyODQgMTYuMTIzMDg5IApMIDE4Ny4yMTYzMzEgMTcuNzUwODkyIApMIDE4OC4xMDk3MjYgMjAuODgxNzg5IApMIDE5MS4wMTMyNjIgMzIuMjk1NTA4IApMIDE5MS42ODMzMDkgMzMuNzY5Mzg2IApMIDE5Mi4xMzAwMDcgMzQuMzA4MDg0IApMIDE5Mi41NzY3MDQgMzQuNDY0MTc2IApMIDE5My4wMjM0MDIgMzQuMjMxMzYzIApMIDE5My40NzAxIDMzLjYxOTAzOSAKTCAxOTMuOTE2Nzk4IDMyLjY1MTkwNiAKTCAxOTQuNTg2ODQ1IDMwLjYyNDgyOSAKTCAxOTUuNDgwMjQgMjcuMTQ1MzQ4IApMIDE5Ny40OTAzOCAxOC44OTU1NTcgCkwgMTk4LjE2MDQyNyAxNi45MDM1MDYgCkwgMTk4LjgzMDQ3NCAxNS42Mjc0MjQgCkwgMTk5LjI3NzE3MSAxNS4yMzQ0NDYgCkwgMTk5LjcyMzg2OSAxNS4yMjgzNTggCkwgMjAwLjE3MDU2NyAxNS42MDk0MDYgCkwgMjAwLjYxNzI2NSAxNi4zNjIyMTYgCkwgMjAxLjI4NzMxMiAxOC4xMTgyNCAKTCAyMDIuMTgwNzA3IDIxLjM2Njg1NyAKTCAyMDQuODYwODk0IDMyLjAwNjY1OCAKTCAyMDUuNTMwOTQxIDMzLjU5NDAxOSAKTCAyMDUuOTc3NjM4IDM0LjIxNzg4MyAKTCAyMDYuNDI0MzM2IDM0LjQ2Mjc3OSAKTCAyMDYuODcxMDM0IDM0LjMxODgyNiAKTCAyMDcuMzE3NzMyIDMzLjc5MTgzNCAKTCAyMDcuNzY0NDMgMzIuOTAzMDYyIApMIDIwOC40MzQ0NzYgMzAuOTczNjQ4IApMIDIwOS4zMjc4NzIgMjcuNTc0MjExIApMIDIxMS41NjEzNjEgMTguNDkwMjQ1IApMIDIxMi4yMzE0MDggMTYuNjE1ODQ1IApMIDIxMi42NzgxMDUgMTUuNzcwNjIyIApMIDIxMy4xMjQ4MDMgMTUuMjkwNjU4IApMIDIxMy41NzE1MDEgMTUuMTk1MzE2IApMIDIxNC4wMTgxOTkgMTUuNDg4NDQzIApMIDIxNC40NjQ4OTcgMTYuMTU4MjEzIApMIDIxNS4xMzQ5NDMgMTcuODA2MDY3IApMIDIxNi4wMjgzMzkgMjAuOTU1Njg5IApMIDIxOC45MzE4NzUgMzIuMzQ2MzM3IApMIDIxOS42MDE5MjEgMzMuNzk5MjM4IApMIDIyMC4wNDg2MTkgMzQuMzIyMzI0IApMIDIyMC40OTUzMTcgMzQuNDYyMjI4IApMIDIyMC45NDIwMTUgMzQuMjEzMzA3IApMIDIyMS4zODg3MTIgMzMuNTg1NjAyIApMIDIyMi4wNTg3NTkgMzEuOTkzMTYxIApMIDIyMi43Mjg4MDYgMjkuNzUyNzI3IApMIDIyNC4wNjg4OTkgMjQuMTc4MjA2IApMIDIyNS40MDg5OTMgMTguODMyMDI1IApMIDIyNi4wNzkwMzkgMTYuODU3Njk4IApMIDIyNi43NDkwODYgMTUuNjAzNDggCkwgMjI3LjE5NTc4NCAxNS4yMjY0MTMgCkwgMjI3LjY0MjQ4MiAxNS4yMzY1NiAKTCAyMjguMDg5MTc5IDE1LjYzMzUxMSAKTCAyMjguNTM1ODc3IDE2LjQwMTI1MyAKTCAyMjkuMjA1OTI0IDE4LjE3NjU0OSAKTCAyMzAuMDk5MzIgMjEuNDQyNDMgCkwgMjMyLjc3OTUwNiAzMi4wNjAzMyAKTCAyMzMuNDQ5NTUzIDMzLjYyNzMwMiAKTCAyMzMuODk2MjUxIDM0LjIzNTc3NCAKTCAyMzQuMzQyOTQ5IDM0LjQ2NDU1NyAKTCAyMzQuNzg5NjQ2IDM0LjMwNDQyIApMIDIzNS4yMzYzNDQgMzMuNzYxODI0IApMIDIzNS42ODMwNDIgMzIuODU4NjU5IApMIDIzNi4zNTMwODkgMzAuOTExMTc3IApMIDIzNy4yNDY0ODQgMjcuNDk2NjQ0IApMIDIzOS40Nzk5NzMgMTguNDI5NTI5IApMIDI0MC4xNTAwMiAxNi41NzM3MzEgCkwgMjQwLjU5NjcxOCAxNS43NDMxNDUgCkwgMjQxLjA0MzQxNiAxNS4yNzg5MjYgCkwgMjQxLjQ5MDExMyAxNS4xOTk4MDMgCkwgMjQxLjkzNjgxMSAxNS41MDg5NjcgCkwgMjQyLjM4MzUwOSAxNi4xOTM5NDcgCkwgMjQzLjA1MzU1NiAxNy44NjE3MzUgCkwgMjQzLjk0Njk1MSAyMS4wMjk4NiAKTCAyNDYuODUwNDg3IDMyLjM5NjYzOCAKTCAyNDcuNTIwNTM0IDMzLjgyODQ2IApMIDI0Ny45NjcyMzEgMzQuMzM1ODk2IApMIDI0OC40MTM5MjkgMzQuNDU5NjAzIApMIDI0OC44NjA2MjcgMzQuMTk0NTkgCkwgMjQ5LjMwNzMyNSAzMy41NTE1NDkgCkwgMjQ5Ljk3NzM3MiAzMS45Mzg4NTggCkwgMjUwLjg3MDc2NyAyOC44MjIxNSAKTCAyNTMuNzc0MzAzIDE3LjM5MTY1NSAKTCAyNTQuNDQ0MzUgMTUuOTAyMTEyIApMIDI1NC44OTEwNDcgMTUuMzUxNzI4IApMIDI1NS4zMzc3NDUgMTUuMTgzNTAzIApMIDI1NS43ODQ0NDMgMTUuNDA0MjI0IApMIDI1Ni4yMzExNDEgMTYuMDA0OTg0IApMIDI1Ni42Nzc4MzkgMTYuOTYxNTQ5IApMIDI1Ny4zNDc4ODUgMTguOTc1NTU4IApMIDI1OC4yNDEyODEgMjIuNDQ0NTU2IApMIDI2MC4yNTE0MjEgMzAuNzA1MjE2IApMIDI2MC45MjE0NjggMzIuNzEwNDY4IApMIDI2MS41OTE1MTQgMzQuMDAyODg5IApMIDI2Mi4wMzgyMTIgMzQuNDA3NzgyIApMIDI2Mi40ODQ5MSAzNC40MjYwNDYgCkwgMjYyLjkzMTYwOCAzNC4wNTY5NDQgCkwgMjYzLjM3ODMwNiAzMy4zMTUzNjcgCkwgMjY0LjA0ODM1MiAzMS41NzM4OCAKTCAyNjQuOTQxNzQ4IDI4LjMzODM2IApMIDI2Ny42MjE5MzUgMTcuNjgyNjIzIApMIDI2OC4yOTE5ODEgMTYuMDgwMDQzIApMIDI2OC43Mzg2NzkgMTUuNDQ0NjY1IApMIDI2OS4xODUzNzcgMTUuMTg3Njk2IApMIDI2OS42MzIwNzUgMTUuMzE5NTAyIApMIDI3MC4wNzg3NzMgMTUuODM0NzY4IApMIDI3MC41MjU0NyAxNi43MTI3MDQgCkwgMjcxLjE5NTUxNyAxOC42Mjg0NzcgCkwgMjcyLjA4ODkxMyAyMi4wMTY0MzYgCkwgMjc0LjMyMjQwMiAzMS4xMTI2MjEgCkwgMjc0Ljk5MjQ0OCAzMy4wMDA4ODcgCkwgMjc1LjQzOTE0NiAzMy44NTcwNDkgCkwgMjc1Ljg4NTg0NCAzNC4zNDg3OTkgCkwgMjc2LjMzMjU0MiAzNC40NTYzMDEgCkwgMjc2Ljc3OTIzOSAzNC4xNzUyMTUgCkwgMjc3LjIyNTkzNyAzMy41MTY4ODMgCkwgMjc3Ljg5NTk4NCAzMS44ODQwNTYgCkwgMjc4Ljc4OTM4IDI4Ljc0ODQ1OCAKTCAyODEuNjkyOTE1IDE3LjM0MDQzMSAKTCAyODIuMzYyOTYyIDE1Ljg3MTc4OCAKTCAyODIuODA5NjYgMTUuMzM2OTg5IApMIDI4My4yNTYzNTggMTUuMTg0OTQzIApMIDI4My43MDMwNTUgMTUuNDIxNzg1IApMIDI4NC4xNDk3NTMgMTYuMDM3OTU4IApMIDI4NC41OTY0NTEgMTcuMDA4NjA1IApMIDI4NS4yNjY0OTggMTkuMDQwMDIxIApMIDI4Ni4xNTk4OTMgMjIuNTIyOTY2IApMIDI4OC4xNzAwMzMgMzAuNzY5MDYxIApMIDI4OC44NDAwOCAzMi43NTY2OTQgCkwgMjg5LjUxMDEyNyAzNC4wMjczMTggCkwgMjg5Ljk1NjgyNSAzNC40MTYzMjEgCkwgMjkwLjQwMzUyMiAzNC40MTgzNSAKTCAyOTAuODUwMjIgMzQuMDMzMzI0IApMIDI5MS4yOTY5MTggMzMuMjc2Nzc2IApMIDI5MS45NjY5NjUgMzEuNTE1OTIzIApMIDI5Mi44NjAzNiAyOC4yNjI5NjggCkwgMjk1LjU0MDU0NyAxNy42Mjg1NzIgCkwgMjk2LjIxMDU5NCAxNi4wNDYyOTggCkwgMjk2LjY1NzI5MiAxNS40MjYyNzggCkwgMjk3LjEwMzk4OSAxNS4xODU0MDkgCkwgMjk3LjU1MDY4NyAxNS4zMzM0MDggCkwgMjk3Ljk5NzM4NSAxNS44NjQzMDUgCkwgMjk4LjQ0NDA4MyAxNi43NTY2ODEgCkwgMjk5LjExNDEyOSAxOC42OTA2MjUgCkwgMzAwLjAwNzUyNSAyMi4wOTM4NTggCkwgMzAyLjI0MTAxNCAzMS4xNzM2NzIgCkwgMzAyLjkxMTA2MSAzMy4wNDM0MzQgCkwgMzAzLjM1Nzc1OSAzMy44ODUwMDMgCkwgMzAzLjgwNDQ1NiAzNC4zNjEwMzQgCkwgMzA0LjI1MTE1NCAzNC40NTIzMjEgCkwgMzA0LjY5Nzg1MiAzNC4xNTUxODMgCkwgMzA1LjE0NDU1IDMzLjQ4MTYwNiAKTCAzMDUuODE0NTk2IDMxLjgyODc1OCAKTCAzMDYuNzA3OTkyIDI4LjY3NDQ4OSAKTCAzMDkuNjExNTI4IDE3LjI4OTczNCAKTCAzMTAuMjgxNTc0IDE1Ljg0MjA5MyAKTCAzMTAuNzI4MjcyIDE1LjMyMjkxNiAKTCAzMTEuMTc0OTcgMTUuMTg3MDYgCkwgMzExLjYyMTY2OCAxNS40NDAwMDYgCkwgMzEyLjA2ODM2NiAxNi4wNzE1NDkgCkwgMzEyLjczODQxMiAxNy42NjkwNjMgCkwgMzEzLjQwODQ1OSAxOS45MTMzNDcgCkwgMzE0Ljc0ODU1MiAyNS40OTA2NSAKTCAzMTYuMDg4NjQ2IDMwLjgzMjQ4OCAKTCAzMTYuNzU4NjkyIDMyLjgwMjM2MiAKTCAzMTcuNDI4NzM5IDM0LjA1MTEgCkwgMzE3Ljg3NTQzNyAzNC40MjQxODYgCkwgMzE4LjMyMjEzNSAzNC40MDk5OCAKTCAzMTguNzY4ODMzIDM0LjAwOTA1NyAKTCAzMTkuMjE1NTMgMzMuMjM3NTkxIApMIDMxOS44ODU1NzcgMzEuNDU3NDk2IApMIDMyMC43Nzg5NzMgMjguMTg3MzM1IApMIDMyMy4yMzU4MTEgMTguMjUwMDkzIApMIDMyMy45MDU4NTcgMTYuNDUwODgyIApMIDMyNC4zNTI1NTUgMTUuNjY0NTUxIApMIDMyNC43OTkyNTMgMTUuMjQ3NzU5IApMIDMyNS4yNDU5NTEgMTUuMjE3MzIgCkwgMzI1LjY5MjY0OCAxNS41NzQ0NjIgCkwgMzI2LjEzOTM0NiAxNi4zMDQ3NzYgCkwgMzI2LjgwOTM5MyAxOC4wMzE2NTkgCkwgMzI3LjcwMjc4OSAyMS4yNTM5NTQgCkwgMzMwLjM4Mjk3NSAzMS45MjUyMDUgCkwgMzMxLjA1MzAyMiAzMy41NDI5NCAKTCAzMzEuNDk5NzIgMzQuMTg5ODA4IApMIDMzMS45NDY0MTggMzQuNDU4ODQxIApMIDMzMi4zOTMxMTUgMzQuMzM5MTg0IApMIDMzMi44Mzk4MTMgMzMuODM1NjY2IApMIDMzMy4yODY1MTEgMzIuOTY4NiAKTCAzMzMuOTU2NTU4IDMxLjA2NjU0MyAKTCAzMzQuODQ5OTUzIDI3LjY5MDE5OCAKTCAzMzUuNTIgMjQuODI0MzQ4IApMIDMzNS41MiAyNC44MjQzNDggCiIgY2xpcC1wYXRoPSJ1cmwoI3A5ZjdhMmRmMzk4KSIgc3R5bGU9ImZpbGw6IG5vbmU7IHN0cm9rZTogI2Q2MjcyODsgc3Ryb2tlLXdpZHRoOiAyOyBzdHJva2UtbGluZWNhcDogc3F1YXJlIi8+CiAgIDwvZz4KICAgPGcgaWQ9ImxpbmUyZF81Ij4KICAgIDxwYXRoIGQ9Ik0gMC43MiAxMTEuNiAKTCAwLjcyIDAuNzIgCiIgY2xpcC1wYXRoPSJ1cmwoI3A5ZjdhMmRmMzk4KSIgc3R5bGU9ImZpbGw6IG5vbmU7IHN0cm9rZS1kYXNoYXJyYXk6IDMuNywxLjY7IHN0cm9rZS1kYXNob2Zmc2V0OiAwOyBzdHJva2U6ICM4MDgwODAiLz4KICAgPC9nPgogICA8ZyBpZD0ibGluZTJkXzYiPgogICAgPHBhdGggZD0iTSAxMTIuMzIgMTExLjYgCkwgMTEyLjMyIDAuNzIgCiIgY2xpcC1wYXRoPSJ1cmwoI3A5ZjdhMmRmMzk4KSIgc3R5bGU9ImZpbGw6IG5vbmU7IHN0cm9rZS1kYXNoYXJyYXk6IDMuNywxLjY7IHN0cm9rZS1kYXNob2Zmc2V0OiAwOyBzdHJva2U6ICM4MDgwODAiLz4KICAgPC9nPgogICA8ZyBpZD0ibGluZTJkXzciPgogICAgPHBhdGggZD0iTSAyMjMuOTIgMTExLjYgCkwgMjIzLjkyIDAuNzIgCiIgY2xpcC1wYXRoPSJ1cmwoI3A5ZjdhMmRmMzk4KSIgc3R5bGU9ImZpbGw6IG5vbmU7IHN0cm9rZS1kYXNoYXJyYXk6IDMuNywxLjY7IHN0cm9rZS1kYXNob2Zmc2V0OiAwOyBzdHJva2U6ICM4MDgwODAiLz4KICAgPC9nPgogICA8ZyBpZD0ibGluZTJkXzgiPgogICAgPHBhdGggZD0iTSAzMzUuNTIgMTExLjYgCkwgMzM1LjUyIDAuNzIgCiIgY2xpcC1wYXRoPSJ1cmwoI3A5ZjdhMmRmMzk4KSIgc3R5bGU9ImZpbGw6IG5vbmU7IHN0cm9rZS1kYXNoYXJyYXk6IDMuNywxLjY7IHN0cm9rZS1kYXNob2Zmc2V0OiAwOyBzdHJva2U6ICM4MDgwODAiLz4KICAgPC9nPgogICA8ZyBpZD0idGV4dF8xIj4KICAgIDwhLS0gRXBvY2ggMSAtLT4KICAgIDxnIHRyYW5zZm9ybT0idHJhbnNsYXRlKDQwLjQ1NSAxMi41NjkyMzkpIHNjYWxlKDAuMDggLTAuMDgpIj4KICAgICA8ZGVmcz4KICAgICAgPHBhdGggaWQ9IkRlamFWdVNhbnMtNDUiIGQ9Ik0gNjI4IDQ2NjYgCkwgMzU3OCA0NjY2IApMIDM1NzggNDEzNCAKTCAxMjU5IDQxMzQgCkwgMTI1OSAyNzUzIApMIDM0ODEgMjc1MyAKTCAzNDgxIDIyMjIgCkwgMTI1OSAyMjIyIApMIDEyNTkgNTMxIApMIDM2MzQgNTMxIApMIDM2MzQgMCAKTCA2MjggMCAKTCA2MjggNDY2NiAKegoiIHRyYW5zZm9ybT0ic2NhbGUoMC4wMTU2MjUpIi8+CiAgICAgIDxwYXRoIGlkPSJEZWphVnVTYW5zLTcwIiBkPSJNIDExNTkgNTI1IApMIDExNTkgLTEzMzEgCkwgNTgxIC0xMzMxIApMIDU4MSAzNTAwIApMIDExNTkgMzUwMCAKTCAxMTU5IDI5NjkgClEgMTM0MSAzMjgxIDE2MTcgMzQzMiAKUSAxODk0IDM1ODQgMjI3OCAzNTg0IApRIDI5MTYgMzU4NCAzMzE0IDMwNzggClEgMzcxMyAyNTcyIDM3MTMgMTc0NyAKUSAzNzEzIDkyMiAzMzE0IDQxNSAKUSAyOTE2IC05MSAyMjc4IC05MSAKUSAxODk0IC05MSAxNjE3IDYxIApRIDEzNDEgMjEzIDExNTkgNTI1IAp6Ck0gMzExNiAxNzQ3IApRIDMxMTYgMjM4MSAyODU1IDI3NDIgClEgMjU5NCAzMTAzIDIxMzggMzEwMyAKUSAxNjgxIDMxMDMgMTQyMCAyNzQyIApRIDExNTkgMjM4MSAxMTU5IDE3NDcgClEgMTE1OSAxMTEzIDE0MjAgNzUyIApRIDE2ODEgMzkxIDIxMzggMzkxIApRIDI1OTQgMzkxIDI4NTUgNzUyIApRIDMxMTYgMTExMyAzMTE2IDE3NDcgCnoKIiB0cmFuc2Zvcm09InNjYWxlKDAuMDE1NjI1KSIvPgogICAgICA8cGF0aCBpZD0iRGVqYVZ1U2Fucy02ZiIgZD0iTSAxOTU5IDMwOTcgClEgMTQ5NyAzMDk3IDEyMjggMjczNiAKUSA5NTkgMjM3NSA5NTkgMTc0NyAKUSA5NTkgMTExOSAxMjI2IDc1OCAKUSAxNDk0IDM5NyAxOTU5IDM5NyAKUSAyNDE5IDM5NyAyNjg3IDc1OSAKUSAyOTU2IDExMjIgMjk1NiAxNzQ3IApRIDI5NTYgMjM2OSAyNjg3IDI3MzMgClEgMjQxOSAzMDk3IDE5NTkgMzA5NyAKegpNIDE5NTkgMzU4NCAKUSAyNzA5IDM1ODQgMzEzNyAzMDk2IApRIDM1NjYgMjYwOSAzNTY2IDE3NDcgClEgMzU2NiA4ODggMzEzNyAzOTggClEgMjcwOSAtOTEgMTk1OSAtOTEgClEgMTIwNiAtOTEgNzc5IDM5OCAKUSAzNTMgODg4IDM1MyAxNzQ3IApRIDM1MyAyNjA5IDc3OSAzMDk2IApRIDEyMDYgMzU4NCAxOTU5IDM1ODQgCnoKIiB0cmFuc2Zvcm09InNjYWxlKDAuMDE1NjI1KSIvPgogICAgICA8cGF0aCBpZD0iRGVqYVZ1U2Fucy02MyIgZD0iTSAzMTIyIDMzNjYgCkwgMzEyMiAyODI4IApRIDI4NzggMjk2MyAyNjMzIDMwMzAgClEgMjM4OCAzMDk3IDIxMzggMzA5NyAKUSAxNTc4IDMwOTcgMTI2OCAyNzQyIApRIDk1OSAyMzg4IDk1OSAxNzQ3IApRIDk1OSAxMTA2IDEyNjggNzUxIApRIDE1NzggMzk3IDIxMzggMzk3IApRIDIzODggMzk3IDI2MzMgNDY0IApRIDI4NzggNTMxIDMxMjIgNjY2IApMIDMxMjIgMTM0IApRIDI4ODEgMjIgMjYyMyAtMzQgClEgMjM2NiAtOTEgMjA3NSAtOTEgClEgMTI4NCAtOTEgODE4IDQwNiAKUSAzNTMgOTAzIDM1MyAxNzQ3IApRIDM1MyAyNjAzIDgyMyAzMDkzIApRIDEyOTQgMzU4NCAyMTEzIDM1ODQgClEgMjM3OCAzNTg0IDI2MzEgMzUyOSAKUSAyODg0IDM0NzUgMzEyMiAzMzY2IAp6CiIgdHJhbnNmb3JtPSJzY2FsZSgwLjAxNTYyNSkiLz4KICAgICAgPHBhdGggaWQ9IkRlamFWdVNhbnMtNjgiIGQ9Ik0gMzUxMyAyMTEzIApMIDM1MTMgMCAKTCAyOTM4IDAgCkwgMjkzOCAyMDk0IApRIDI5MzggMjU5MSAyNzQ0IDI4MzcgClEgMjU1MCAzMDg0IDIxNjMgMzA4NCAKUSAxNjk3IDMwODQgMTQyOCAyNzg3IApRIDExNTkgMjQ5MSAxMTU5IDE5NzggCkwgMTE1OSAwIApMIDU4MSAwIApMIDU4MSA0ODYzIApMIDExNTkgNDg2MyAKTCAxMTU5IDI5NTYgClEgMTM2NiAzMjcyIDE2NDUgMzQyOCAKUSAxOTI1IDM1ODQgMjI5MSAzNTg0IApRIDI4OTQgMzU4NCAzMjAzIDMyMTEgClEgMzUxMyAyODM4IDM1MTMgMjExMyAKegoiIHRyYW5zZm9ybT0ic2NhbGUoMC4wMTU2MjUpIi8+CiAgICAgIDxwYXRoIGlkPSJEZWphVnVTYW5zLTIwIiB0cmFuc2Zvcm09InNjYWxlKDAuMDE1NjI1KSIvPgogICAgICA8cGF0aCBpZD0iRGVqYVZ1U2Fucy0zMSIgZD0iTSA3OTQgNTMxIApMIDE4MjUgNTMxIApMIDE4MjUgNDA5MSAKTCA3MDMgMzg2NiAKTCA3MDMgNDQ0MSAKTCAxODE5IDQ2NjYgCkwgMjQ1MCA0NjY2IApMIDI0NTAgNTMxIApMIDM0ODEgNTMxIApMIDM0ODEgMCAKTCA3OTQgMCAKTCA3OTQgNTMxIAp6CiIgdHJhbnNmb3JtPSJzY2FsZSgwLjAxNTYyNSkiLz4KICAgICA8L2RlZnM+CiAgICAgPHVzZSB4bGluazpocmVmPSIjRGVqYVZ1U2Fucy00NSIvPgogICAgIDx1c2UgeGxpbms6aHJlZj0iI0RlamFWdVNhbnMtNzAiIHg9IjYzLjE4MzU5NCIvPgogICAgIDx1c2UgeGxpbms6aHJlZj0iI0RlamFWdVNhbnMtNmYiIHg9IjEyNi42NjAxNTYiLz4KICAgICA8dXNlIHhsaW5rOmhyZWY9IiNEZWphVnVTYW5zLTYzIiB4PSIxODcuODQxNzk3Ii8+CiAgICAgPHVzZSB4bGluazpocmVmPSIjRGVqYVZ1U2Fucy02OCIgeD0iMjQyLjgyMjI2NiIvPgogICAgIDx1c2UgeGxpbms6aHJlZj0iI0RlamFWdVNhbnMtMjAiIHg9IjMwNi4yMDExNzIiLz4KICAgICA8dXNlIHhsaW5rOmhyZWY9IiNEZWphVnVTYW5zLTMxIiB4PSIzMzcuOTg4MjgxIi8+CiAgICA8L2c+CiAgIDwvZz4KICAgPGcgaWQ9InRleHRfMiI+CiAgICA8IS0tIEVwb2NoIDIgLS0+CiAgICA8ZyB0cmFuc2Zvcm09InRyYW5zbGF0ZSgxNTIuMDU1IDEyLjU2OTIzOSkgc2NhbGUoMC4wOCAtMC4wOCkiPgogICAgIDxkZWZzPgogICAgICA8cGF0aCBpZD0iRGVqYVZ1U2Fucy0zMiIgZD0iTSAxMjI4IDUzMSAKTCAzNDMxIDUzMSAKTCAzNDMxIDAgCkwgNDY5IDAgCkwgNDY5IDUzMSAKUSA4MjggOTAzIDE0NDggMTUyOSAKUSAyMDY5IDIxNTYgMjIyOCAyMzM4IApRIDI1MzEgMjY3OCAyNjUxIDI5MTQgClEgMjc3MiAzMTUwIDI3NzIgMzM3OCAKUSAyNzcyIDM3NTAgMjUxMSAzOTg0IApRIDIyNTAgNDIxOSAxODMxIDQyMTkgClEgMTUzNCA0MjE5IDEyMDQgNDExNiAKUSA4NzUgNDAxMyA1MDAgMzgwMyAKTCA1MDAgNDQ0MSAKUSA4ODEgNDU5NCAxMjEyIDQ2NzIgClEgMTU0NCA0NzUwIDE4MTkgNDc1MCAKUSAyNTQ0IDQ3NTAgMjk3NSA0Mzg3IApRIDM0MDYgNDAyNSAzNDA2IDM0MTkgClEgMzQwNiAzMTMxIDMyOTggMjg3MyAKUSAzMTkxIDI2MTYgMjkwNiAyMjY2IApRIDI4MjggMjE3NSAyNDA5IDE3NDIgClEgMTk5MSAxMzA5IDEyMjggNTMxIAp6CiIgdHJhbnNmb3JtPSJzY2FsZSgwLjAxNTYyNSkiLz4KICAgICA8L2RlZnM+CiAgICAgPHVzZSB4bGluazpocmVmPSIjRGVqYVZ1U2Fucy00NSIvPgogICAgIDx1c2UgeGxpbms6aHJlZj0iI0RlamFWdVNhbnMtNzAiIHg9IjYzLjE4MzU5NCIvPgogICAgIDx1c2UgeGxpbms6aHJlZj0iI0RlamFWdVNhbnMtNmYiIHg9IjEyNi42NjAxNTYiLz4KICAgICA8dXNlIHhsaW5rOmhyZWY9IiNEZWphVnVTYW5zLTYzIiB4PSIxODcuODQxNzk3Ii8+CiAgICAgPHVzZSB4bGluazpocmVmPSIjRGVqYVZ1U2Fucy02OCIgeD0iMjQyLjgyMjI2NiIvPgogICAgIDx1c2UgeGxpbms6aHJlZj0iI0RlamFWdVNhbnMtMjAiIHg9IjMwNi4yMDExNzIiLz4KICAgICA8dXNlIHhsaW5rOmhyZWY9IiNEZWphVnVTYW5zLTMyIiB4PSIzMzcuOTg4MjgxIi8+CiAgICA8L2c+CiAgIDwvZz4KICAgPGcgaWQ9InRleHRfMyI+CiAgICA8IS0tIEVwb2NoIDMgLS0+CiAgICA8ZyB0cmFuc2Zvcm09InRyYW5zbGF0ZSgyNjMuNjU1IDEyLjU2OTIzOSkgc2NhbGUoMC4wOCAtMC4wOCkiPgogICAgIDxkZWZzPgogICAgICA8cGF0aCBpZD0iRGVqYVZ1U2Fucy0zMyIgZD0iTSAyNTk3IDI1MTYgClEgMzA1MCAyNDE5IDMzMDQgMjExMiAKUSAzNTU5IDE4MDYgMzU1OSAxMzU2IApRIDM1NTkgNjY2IDMwODQgMjg3IApRIDI2MDkgLTkxIDE3MzQgLTkxIApRIDE0NDEgLTkxIDExMzAgLTMzIApRIDgxOSAyNSA0ODggMTQxIApMIDQ4OCA3NTAgClEgNzUwIDU5NyAxMDYyIDUxOSAKUSAxMzc1IDQ0MSAxNzE2IDQ0MSAKUSAyMzA5IDQ0MSAyNjIwIDY3NSAKUSAyOTMxIDkwOSAyOTMxIDEzNTYgClEgMjkzMSAxNzY5IDI2NDIgMjAwMSAKUSAyMzUzIDIyMzQgMTgzOCAyMjM0IApMIDEyOTQgMjIzNCAKTCAxMjk0IDI3NTMgCkwgMTg2MyAyNzUzIApRIDIzMjggMjc1MyAyNTc1IDI5MzkgClEgMjgyMiAzMTI1IDI4MjIgMzQ3NSAKUSAyODIyIDM4MzQgMjU2NyA0MDI2IApRIDIzMTMgNDIxOSAxODM4IDQyMTkgClEgMTU3OCA0MjE5IDEyODEgNDE2MiAKUSA5ODQgNDEwNiA2MjggMzk4OCAKTCA2MjggNDU1MCAKUSA5ODggNDY1MCAxMzAyIDQ3MDAgClEgMTYxNiA0NzUwIDE4OTQgNDc1MCAKUSAyNjEzIDQ3NTAgMzAzMSA0NDIzIApRIDM0NTAgNDA5NyAzNDUwIDM1NDEgClEgMzQ1MCAzMTUzIDMyMjggMjg4NiAKUSAzMDA2IDI2MTkgMjU5NyAyNTE2IAp6CiIgdHJhbnNmb3JtPSJzY2FsZSgwLjAxNTYyNSkiLz4KICAgICA8L2RlZnM+CiAgICAgPHVzZSB4bGluazpocmVmPSIjRGVqYVZ1U2Fucy00NSIvPgogICAgIDx1c2UgeGxpbms6aHJlZj0iI0RlamFWdVNhbnMtNzAiIHg9IjYzLjE4MzU5NCIvPgogICAgIDx1c2UgeGxpbms6aHJlZj0iI0RlamFWdVNhbnMtNmYiIHg9IjEyNi42NjAxNTYiLz4KICAgICA8dXNlIHhsaW5rOmhyZWY9IiNEZWphVnVTYW5zLTYzIiB4PSIxODcuODQxNzk3Ii8+CiAgICAgPHVzZSB4bGluazpocmVmPSIjRGVqYVZ1U2Fucy02OCIgeD0iMjQyLjgyMjI2NiIvPgogICAgIDx1c2UgeGxpbms6aHJlZj0iI0RlamFWdVNhbnMtMjAiIHg9IjMwNi4yMDExNzIiLz4KICAgICA8dXNlIHhsaW5rOmhyZWY9IiNEZWphVnVTYW5zLTMzIiB4PSIzMzcuOTg4MjgxIi8+CiAgICA8L2c+CiAgIDwvZz4KICA8L2c+CiA8L2c+CiA8ZGVmcz4KICA8Y2xpcFBhdGggaWQ9InA5ZjdhMmRmMzk4Ij4KICAgPHJlY3QgeD0iMC43MiIgeT0iMC43MiIgd2lkdGg9IjMzNC44IiBoZWlnaHQ9IjExMC44OCIvPgogIDwvY2xpcFBhdGg+CiA8L2RlZnM+Cjwvc3ZnPgo=;" vertex="1" parent="1">
          <mxGeometry x="935" y="278" width="179.2" height="60" as="geometry" />
        </mxCell>
      </root>
    </mxGraphModel>
  </diagram>
</mxfile>
